<?xml version="1.0" standalone="no"?>
<!DOCTYPE svg PUBLIC "-//W3C//DTD SVG 1.1//EN" "http://www.w3.org/Graphics/SVG/1.1/DTD/svg11.dtd" >
<svg>
<metadata>
Created by FontForge 20090914 at Sat Aug 21 15:38:31 2021
 By www-data
Copyright (c) 2016 by S-Core Co., Ltd.. All rights reserved.
</metadata>
<defs>
<font id="CoreSansC-35Light" horiz-adv-x="784" >
  <font-face 
    font-family="Core Sans C 35 Light"
    font-weight="300"
    font-stretch="normal"
    units-per-em="2000"
    panose-1="2 11 6 3 3 3 2 2 2 4"
    ascent="1600"
    descent="-400"
    x-height="1036"
    cap-height="1400"
    bbox="-752 -520.001 2460 1950"
    underline-thickness="48"
    underline-position="-462"
    unicode-range="U+0009-U+FB04"
  />
<missing-glyph horiz-adv-x="1000" 
d="M860 0h-720v1500h720v-1500zM257 111h486v1278h-486v-1278z" />
    <glyph glyph-name="ff" unicode="ff" horiz-adv-x="1420" 
d="M1373 1452l0.000976562 -118c-22.667 4 -53.334 6 -92.001 6c-78 0 -134.833 -20 -170.5 -60s-53.5 -99.333 -53.5 -178v-66h316v-120h-316v-916h-136v916h-544v-916h-136v916h-194v120h194v68c0 237.333 120 356 360 356c57.333 0 107.666 -6.66699 150.999 -20
l-27 -119c-41.333 12.667 -82.666 19 -123.999 19c-149.333 0 -224 -79.333 -224 -238v-66h544v68c0 237.333 116.667 356 350 356c36 0 70 -2.66699 102 -8z" />
    <glyph glyph-name="fi" unicode="fi" horiz-adv-x="1247" 
d="M892 1333c0 27.333 9.33301 50.333 28 69s41.667 28 69 28s50.333 -9.33301 69 -28s28 -41.667 28 -69s-9.33301 -50.333 -28 -69s-41.667 -28 -69 -28s-50.333 9.33301 -69 28s-28 41.667 -28 69zM377 1102l0.000976562 -66h680v-1036h-136v916h-544v-916h-136v916h-194
v120h194v68c0 237.333 118.667 356 356 356c33.333 0 68.666 -2.66699 105.999 -8v-118c-28 4 -60 6 -96 6c-80 0 -138.333 -20 -175 -60s-55 -99.333 -55 -178z" />
    <glyph glyph-name="fl" unicode="fl" horiz-adv-x="1247" 
d="M693 1452v-118c-23.333 4 -54 6 -92 6c-78 0 -134.833 -20 -170.5 -60s-53.5 -99.333 -53.5 -178v-66h316v-120h-316v-916h-136v916h-194v120h194v68c0 237.333 116.667 356 350 356c36 0 70 -2.66699 102 -8zM921 0v1460h136v-1460h-136z" />
    <glyph glyph-name="ffi" unicode="ffi" horiz-adv-x="1927" 
d="M1572 1333c0 27.333 9.33301 50.333 28 69s41.667 28 69 28s50.333 -9.33301 69 -28s28 -41.667 28 -69s-9.33301 -50.333 -28 -69s-41.667 -28 -69 -28s-50.333 9.33301 -69 28s-28 41.667 -28 69zM377 1102v-66h544v68c0 237.333 118.333 356 355 356
c38 0 73.667 -2.66699 107 -8v-118c-24 4 -56.333 6 -97 6c-79.333 0 -137.333 -20.167 -174 -60.5s-55 -99.5 -55 -177.5v-66h680v-1036h-136v916h-544v-916h-136v916h-544v-916h-136v916h-194v120h194v68c0 237.333 120 356 360 356
c57.333 0 107.666 -6.66699 150.999 -20l-27 -119c-41.333 12.667 -82.666 19 -123.999 19c-149.333 0 -224 -79.333 -224 -238z" />
    <glyph glyph-name="ffl" unicode="ffl" horiz-adv-x="1927" 
d="M1373 1452l0.000976562 -118c-22.667 4 -53.334 6 -92.001 6c-78 0 -134.833 -20 -170.5 -60s-53.5 -99.333 -53.5 -178v-66h316v-120h-316v-916h-136v916h-544v-916h-136v916h-194v120h194v68c0 237.333 120 356 360 356c57.333 0 107.666 -6.66699 150.999 -20
l-27 -119c-41.333 12.667 -82.666 19 -123.999 19c-149.333 0 -224 -79.333 -224 -238v-66h544v68c0 237.333 116.667 356 350 356c36 0 70 -2.66699 102 -8zM1601 0v1460h136v-1460h-136z" />
    <glyph glyph-name=".notdef" horiz-adv-x="1000" 
d="M860 0h-720v1500h720v-1500zM257 111h486v1278h-486v-1278z" />
    <glyph glyph-name=".null" horiz-adv-x="0" 
 />
    <glyph glyph-name=".null" horiz-adv-x="0" 
 />
    <glyph glyph-name="CR" unicode="&#x9;" horiz-adv-x="0" 
 />
    <glyph glyph-name="space" unicode=" " horiz-adv-x="588" 
 />
    <glyph glyph-name="exclam" unicode="!" horiz-adv-x="612" 
d="M236 384v1016h140v-1016h-140zM206 76c0 28.667 9.5 52.5 28.5 71.5s42.833 28.5 71.5 28.5s52.5 -9.5 71.5 -28.5s28.5 -42.833 28.5 -71.5s-9.5 -52.5 -28.5 -71.5s-42.833 -28.5 -71.5 -28.5s-52.5 9.5 -71.5 28.5s-28.5 42.833 -28.5 71.5z" />
    <glyph glyph-name="quotedbl" unicode="&#x22;" horiz-adv-x="944" 
d="M242 834v566h136v-566h-136zM566 834v566h136v-566h-136z" />
    <glyph glyph-name="numbersign" unicode="#" horiz-adv-x="1352" 
d="M1271 907h-241l-73 -422h240v-115h-259l-63 -370h-135l63 370h-366l-63 -370h-135l63 370h-221v115h240l73 422h-239v115h259l65 378h135l-65 -378h366l65 378h135l-65 -378h221v-115zM895 907h-366l-73 -422h366z" />
    <glyph glyph-name="dollar" unicode="$" horiz-adv-x="1164" 
d="M111 200l90 97c44 -52.667 96.167 -96.834 156.5 -132.501s123.5 -56.5 189.5 -62.5v567c-133.333 30.667 -234.666 78.834 -303.999 144.501s-104 146.167 -104 241.5c0 104 37.667 190.167 113 258.5s173.666 104.833 294.999 109.5v181h110v-186
c130.667 -17.333 244.667 -74.666 342 -171.999l-84 -101c-84.667 81.333 -170.667 130.333 -258 147v-518c142.667 -34.667 247.667 -86.167 315 -154.5s101 -153.5 101 -255.5c0 -104.667 -37.667 -192.334 -113 -263.001s-176.333 -111.334 -303 -122.001v-183h-110v182
c-87.333 6.66699 -169.333 29.834 -246 69.501s-140 90.5 -190 152.5zM931 362c0 132 -91.333 225.335 -274 280.002v-537c82 11.333 148.167 40.166 198.5 86.499s75.5 103.166 75.5 170.499zM281 1065c0 -122 88.667 -209.668 266 -263.001v497
c-80 -5.33301 -144.333 -29.666 -193 -72.999s-73 -97 -73 -161z" />
    <glyph glyph-name="percent" unicode="%" horiz-adv-x="1792" 
d="M464 0l722 1400h142l-720 -1400h-144zM98 1068c0 94 33.833 175.167 101.5 243.5s152.5 102.5 254.5 102.5s186.833 -34.167 254.5 -102.5s101.5 -149.5 101.5 -243.5s-33.833 -175.167 -101.5 -243.5s-152.5 -102.5 -254.5 -102.5s-186.833 34.167 -254.5 102.5
s-101.5 149.5 -101.5 243.5zM231 1068c0 -60.667 21 -114.167 63 -160.5s95.333 -69.5 160 -69.5s118 23.167 160 69.5s63 99.833 63 160.5s-21 114.167 -63 160.5s-95.333 69.5 -160 69.5s-118 -23.167 -160 -69.5s-63 -99.833 -63 -160.5zM982 332
c0 94 33.833 175.167 101.5 243.5s152.5 102.5 254.5 102.5s186.833 -34.167 254.5 -102.5s101.5 -149.5 101.5 -243.5s-33.833 -175.167 -101.5 -243.5s-152.5 -102.5 -254.5 -102.5s-186.833 34.167 -254.5 102.5s-101.5 149.5 -101.5 243.5zM1115 332
c0 -60.667 21 -114.167 63 -160.5s95.333 -69.5 160 -69.5s118 23.167 160 69.5s63 99.833 63 160.5s-21 114.167 -63 160.5s-95.333 69.5 -160 69.5s-118 -23.167 -160 -69.5s-63 -99.833 -63 -160.5z" />
    <glyph glyph-name="ampersand" unicode="&#x26;" horiz-adv-x="1450" 
d="M974 1183l-121.999 -49.001c-21.333 55.333 -54.166 98.5 -98.499 129.5s-96.5 46.5 -156.5 46.5c-64.667 0 -119.334 -21 -164.001 -63s-67 -91.667 -67 -149c0 -44 15.167 -87 45.5 -129s83.166 -97.667 158.499 -167l455 -415c52.667 94.667 86 204.334 100 329.001
l133 -19c-15.333 -152 -59.333 -286.333 -132 -403l322 -294h-189l-214 193c-59.333 -68.667 -127.833 -122 -205.5 -160s-160.834 -57 -249.501 -57c-130 0 -238.833 38 -326.5 114s-131.5 169 -131.5 279c0 160.667 92.667 295.667 278 405
c-62.667 62 -108 117.333 -136 166s-42 101 -42 157c0 92 35.667 169.5 107 232.5s157.333 94.5 258 94.5c90.667 0 168.834 -21.5 234.501 -64.5s113.167 -101.833 142.5 -176.5zM590.001 95.999c66.667 0 131 16 193 48s117.667 77.667 167 137l-448 408
c-156 -88.667 -234 -192.667 -234 -312c0 -77.333 30.833 -143.5 92.5 -198.5s138.167 -82.5 229.5 -82.5z" />
    <glyph glyph-name="quotesingle" unicode="'" horiz-adv-x="620" 
d="M242 834v566h136v-566h-136z" />
    <glyph glyph-name="parenleft" unicode="(" horiz-adv-x="822" 
d="M250 610c0 178.667 33 349.83 99 513.497s157 302.5 273 416.5l96 -75c-104 -108 -184.667 -237.167 -242 -387.5s-86 -306.166 -86 -467.499s28.667 -317.166 86 -467.499s138 -279.5 242 -387.5l-96 -75c-116 114 -207 252.833 -273 416.5s-99 334.834 -99 513.501z
" />
    <glyph glyph-name="parenright" unicode=")" horiz-adv-x="822" 
d="M572 610c0 -178.667 -33 -349.83 -99 -513.497s-157 -302.5 -273 -416.5l-96 75c104 108 184.667 237.167 242 387.5s86 306.166 86 467.499s-28.667 317.166 -86 467.499s-138 279.5 -242 387.5l96 75c116 -114 207 -252.833 273 -416.5s99 -334.834 99 -513.501z" />
    <glyph glyph-name="asterisk" unicode="*" horiz-adv-x="1098" 
d="M196 937l297 -175l-3 344h118l-3 -344l297 175l59 -102l-301 -171l301 -171l-59 -102l-297 174l3 -343h-118l3 343l-297 -174l-59 102l301 171l-301 171z" />
    <glyph glyph-name="plus" unicode="+" horiz-adv-x="1136" 
d="M500 210v395h-382v118h382v395h136v-395h382v-118h-382v-395h-136z" />
    <glyph glyph-name="comma" unicode="," horiz-adv-x="588" 
d="M192 78c0 29.333 9.66895 53.666 29.002 72.999s43.666 29 72.999 29s53.666 -9.66699 72.999 -29s29 -43.666 29 -72.999c0 -14.667 -3.33301 -29.667 -10 -45l-122 -273h-95l97 220c-22 6 -39.833 17.833 -53.5 35.5s-20.5 38.5 -20.5 62.5z" />
    <glyph glyph-name="hyphen" unicode="-" horiz-adv-x="796" 
d="M679 600h-562v128h562v-128z" />
    <glyph glyph-name="period" unicode="." horiz-adv-x="588" 
d="M192 78c0 29.333 9.66699 53.666 29 72.999s43.666 29 72.999 29s53.666 -9.66699 72.999 -29s29 -43.666 29 -72.999s-9.66699 -53.666 -29 -72.999s-43.666 -29 -72.999 -29s-53.666 9.66699 -72.999 29s-29 43.666 -29 72.999z" />
    <glyph glyph-name="slash" unicode="/" horiz-adv-x="905" 
d="M867 1500l-683 -1780h-146l684 1780h145z" />
    <glyph glyph-name="zero" unicode="0" horiz-adv-x="1176" 
d="M123 700c0 103.333 9.66699 198.5 29 285.5s47.833 163.333 85.5 229s86.5 117 146.5 154s128 55.5 204 55.5s144 -18.5 204 -55.5s108.667 -88.333 146 -154s65.833 -142 85.5 -229s29.5 -182.167 29.5 -285.5s-9.83301 -198.5 -29.5 -285.5
s-48.167 -163.333 -85.5 -229s-86 -117 -146 -154s-128 -55.5 -204 -55.5s-144 18.5 -204 55.5s-108.833 88.333 -146.5 154s-66.167 142 -85.5 229s-29 182.167 -29 285.5zM261 700c0 -86.667 6.5 -165.834 19.5 -237.501s32.5 -134.667 58.5 -189
s60.167 -96.5 102.5 -126.5s91.166 -45 146.499 -45s104.166 15 146.499 45s76.5 72.167 102.5 126.5s45.5 117.333 58.5 189s19.5 150.834 19.5 237.501s-6.5 165.834 -19.5 237.501s-32.5 134.667 -58.5 189s-60.167 96.5 -102.5 126.5s-91.166 45 -146.499 45
s-104.166 -15 -146.499 -45s-76.5 -72.167 -102.5 -126.5s-45.5 -117.333 -58.5 -189s-19.5 -150.834 -19.5 -237.501z" />
    <glyph glyph-name="one" unicode="1" horiz-adv-x="1176" 
d="M608 1400h128v-1400h-138v1261l-295 -166l-59 104z" />
    <glyph glyph-name="two" unicode="2" horiz-adv-x="1176" 
d="M827 634l-458.001 -514.003h632v-120h-814v115l532 593c56 62 96.333 119.5 121 172.5s37 106.833 37 161.5c0 75.333 -27 137.833 -81 187.5s-122 74.5 -204 74.5c-74.667 0 -138.5 -20.833 -191.5 -62.5s-89.167 -99.5 -108.5 -173.5l-117 50
c22 90.667 70.333 164.334 145 221.001s165.334 85 272.001 85c122 0 223 -35.667 303 -107s120 -162.666 120 -273.999c0 -70.667 -15 -138.167 -45 -202.5s-77.667 -133.166 -143 -206.499z" />
    <glyph glyph-name="three" unicode="3" horiz-adv-x="1176" 
d="M871 424c0 92 -33.3359 169.666 -100.003 232.999s-148.667 95 -246 95c-36 0 -69 -5 -99 -15l-56 71l409 470h-594v122h761v-122l-384 -436c128.667 0 235.334 -41.167 320.001 -123.5s127 -184.166 127 -305.499c0 -57.333 -11.667 -112.333 -35 -165
s-55.666 -99.167 -96.999 -139.5s-92.166 -72.5 -152.499 -96.5s-125.5 -36 -195.5 -36c-90.667 0 -171.667 19.667 -243 59s-130.333 94.666 -177 165.999l95 81c36.667 -57.333 82.5 -102.666 137.5 -135.999s116.167 -50 183.5 -50c97.333 0 179.333 31.667 246 95
s100 141 100 233z" />
    <glyph glyph-name="four" unicode="4" horiz-adv-x="1176" 
d="M81 304v125l656 971h138v-970h180v-126h-180v-304h-138v304h-656zM236 429h501v744z" />
    <glyph glyph-name="five" unicode="5" horiz-adv-x="1176" 
d="M550 -24c-86.667 0 -166.335 19.5 -239.002 58.5s-132 92.833 -178 161.5l97 82c38 -57.333 84 -102 138 -134s113.333 -48 178 -48c96.667 0 177.5 31.5 242.5 94.5s97.5 141.5 97.5 235.5s-32.5 172.5 -97.5 235.5s-145.833 94.5 -242.5 94.5
c-55.333 0 -105.666 -12.167 -150.999 -36.5s-80.333 -55.833 -105 -94.5l-96 12l84 763h694v-122h-571l-58 -492c58.667 58.667 136.667 88 234 88c124 0 229.5 -41.5 316.5 -124.5s130.5 -189.833 130.5 -320.5c0 -132 -44.167 -240.5 -132.5 -325.5
s-202.166 -127.5 -341.499 -127.5z" />
    <glyph glyph-name="six" unicode="6" horiz-adv-x="1176" 
d="M797 1400l-366 -568.999c48 32.667 105 49 171 49c82 0 157.833 -19.167 227.5 -57.5s125.334 -92.333 167.001 -162s62.5 -146.834 62.5 -231.501s-21.667 -162 -65 -232s-101 -124.333 -173 -163s-149.667 -58 -233 -58c-84.667 0 -163.334 19.333 -236.001 58
s-130.667 93 -174 163s-65 147.333 -65 232c0 86.667 22.333 165.667 67 237l468 734h149zM921 429.001c0 93.333 -32.5 172.166 -97.5 236.499s-144.167 96.5 -237.5 96.5s-172.5 -32.167 -237.5 -96.5s-97.5 -143.166 -97.5 -236.499s32.5 -172.166 97.5 -236.499
s144.167 -96.5 237.5 -96.5s172.5 32.167 237.5 96.5s97.5 143.166 97.5 236.499z" />
    <glyph glyph-name="seven" unicode="7" horiz-adv-x="1176" 
d="M171 1400h842v-117l-544 -1283h-156l544 1278h-686v122z" />
    <glyph glyph-name="eight" unicode="8" horiz-adv-x="1176" 
d="M588 -24c-131.333 0 -242.166 40.833 -332.499 122.5s-135.5 181.834 -135.5 300.501c0 86 25.833 162.667 77.5 230s121.834 114 210.501 140c-64.667 22 -116.834 60.667 -156.501 116s-59.5 116 -59.5 182c0 100 37.667 184.5 113 253.5s169.666 103.5 282.999 103.5
s207.666 -34.5 282.999 -103.5s113 -153.5 113 -253.5c0 -66 -19.833 -126.667 -59.5 -182s-91.834 -94 -156.501 -116c88.667 -26 158.834 -72.667 210.501 -140s77.5 -144 77.5 -230c0 -118.667 -45.167 -218.834 -135.5 -300.501s-201.166 -122.5 -332.499 -122.5z
M588 706c-92.667 0 -170.834 -29.833 -234.501 -89.5s-95.5 -131.5 -95.5 -215.5s31.833 -155.833 95.5 -215.5s141.834 -89.5 234.501 -89.5s170.834 29.833 234.501 89.5s95.5 131.5 95.5 215.5s-31.833 155.833 -95.5 215.5s-141.834 89.5 -234.501 89.5zM588 822
c73.333 0 135.333 23.667 186 71s76 104.333 76 171s-25.167 123.334 -75.5 170.001s-112.5 70 -186.5 70s-136.167 -23.333 -186.5 -70s-75.5 -103.334 -75.5 -170.001s25.333 -123.667 76 -171s112.667 -71 186 -71z" />
    <glyph glyph-name="nine" unicode="9" horiz-adv-x="1176" 
d="M379 0l366 568.999c-48 -32.667 -105 -49 -171 -49c-82 0 -157.833 19.167 -227.5 57.5s-125.334 92.333 -167.001 162s-62.5 146.834 -62.5 231.501s21.667 162 65 232s101 124.333 173 163s149.667 58 233 58c84.667 0 163.334 -19.333 236.001 -58
s130.667 -93 174 -163s65 -147.333 65 -232c0 -86.667 -22.333 -165.667 -67 -237l-468 -734h-149zM255 970.999c0 -93.333 32.5 -172.166 97.5 -236.499s144.167 -96.5 237.5 -96.5s172.5 32.167 237.5 96.5s97.5 143.166 97.5 236.499s-32.5 172.166 -97.5 236.499
s-144.167 96.5 -237.5 96.5s-172.5 -32.167 -237.5 -96.5s-97.5 -143.166 -97.5 -236.499z" />
    <glyph glyph-name="colon" unicode=":" horiz-adv-x="588" 
d="M192 78c0 29.333 9.66699 53.666 29 72.999s43.666 29 72.999 29s53.666 -9.66699 72.999 -29s29 -43.666 29 -72.999s-9.66699 -53.666 -29 -72.999s-43.666 -29 -72.999 -29s-53.666 9.66699 -72.999 29s-29 43.666 -29 72.999zM192 958
c0 29.333 9.66699 53.666 29 72.999s43.666 29 72.999 29s53.666 -9.66699 72.999 -29s29 -43.666 29 -72.999s-9.66699 -53.666 -29 -72.999s-43.666 -29 -72.999 -29s-53.666 9.66699 -72.999 29s-29 43.666 -29 72.999z" />
    <glyph glyph-name="semicolon" unicode=";" horiz-adv-x="588" 
d="M192 958c0 29.333 9.66699 53.666 29 72.999s43.666 29 72.999 29s53.666 -9.66699 72.999 -29s29 -43.666 29 -72.999s-9.66699 -53.666 -29 -72.999s-43.666 -29 -72.999 -29s-53.666 9.66699 -72.999 29s-29 43.666 -29 72.999zM192 78
c0 29.333 9.66895 53.666 29.002 72.999s43.666 29 72.999 29s53.666 -9.66699 72.999 -29s29 -43.666 29 -72.999c0 -15.333 -3.33301 -30.333 -10 -45l-122 -273h-95l97 220c-22 6 -39.833 17.833 -53.5 35.5s-20.5 38.5 -20.5 62.5z" />
    <glyph glyph-name="less" unicode="&#x3c;" horiz-adv-x="1136" 
d="M984 279v-154l-849 490v98l849 490v-155l-677 -384z" />
    <glyph glyph-name="equal" unicode="=" horiz-adv-x="1136" 
d="M1018 836h-900v118h900v-118zM1018 374h-900v118h900v-118z" />
    <glyph glyph-name="greater" unicode="&#x3e;" horiz-adv-x="1136" 
d="M1001 713v-98l-849 -490v154l677 385l-677 384v155z" />
    <glyph glyph-name="question" unicode="?" horiz-adv-x="1082" 
d="M398 394l-0.000976562 346.999c126.667 0 227.334 27.5 302.001 82.5s112 125.5 112 211.5c0 75.333 -32 138.333 -96 189s-144.667 76 -242 76c-113.333 0 -218 -43 -314 -129l-74 102c115.333 100.667 249.333 151 402 151c134.667 0 246 -38.167 334 -114.5
s132 -168.166 132 -275.499c0 -100 -38.333 -186 -115 -258s-177 -114.667 -301 -128v-254h-140zM371.999 75.999c0 28.667 9.5 52.5 28.5 71.5s42.833 28.5 71.5 28.5s52.5 -9.5 71.5 -28.5s28.5 -42.833 28.5 -71.5s-9.5 -52.5 -28.5 -71.5s-42.833 -28.5 -71.5 -28.5
s-52.5 9.5 -71.5 28.5s-28.5 42.833 -28.5 71.5z" />
    <glyph glyph-name="at" unicode="@" horiz-adv-x="1902" 
d="M944 218c59.333 0 113 17.167 161 51.5s83.333 79.833 106 136.5v264c-22.667 56.667 -58 102.167 -106 136.5s-101.667 51.5 -161 51.5c-82.667 0 -152.167 -30.833 -208.5 -92.5s-84.5 -137.5 -84.5 -227.5s28.167 -165.833 84.5 -227.5s125.833 -92.5 208.5 -92.5z
M1446 112c-50.667 0 -96.8369 15.4971 -138.504 46.4971s-70.834 70.167 -87.501 117.5c-31.333 -49.333 -72.5 -89 -123.5 -119s-107.167 -45 -168.5 -45c-112 0 -206 41.333 -282 124s-114 183.334 -114 302.001s38 219.334 114 302.001s170 124 282 124
c116.667 0 211 -50.333 283 -151v131h117v-614c8 -34 24 -61.167 48 -81.5s51.667 -30.5 83 -30.5c70 0 129.167 35.167 177.5 105.5s72.5 161.833 72.5 274.5c0 132.667 -34 254.334 -102 365.001s-160.167 197.5 -276.5 260.5s-243.5 94.5 -381.5 94.5
c-103.333 0 -201.666 -20 -294.999 -60s-173.666 -94.167 -240.999 -162.5s-120.833 -150 -160.5 -245s-59.5 -195.167 -59.5 -300.5c0 -142 33.5 -271.5 100.5 -388.5s160 -209.5 279 -277.5s251.5 -102 397.5 -102c184.667 0 350.334 52.333 497.001 157l47 -99
c-167.333 -109.333 -348.666 -164 -543.999 -164c-126 0 -244.5 22.5 -355.5 67.5s-205.833 106.167 -284.5 183.5s-140.834 170 -186.501 278s-68.5 223 -68.5 345s23 237.167 69 345.5s108 201 186 278s170.833 138 278.5 183s221.167 67.5 340.5 67.5
c122.667 0 238.334 -21.167 347.001 -63.5s201.834 -99.833 279.501 -172.5s139 -160.167 184 -262.5s67.5 -211.5 67.5 -327.5c0 -142 -36 -258.5 -108 -349.5s-163 -136.5 -273 -136.5z" />
    <glyph glyph-name="A" unicode="A" horiz-adv-x="1348" 
d="M1292 0h-154l-144 385h-640l-144 -385h-154l541 1400h154zM951 507l-277 736l-277 -736h554z" />
    <glyph glyph-name="B" unicode="B" horiz-adv-x="1224" 
d="M695 0l-518.999 0.00292969v1400h472c121.333 0 217.333 -33.333 288 -100s106 -154.334 106 -263.001c0 -75.333 -19.833 -139.333 -59.5 -192s-91.167 -88.334 -154.5 -107.001c83.333 -14.667 153.166 -52.834 209.499 -114.501s84.5 -139.167 84.5 -232.5
c0 -115.333 -39.167 -209.333 -117.5 -282s-181.5 -109 -309.5 -109zM900.001 1031c0 75.333 -24.167 135.334 -72.5 180.001s-111.5 67 -189.5 67h-322v-493h322c78 0 141.167 22.167 189.5 66.5s72.5 104.166 72.5 179.499zM980.001 395.004c0 81.333 -27.5 147 -82.5 197
s-126.833 75 -215.5 75h-366v-545h366c88.667 0 160.5 25 215.5 75s82.5 116 82.5 198z" />
    <glyph glyph-name="C" unicode="C" horiz-adv-x="1355" 
d="M809 100c145.333 0 277.332 49.6709 395.999 149.004l75 -106c-134 -111.333 -291 -167 -471 -167c-100.667 0 -195.834 18.667 -285.501 56s-166.667 88.166 -231 152.499s-115.333 141.166 -153 230.499s-56.5 184.333 -56.5 285s18.833 195.667 56.5 285
s88.667 166.166 153 230.499s141.333 115.166 231 152.499s184.834 56 285.501 56c170.667 0 322 -51.333 454 -154l-72 -106c-123.333 90.667 -250.666 136 -381.999 136c-107.333 0 -205.833 -26.667 -295.5 -80s-160.167 -125.833 -211.5 -217.5s-77 -192.5 -77 -302.5
s25.667 -210.833 77 -302.5s121.833 -164.167 211.5 -217.5s188.167 -80 295.5 -80z" />
    <glyph glyph-name="D" unicode="D" horiz-adv-x="1393" 
d="M176 1400h458c206.667 0 371 -63.833 493 -191.5s183 -297.167 183 -508.5s-61 -380.833 -183 -508.5s-286.333 -191.5 -493 -191.5h-458v1400zM634 1276l-318 0.00195312v-1152h318c162 0 291.5 51.167 388.5 153.5s145.5 243.166 145.5 422.499
s-48.5 320.166 -145.5 422.499s-226.5 153.5 -388.5 153.5z" />
    <glyph glyph-name="E" unicode="E" horiz-adv-x="1118" 
d="M176 0v1400h802v-122h-662v-513h609v-122h-609v-521h680v-122h-820z" />
    <glyph glyph-name="F" unicode="F" horiz-adv-x="1042" 
d="M176 0v1400h782v-122h-642v-512h589v-122h-589v-644h-140z" />
    <glyph glyph-name="G" unicode="G" horiz-adv-x="1430" 
d="M809 1300c-107.333 0 -205.834 -26.6631 -295.501 -79.9961s-160.167 -125.833 -211.5 -217.5s-77 -192.5 -77 -302.5s25.667 -210.833 77 -302.5s121.833 -164.167 211.5 -217.5s188.167 -80 295.5 -80c62.667 0 124 10.333 184 31s113.333 49 160 85v381h-426v122h566
v-564c-63.333 -56 -136.5 -99.833 -219.5 -131.5s-171.167 -47.5 -264.5 -47.5c-100.667 0 -195.834 18.667 -285.501 56s-166.667 88.166 -231 152.499s-115.333 141.166 -153 230.499s-56.5 184.333 -56.5 285s18.833 195.667 56.5 285s88.667 166.166 153 230.499
s141.333 115.166 231 152.499s184.834 56 285.501 56c170.667 0 322 -51.333 454 -154l-72 -106c-123.333 90.667 -250.666 136 -381.999 136z" />
    <glyph glyph-name="H" unicode="H" horiz-adv-x="1380" 
d="M176 0v1400h140v-635h748v635h140v-1400h-140v643h-748v-643h-140z" />
    <glyph glyph-name="I" unicode="I" horiz-adv-x="564" 
d="M212 1400h140v-1400h-140v1400z" />
    <glyph glyph-name="J" unicode="J" horiz-adv-x="896" 
d="M595 417v983h140v-983c0 -148 -34.5 -258.5 -103.5 -331.5s-168.833 -109.5 -299.5 -109.5c-47.333 0 -96 6.16699 -146 18.5s-93.333 28.833 -130 49.5l46 120c31.333 -18.667 68 -34 110 -46s80.667 -18 116 -18c86 0 152 26.167 198 78.5s69 131.833 69 238.5z" />
    <glyph glyph-name="K" unicode="K" horiz-adv-x="1187" 
d="M316 1400v-635h156l458 635h162l-500 -694l580 -706h-166l-530 643h-160v-643h-140v1400h140z" />
    <glyph glyph-name="L" unicode="L" horiz-adv-x="1030" 
d="M176 0v1400h140v-1278h660v-122h-800z" />
    <glyph glyph-name="M" unicode="M" horiz-adv-x="1684" 
d="M888 458h-92l-484 707v-1165h-136v1400h131l535 -785l535 785h131v-1400h-136v1165z" />
    <glyph glyph-name="N" unicode="N" horiz-adv-x="1390" 
d="M176 0v1400h134l768 -1156v1156h136v-1400h-134l-768 1156v-1156h-136z" />
    <glyph glyph-name="O" unicode="O" horiz-adv-x="1618" 
d="M809 100c107.333 0 205.833 26.667 295.5 80s160.167 125.833 211.5 217.5s77 192.5 77 302.5s-25.667 210.833 -77 302.5s-121.833 164.167 -211.5 217.5s-188.167 80 -295.5 80s-205.833 -26.667 -295.5 -80s-160.167 -125.833 -211.5 -217.5s-77 -192.5 -77 -302.5
s25.667 -210.833 77 -302.5s121.833 -164.167 211.5 -217.5s188.167 -80 295.5 -80zM809 1424c100.667 0 195.834 -18.667 285.501 -56s166.667 -88.166 231 -152.499s115.333 -141.166 153 -230.499s56.5 -184.333 56.5 -285s-18.833 -195.667 -56.5 -285
s-88.667 -166.166 -153 -230.499s-141.333 -115.166 -231 -152.499s-184.834 -56 -285.501 -56s-195.834 18.667 -285.501 56s-166.667 88.166 -231 152.499s-115.333 141.166 -153 230.499s-56.5 184.333 -56.5 285s18.833 195.667 56.5 285s88.667 166.166 153 230.499
s141.333 115.166 231 152.499s184.834 56 285.501 56z" />
    <glyph glyph-name="P" unicode="P" horiz-adv-x="1154" 
d="M599 548l-283 -0.00195312v-548h-140v1400h423c145.333 0 261.333 -38.667 348 -116s130 -180.666 130 -309.999s-43.333 -232.666 -130 -309.999s-202.667 -116 -348 -116zM935 973.998c0 92.667 -30.667 166.5 -92 221.5s-144.333 82.5 -249 82.5h-278v-608h278
c104.667 0 187.667 27.5 249 82.5s92 128.833 92 221.5z" />
    <glyph glyph-name="Q" unicode="Q" horiz-adv-x="1618" 
d="M83 700c0 100.667 18.832 195.669 56.499 285.002s88.667 166.166 153 230.499s141.333 115.166 231 152.499s184.834 56 285.501 56s195.834 -18.667 285.501 -56s166.667 -88.166 231 -152.499s115.333 -141.166 153 -230.499s56.5 -184.333 56.5 -285
c0 -102 -19 -197.833 -57 -287.5s-91.333 -167.5 -160 -233.5l203 -218l-91 -84l-208 224c-123.333 -83.333 -261 -125 -413 -125c-100.667 0 -195.834 18.667 -285.501 56s-166.667 88.166 -231 152.499s-115.333 141.166 -153 230.499s-56.5 184.333 -56.5 285z
M224.999 700.002c0 -110 25.666 -210.832 76.999 -302.499s121.833 -164.167 211.5 -217.5s188.167 -80 295.5 -80c116.667 0 224 33 322 99l-276 297l91 84l279 -301c52.667 54.667 93.834 118.167 123.501 190.5s44.5 149.166 44.5 230.499
c0 110 -25.667 210.833 -77 302.5s-121.833 164.167 -211.5 217.5s-188.167 80 -295.5 80s-205.833 -26.667 -295.5 -80s-160.167 -125.833 -211.5 -217.5s-77 -192.5 -77 -302.5z" />
    <glyph glyph-name="R" unicode="R" horiz-adv-x="1187" 
d="M554 548l-237.999 -0.000976562v-548h-140v1400h423c145.333 0 261.333 -38.667 348 -116s130 -180.666 130 -309.999c0 -112 -33.333 -205 -100 -279s-157.334 -120 -272.001 -138l395 -557h-156zM935.001 973.999c0 92.667 -30.667 166.5 -92 221.5
s-144.333 82.5 -249 82.5h-278v-608h278c104.667 0 187.667 27.5 249 82.5s92 128.833 92 221.5z" />
    <glyph glyph-name="S" unicode="S" horiz-adv-x="1164" 
d="M111 200l90.0029 97.001c48.667 -58 106.667 -105.333 174 -142s137.333 -55 210 -55c101.333 0 184.333 24.333 249 73s97 111.667 97 189c0 151.333 -120 252 -360 302c-140.667 29.333 -247.834 77.5 -321.501 144.5s-110.5 149.167 -110.5 246.5
c0 108 40.167 196.5 120.5 265.5s184.166 103.5 311.499 103.5c166.667 0 309.334 -59.333 428.001 -178l-84 -101c-106.667 103.333 -218.667 155 -336 155c-88 0 -159.667 -22.167 -215 -66.5s-83 -100.5 -83 -168.5c0 -138.667 115.667 -233.334 347 -284.001
c152.667 -34 265 -85.5 337 -154.5s108 -156.5 108 -262.5c0 -113.333 -44.167 -206.333 -132.5 -279s-204.5 -109 -348.5 -109c-94.667 0 -184.834 20.5 -270.501 61.5s-155.834 95.167 -210.501 162.5z" />
    <glyph glyph-name="T" unicode="T" horiz-adv-x="1086" 
d="M473 0v1278h-409v122h958v-122h-409v-1278h-140z" />
    <glyph glyph-name="U" unicode="U" horiz-adv-x="1318" 
d="M1157 1400l0.00195312 -918c0 -150 -46.833 -271.5 -140.5 -364.5s-212.834 -139.5 -357.501 -139.5s-263.834 46.5 -357.501 139.5s-140.5 214.5 -140.5 364.5v918h140v-932c0 -108 33.667 -196 101 -264s153 -102 257 -102s189.667 34 257 102s101 156 101 264v932h140
z" />
    <glyph glyph-name="V" unicode="V" horiz-adv-x="1344" 
d="M206 1400l466 -1223l466 1223h152l-541 -1400h-154l-541 1400h152z" />
    <glyph glyph-name="W" unicode="W" horiz-adv-x="1908" 
d="M882 1400h144l346 -1196l334 1196h148l-406 -1400h-144l-350 1207l-350 -1207h-144l-406 1400h148l334 -1196z" />
    <glyph glyph-name="X" unicode="X" horiz-adv-x="1248" 
d="M204 0h-156l492 712l-474 688h156l402 -584l402 584h156l-474 -688l492 -712h-156l-420 608z" />
    <glyph glyph-name="Y" unicode="Y" horiz-adv-x="1280" 
d="M208 1400l432 -688l432 688h154l-516 -826v-574h-140v574l-516 826h154z" />
    <glyph glyph-name="Z" unicode="Z" horiz-adv-x="1189" 
d="M122 122l768 1156h-738v122h904v-122l-768 -1156h788v-122h-954v122z" />
    <glyph glyph-name="bracketleft" unicode="[" horiz-adv-x="822" 
d="M240 -280v1780h522v-122h-382v-1536h382v-122h-522z" />
    <glyph glyph-name="backslash" unicode="\" horiz-adv-x="905" 
d="M720 -280l-682 1780h144l685 -1780h-147z" />
    <glyph glyph-name="bracketright" unicode="]" horiz-adv-x="822" 
d="M582 1500v-1780h-522v122h382v1536h-382v122h522z" />
    <glyph glyph-name="asciicircum" unicode="^" horiz-adv-x="1216" 
d="M536 1400h144l418 -622h-156l-334 498l-334 -498h-156z" />
    <glyph glyph-name="underscore" unicode="_" horiz-adv-x="1000" 
d="M0 -326v108h1000v-108h-1000z" />
    <glyph glyph-name="grave" unicode="`" horiz-adv-x="824" 
d="M285 1460l277 -332h-139l-281 332h143z" />
    <glyph glyph-name="a" unicode="a" horiz-adv-x="1282" 
d="M628 98c79.333 0 151.5 20.498 216.5 61.498s114.833 95.5 149.5 163.5v388c-34.667 68.667 -84.5 123.667 -149.5 165s-137.167 62 -216.5 62c-76 0 -145.833 -19 -209.5 -57s-113.334 -89.167 -149.001 -153.5s-53.5 -134.166 -53.5 -209.499
s17.833 -145.166 53.5 -209.499s85.334 -115.5 149.001 -153.5s133.5 -57 209.5 -57zM608 1060c77.333 0 149.166 -15.6729 215.499 -47.0059s123.166 -75.666 170.499 -132.999v156h136v-1036h-136v156c-47.333 -57.333 -104.166 -101.666 -170.499 -132.999
s-138.166 -47 -215.499 -47c-100 0 -190.833 24.833 -272.5 74.5s-145 115.834 -190 198.501s-67.5 172.334 -67.5 269.001s22.5 186.334 67.5 269.001s108.333 148.834 190 198.501s172.5 74.5 272.5 74.5z" />
    <glyph glyph-name="b" unicode="b" horiz-adv-x="1282" 
d="M654 98c76 0 145.833 19.002 209.5 57.002s113.334 89.167 149.001 153.5s53.5 134.166 53.5 209.499s-17.833 145.166 -53.5 209.499s-85.334 115.5 -149.001 153.5s-133.5 57 -209.5 57c-79.333 0 -151.5 -20.667 -216.5 -62s-114.833 -96.333 -149.5 -165v-388
c34.667 -68 84.5 -122.5 149.5 -163.5s137.167 -61.5 216.5 -61.5zM674 1060c100 0 190.833 -24.8271 272.5 -74.4941s145 -115.834 190 -198.501s67.5 -172.334 67.5 -269.001s-22.5 -186.334 -67.5 -269.001s-108.333 -148.834 -190 -198.501s-172.5 -74.5 -272.5 -74.5
c-77.333 0 -149.166 15.667 -215.499 47s-123.166 75.666 -170.499 132.999v-156h-136v1460h136v-580c47.333 57.333 104.166 101.666 170.499 132.999s138.166 47 215.499 47z" />
    <glyph glyph-name="c" unicode="c" horiz-adv-x="1092" 
d="M628 -24c-103.333 0 -197.335 24.498 -282.002 73.498s-150.5 114.833 -197.5 197.5s-70.5 173 -70.5 271s23.5 188.333 70.5 271s112.833 148.5 197.5 197.5s178.667 73.5 282 73.5c144.667 0 269.334 -47 374.001 -141l-71 -108c-90 84.667 -191 127 -303 127
c-76 0 -145.833 -19 -209.5 -57s-113.334 -89.167 -149.001 -153.5s-53.5 -134.166 -53.5 -209.499s17.833 -145.166 53.5 -209.499s85.334 -115.5 149.001 -153.5s133.5 -57 209.5 -57c119.333 0 223.333 46 312 138l81 -100c-50 -50.667 -108.667 -90 -176 -118
s-139.666 -42 -216.999 -42z" />
    <glyph glyph-name="d" unicode="d" horiz-adv-x="1282" 
d="M628 98c79.333 0 151.5 20.498 216.5 61.498s114.833 95.5 149.5 163.5v388c-34.667 68.667 -84.5 123.667 -149.5 165s-137.167 62 -216.5 62c-76 0 -145.833 -19 -209.5 -57s-113.334 -89.167 -149.001 -153.5s-53.5 -134.166 -53.5 -209.499
s17.833 -145.166 53.5 -209.499s85.334 -115.5 149.001 -153.5s133.5 -57 209.5 -57zM608 1060c77.333 0 149.166 -15.6729 215.499 -47.0059s123.166 -75.666 170.499 -132.999v580h136v-1460h-136v156c-47.333 -57.333 -104.166 -101.666 -170.499 -132.999
s-138.166 -47 -215.499 -47c-100 0 -190.833 24.833 -272.5 74.5s-145 115.834 -190 198.501s-67.5 172.334 -67.5 269.001s22.5 186.334 67.5 269.001s108.333 148.834 190 198.501s172.5 74.5 272.5 74.5z" />
    <glyph glyph-name="e" unicode="e" horiz-adv-x="1212" 
d="M217 478c7.33301 -108 49.3301 -199.002 125.997 -273.002s171.334 -111 284.001 -111c66.667 0 129.834 14.333 189.501 43s111.5 69 155.5 121l94 -87c-52 -62 -115.667 -110 -191 -144s-157 -51 -245 -51c-107.333 0 -203.333 24.5 -288 73.5
s-149.834 114.5 -195.501 196.5s-68.5 172.667 -68.5 272c0 73.333 13.667 143.333 41 210s64.5 124.334 111.5 173.001s104 87.334 171 116.001s138.5 43 214.5 43c98.667 0 187.834 -23.167 267.501 -69.5s141.334 -108.833 185.001 -187.5s65.5 -165 65.5 -259
c0 -22.667 -2.33301 -44.667 -7 -66h-910zM615.997 941.998c-99.333 0 -186.167 -33.667 -260.5 -101s-118.833 -150.333 -133.5 -249h770c-11.333 101.333 -51.833 185 -121.5 251s-154.5 99 -254.5 99z" />
    <glyph glyph-name="f" unicode="f" horiz-adv-x="740" 
d="M693 1452v-118c-23.333 4 -54 6 -92 6c-78 0 -134.833 -20 -170.5 -60s-53.5 -99.333 -53.5 -178v-66h316v-120h-316v-916h-136v916h-194v120h194v68c0 237.333 116.667 356 350 356c36 0 70 -2.66699 102 -8z" />
    <glyph glyph-name="g" unicode="g" horiz-adv-x="1282" 
d="M994 3v152.994c-47.333 -57.333 -104.166 -101.666 -170.499 -132.999s-138.166 -47 -215.499 -47c-100 0 -190.833 24.833 -272.5 74.5s-145 115.834 -190 198.501s-67.5 172.334 -67.5 269.001s22.5 186.334 67.5 269.001s108.333 148.834 190 198.501
s172.5 74.5 272.5 74.5c77.333 0 149.166 -15.667 215.499 -47s123.166 -75.666 170.499 -132.999v156h136v-1025c0 -143.333 -44.667 -258.333 -134 -345s-211.666 -130 -366.999 -130c-93.333 0 -178.833 18.333 -256.5 55s-144.5 86.667 -200.5 150l90 90
c102 -118 224 -177 366 -177c109.333 0 197.666 31.667 264.999 95s101 148 101 254zM628 97.9941c79.333 0 151.5 20.498 216.5 61.498s114.833 95.5 149.5 163.5v388c-34.667 68.667 -84.5 123.667 -149.5 165s-137.167 62 -216.5 62c-76 0 -145.833 -19 -209.5 -57
s-113.334 -89.167 -149.001 -153.5s-53.5 -134.166 -53.5 -209.499s17.833 -145.166 53.5 -209.499s85.334 -115.5 149.001 -153.5s133.5 -57 209.5 -57z" />
    <glyph glyph-name="h" unicode="h" horiz-adv-x="1195" 
d="M288 687v-686.999h-136v1460h136v-621c42 63.333 93.333 116 154 158s130.334 63 209.001 63c119.333 0 217.666 -39 294.999 -117s116 -177 116 -297v-646h-136v638c0 85.333 -28.167 156.666 -84.5 213.999s-127.833 86 -214.5 86c-71.333 0 -135.5 -23.667 -192.5 -71
s-105.833 -107.333 -146.5 -180z" />
    <glyph glyph-name="i" unicode="i" horiz-adv-x="516" 
d="M190 0v1036h136v-1036h-136zM161 1333c0 27.333 9.33301 50.333 28 69s41.667 28 69 28s50.333 -9.33301 69 -28s28 -41.667 28 -69s-9.33301 -50.333 -28 -69s-41.667 -28 -69 -28s-50.333 9.33301 -69 28s-28 41.667 -28 69z" />
    <glyph glyph-name="j" unicode="j" horiz-adv-x="516" 
d="M161 1333c0 27.333 9.33301 50.333 28 69s41.667 28 69 28s50.333 -9.33301 69 -28s28 -41.667 28 -69s-9.33301 -50.333 -28 -69s-41.667 -28 -69 -28s-50.333 9.33301 -69 28s-28 41.667 -28 69zM190 -166l-0.00195312 1202h136v-1200c0 -200 -92 -300 -276 -300
c-21.333 0 -46.666 1.33301 -75.999 4v118c22.667 -1.33301 43.334 -2 62.001 -2c102.667 0 154 59.333 154 178z" />
    <glyph glyph-name="k" unicode="k" horiz-adv-x="1018" 
d="M842 0l-396 517h-158v-517h-136v1460h136v-825h160l336 401h164l-386 -460l440 -576h-160z" />
    <glyph glyph-name="l" unicode="l" horiz-adv-x="516" 
d="M190 0v1460h136v-1460h-136z" />
    <glyph glyph-name="m" unicode="m" horiz-adv-x="1857" 
d="M288 693l-0.00390625 -692.999h-136v1036h136v-189c37.333 60.667 84 111.334 140 152.001s120.667 61 194 61c82.667 0 154.834 -21.833 216.501 -65.5s105.834 -101.834 132.501 -174.501c41.333 72.667 93.5 130.834 156.5 174.501s133.833 65.5 212.5 65.5
c113.333 0 205.666 -38 276.999 -114s107 -172 107 -288v-658h-136v650c0 81.333 -24.667 149.666 -74 204.999s-113.666 83 -192.999 83c-65.333 0 -124.666 -23.167 -177.999 -69.5s-99.333 -105.833 -138 -178.5c0.666992 -7.33301 1 -18 1 -32v-658h-136v650
c0 81.333 -24.667 149.666 -74 204.999s-113.666 83 -192.999 83c-121.333 0 -226.333 -81.667 -315 -245z" />
    <glyph glyph-name="n" unicode="n" horiz-adv-x="1195" 
d="M288 687v-686.999h-136v1036h136v-197c42 63.333 93.333 116 154 158s130.334 63 209.001 63c119.333 0 217.666 -39 294.999 -117s116 -177 116 -297v-646h-136v638c0 85.333 -28.167 156.666 -84.5 213.999s-127.833 86 -214.5 86c-71.333 0 -135.5 -23.667 -192.5 -71
s-105.833 -107.333 -146.5 -180z" />
    <glyph glyph-name="o" unicode="o" horiz-adv-x="1256" 
d="M628 98c76 0 145.833 19 209.5 57s113.334 89.167 149.001 153.5s53.5 134.166 53.5 209.499s-17.833 145.166 -53.5 209.499s-85.334 115.5 -149.001 153.5s-133.5 57 -209.5 57s-145.833 -19 -209.5 -57s-113.334 -89.167 -149.001 -153.5
s-53.5 -134.166 -53.5 -209.499s17.833 -145.166 53.5 -209.499s85.334 -115.5 149.001 -153.5s133.5 -57 209.5 -57zM628 1060c103.333 0 197.333 -24.5 282 -73.5s150.5 -114.833 197.5 -197.5s70.5 -173 70.5 -271s-23.5 -188.333 -70.5 -271
s-112.833 -148.5 -197.5 -197.5s-178.667 -73.5 -282 -73.5s-197.333 24.5 -282 73.5s-150.5 114.833 -197.5 197.5s-70.5 173 -70.5 271s23.5 188.333 70.5 271s112.833 148.5 197.5 197.5s178.667 73.5 282 73.5z" />
    <glyph glyph-name="p" unicode="p" horiz-adv-x="1282" 
d="M654 98c76 0 145.833 19.002 209.5 57.002s113.334 89.167 149.001 153.5s53.5 134.166 53.5 209.499s-17.833 145.166 -53.5 209.499s-85.334 115.5 -149.001 153.5s-133.5 57 -209.5 57c-79.333 0 -151.5 -20.667 -216.5 -62s-114.833 -96.333 -149.5 -165v-388
c34.667 -68 84.5 -122.5 149.5 -163.5s137.167 -61.5 216.5 -61.5zM674 1060c100 0 190.833 -24.8271 272.5 -74.4941s145 -115.834 190 -198.501s67.5 -172.334 67.5 -269.001s-22.5 -186.334 -67.5 -269.001s-108.333 -148.834 -190 -198.501s-172.5 -74.5 -272.5 -74.5
c-77.333 0 -149.166 15.667 -215.499 47s-123.166 75.666 -170.499 132.999v-620h-136v1500h136v-156c47.333 57.333 104.166 101.666 170.499 132.999s138.166 47 215.499 47z" />
    <glyph glyph-name="q" unicode="q" horiz-adv-x="1282" 
d="M628 98c79.333 0 151.5 20.498 216.5 61.498s114.833 95.5 149.5 163.5v388c-34.667 68.667 -84.5 123.667 -149.5 165s-137.167 62 -216.5 62c-76 0 -145.833 -19 -209.5 -57s-113.334 -89.167 -149.001 -153.5s-53.5 -134.166 -53.5 -209.499
s17.833 -145.166 53.5 -209.499s85.334 -115.5 149.001 -153.5s133.5 -57 209.5 -57zM608 1060c77.333 0 149.166 -15.6729 215.499 -47.0059s123.166 -75.666 170.499 -132.999v156h136v-1500h-136v620c-47.333 -57.333 -104.166 -101.666 -170.499 -132.999
s-138.166 -47 -215.499 -47c-100 0 -190.833 24.833 -272.5 74.5s-145 115.834 -190 198.501s-67.5 172.334 -67.5 269.001s22.5 186.334 67.5 269.001s108.333 148.834 190 198.501s172.5 74.5 272.5 74.5z" />
    <glyph glyph-name="r" unicode="r" horiz-adv-x="775" 
d="M611 938c-60 0 -118.668 -25.667 -176.001 -77s-106.333 -116.333 -147 -195v-666h-136v1036h136v-208c44.667 66.667 95.834 122 153.501 166s119.834 66 186.501 66c35.333 0 68.666 -6.66699 99.999 -20l-12 -122c-34.667 13.333 -69.667 20 -105 20z" />
    <glyph glyph-name="s" unicode="s" horiz-adv-x="923" 
d="M77 148l76.9961 94.002c36.667 -45.333 81.834 -81.333 135.501 -108s111.5 -40 173.5 -40c74.667 0 134.334 16.667 179.001 50s67 77.333 67 132c0 103.333 -87.333 171.666 -262 204.999c-111.333 21.333 -195.166 57.333 -251.499 108s-84.5 114 -84.5 190
c0 80 32.333 146.833 97 200.5s148.667 80.5 252 80.5c131.333 0 244 -45.333 338 -136l-74 -94c-81.333 74.667 -166.333 112 -255 112c-63.333 0 -116.166 -15.833 -158.499 -47.5s-63.5 -70.834 -63.5 -117.501c0 -43.333 20.833 -81.333 62.5 -114
s102.167 -56.667 181.5 -72c236 -46 354 -151.667 354 -317c0 -87.333 -33.5 -158.833 -100.5 -214.5s-158.167 -83.5 -273.5 -83.5c-82 0 -157 15.333 -225 46s-124.333 72.667 -169 126z" />
    <glyph glyph-name="t" unicode="t" horiz-adv-x="755" 
d="M385 916v-597.999c0 -74.667 17.5 -130.334 52.5 -167.001s90.833 -55 167.5 -55c36.667 0 68.667 2 96 6v-118c-30.667 -5.33301 -66 -8 -106 -8c-117.333 0 -204.333 28.167 -261 84.5s-85 141.833 -85 256.5v599h-202v120h202v288l136 12v-300h304v-120h-304z" />
    <glyph glyph-name="u" unicode="u" horiz-adv-x="1195" 
d="M907 349v686.999h136v-1036h-136v197c-42 -63.333 -93.333 -116 -154 -158s-130.334 -63 -209.001 -63c-119.333 0 -217.666 39 -294.999 117s-116 177 -116 297v646h136v-638c0 -85.333 28.167 -156.666 84.5 -213.999s127.833 -86 214.5 -86
c71.333 0 135.5 23.667 192.5 71s105.833 107.333 146.5 180z" />
    <glyph glyph-name="v" unicode="v" horiz-adv-x="1034" 
d="M1000 1036l-413 -1036h-140l-413 1036h144l339 -856l339 856h144z" />
    <glyph glyph-name="w" unicode="w" horiz-adv-x="1544" 
d="M702 1036h140l257 -846l267 846h144l-340 -1036h-140l-258 849l-258 -849h-140l-340 1036h144l267 -846z" />
    <glyph glyph-name="x" unicode="x" horiz-adv-x="1034" 
d="M188 0h-154l397 531l-371 505h154l303 -412l303 412h154l-371 -505l397 -531h-154l-329 437z" />
    <glyph glyph-name="y" unicode="y" horiz-adv-x="1044" 
d="M263 -464l191 473l-420 1027h144l346 -853l342 853h144l-603 -1500h-144z" />
    <glyph glyph-name="z" unicode="z" horiz-adv-x="1002" 
d="M101 0v120l611 796h-585v120h750v-120l-611 -796h631v-120h-796z" />
    <glyph glyph-name="braceleft" unicode="{" horiz-adv-x="822" 
d="M154 549v122c63.333 0 114.5 18.167 153.5 54.5s58.5 84.5 58.5 144.5v326c0 86 30.167 158.167 90.5 216.5s135.5 87.5 225.5 87.5h88v-122h-80c-52.667 0 -96.5 -18.167 -131.5 -54.5s-52.5 -81.5 -52.5 -135.5v-336c0 -62.667 -15.833 -114.667 -47.5 -156
s-76.5 -70 -134.5 -86c58 -16 102.833 -44.667 134.5 -86s47.5 -93.333 47.5 -156v-336c0 -54 17.5 -99.167 52.5 -135.5s78.833 -54.5 131.5 -54.5h80v-122h-88c-90 0 -165.167 29.167 -225.5 87.5s-90.5 130.5 -90.5 216.5v326c0 60 -19.5 108.167 -58.5 144.5
s-90.167 54.5 -153.5 54.5z" />
    <glyph glyph-name="bar" unicode="|" horiz-adv-x="642" 
d="M256 -280v1780h130v-1780h-130z" />
    <glyph glyph-name="braceright" unicode="}" horiz-adv-x="822" 
d="M668 671v-122c-63.333 0 -114.5 -18.167 -153.5 -54.5s-58.5 -84.5 -58.5 -144.5v-326c0 -86 -30.167 -158.167 -90.5 -216.5s-135.5 -87.5 -225.5 -87.5h-88v122h80c52.667 0 96.5 18.167 131.5 54.5s52.5 81.5 52.5 135.5v336c0 62.667 15.833 114.667 47.5 156
s76.5 70 134.5 86c-58 16 -102.833 44.667 -134.5 86s-47.5 93.333 -47.5 156v336c0 54 -17.5 99.167 -52.5 135.5s-78.833 54.5 -131.5 54.5h-80v122h88c90 0 165.167 -29.167 225.5 -87.5s90.5 -130.5 90.5 -216.5v-326c0 -60 19.5 -108.167 58.5 -144.5
s90.167 -54.5 153.5 -54.5z" />
    <glyph glyph-name="asciitilde" unicode="~" horiz-adv-x="1136" 
d="M540 597l-44 41.5c-10.667 9.66699 -25 21.5 -43 35.5s-35.333 24.167 -52 30.5s-33.334 9.5 -50.001 9.5c-86 0 -139.667 -66 -161 -198l-126 32c14.667 92 45.5 163 92.5 213s108.167 75 183.5 75c87.333 0 172.666 -41 255.999 -123l44 -41.5
c10.667 -9.66699 25 -21.5 43 -35.5s35.333 -24.167 52 -30.5s33.334 -9.5 50.001 -9.5c86 0 139.667 66 161 198l126 -32c-14.667 -92 -45.5 -163 -92.5 -213s-108.167 -75 -183.5 -75c-87.333 0 -172.666 41 -255.999 123z" />
    <glyph glyph-name="uni00A0" unicode="&#xa0;" horiz-adv-x="588" 
 />
    <glyph glyph-name="exclamdown" unicode="&#xa1;" horiz-adv-x="612" 
d="M236 -364v1016h140v-1016h-140zM206 960c0 28.667 9.5 52.5 28.5 71.5s42.833 28.5 71.5 28.5s52.5 -9.5 71.5 -28.5s28.5 -42.833 28.5 -71.5s-9.5 -52.5 -28.5 -71.5s-42.833 -28.5 -71.5 -28.5s-52.5 9.5 -71.5 28.5s-28.5 42.833 -28.5 71.5z" />
    <glyph glyph-name="cent" unicode="&#xa2;" horiz-adv-x="1092" 
d="M675 1220l-0.000976562 -161.998c124 -9.33301 233 -55.666 327 -138.999l-71 -108c-76.667 71.333 -162 112.666 -256 123.999v-835c100.667 11.333 189 56.666 265 135.999l81 -100c-93.333 -94.667 -208.666 -147.334 -345.999 -158.001v-162h-113v164
c-92.667 10 -176 40.333 -250 91s-131.5 115.167 -172.5 193.5s-61.5 162.833 -61.5 253.5s20.5 175.167 61.5 253.5s98.5 142.833 172.5 193.5s157.333 81 250 91v164h113zM215.999 518.002c0 -103.333 32.667 -194.333 98 -273s148 -126 248 -142v830
c-100 -16 -182.667 -63.333 -248 -142s-98 -169.667 -98 -273z" />
    <glyph glyph-name="sterling" unicode="&#xa3;" horiz-adv-x="1137" 
d="M143 578l0.000976562 115h141l-10 22.5c-4.66699 10.333 -7.66699 17.166 -9 20.499c-50.667 106 -76 201.333 -76 286c0 112.667 40.167 207.834 120.5 285.501s178.833 116.5 295.5 116.5c92.667 0 173.834 -24.667 243.501 -74s118.167 -110.333 145.5 -183l-119 -62
c-22.667 59.333 -57.334 106.666 -104.001 141.999s-102 53 -166 53c-77.333 0 -142.333 -26.833 -195 -80.5s-79 -119.5 -79 -197.5c0 -58.667 23.333 -143.667 70 -255c11.333 -25.333 21 -50 29 -74h405v-115h-379c12.667 -49.333 19 -88 19 -116
c0 -66 -14.333 -128 -43 -186s-67.334 -108.667 -116.001 -152h707v-124h-874v121c56.667 42.667 101.5 93.834 134.5 153.501s49.5 122.167 49.5 187.5c0 30 -6.66699 68.667 -20 116h-170z" />
    <glyph glyph-name="currency" unicode="&#xa4;" horiz-adv-x="1238" 
d="M174 652c0 100 30.667 187.999 92 263.999l-188 189l88 88l194 -192c77.333 55.333 163.666 83 258.999 83c94.667 0 181 -27.667 259 -83l194 192l88 -88l-188 -189c61.333 -77.333 92 -165.333 92 -264c0 -99.333 -30.667 -187.666 -92 -264.999l188 -188l-88 -88
l-194 192c-75.333 -55.333 -161.666 -83 -258.999 -83c-98.667 0 -185 27.667 -259 83l-194 -192l-88 88l188 188c-61.333 76 -92 164.333 -92 265zM308 651.999c0 -87.333 30 -161.5 90 -222.5s133.667 -91.5 221 -91.5c86.667 0 160.167 30.5 220.5 91.5
s90.5 135.167 90.5 222.5s-30.167 161.5 -90.5 222.5s-133.833 91.5 -220.5 91.5c-87.333 0 -161 -30.5 -221 -91.5s-90 -135.167 -90 -222.5z" />
    <glyph glyph-name="yen" unicode="&#xa5;" horiz-adv-x="1280" 
d="M1100 374h-390v-374h-140v374h-390v96h390v104l-14 22h-376v96h316l-442 708h154l432 -688l432 688h154l-443 -708h317v-96h-377l-13 -22v-104h390v-96z" />
    <glyph glyph-name="brokenbar" unicode="&#xa6;" horiz-adv-x="642" 
d="M256 700v800h130v-800h-130zM256 -280v800h130v-800h-130z" />
    <glyph glyph-name="section" unicode="&#xa7;" horiz-adv-x="998" 
d="M928 514c0 -62.667 -20.667 -118.501 -62 -167.501s-96 -83.833 -164 -104.5c97.333 -62 146 -141.333 146 -238c0 -86 -34.333 -158.167 -103 -216.5s-154.334 -87.5 -257.001 -87.5c-88 0 -164.833 22.333 -230.5 67s-107.167 104.667 -124.5 180l125 29
c12 -49.333 39 -88.333 81 -117s91.667 -43 149 -43c64 0 118 18 162 54s66 80.667 66 134c0 74 -47 131.333 -141 172l-240 104c-86 37.333 -151.667 84.333 -197 141s-68 119.334 -68 188.001c0 62.667 20.5 118.334 61.5 167.001s95.5 83.667 163.5 105
c-96.667 62 -145 141.667 -145 239c0 86 34.333 158.167 103 216.5s154.334 87.5 257.001 87.5c88 0 164.833 -22.5 230.5 -67.5s106.834 -104.833 123.501 -179.5l-125 -29c-11.333 48.667 -38 87.5 -80 116.5s-91.667 43.5 -149 43.5c-64.667 0 -118.834 -18 -162.501 -54
s-65.5 -80.667 -65.5 -134c0 -74.667 47 -132.334 141 -173.001l240 -103c86 -36.667 151.667 -83.5 197 -140.5s68 -120.167 68 -189.5zM602 739.999l-168 70.999c-66 -2.66699 -121.167 -23.167 -165.5 -61.5s-66.5 -85.166 -66.5 -140.499c0 -46 16.667 -88.333 50 -127
s81 -71.334 143 -98.001l168 -72c66 2.66699 121.333 23.167 166 61.5s67 85.166 67 140.499c0 46.667 -16.667 89.334 -50 128.001s-81.333 71.334 -144 98.001z" />
    <glyph glyph-name="dieresis" unicode="&#xa8;" horiz-adv-x="824" 
d="M144 1292c0 26.667 9 49 27 67s40.333 27 67 27s49 -9 67 -27s27 -40.333 27 -67s-9 -49 -27 -67s-40.333 -27 -67 -27s-49 9 -67 27s-27 40.333 -27 67zM492 1292c0 26.667 9 49 27 67s40.333 27 67 27s49 -9 67 -27s27 -40.333 27 -67s-9 -49 -27 -67
s-40.333 -27 -67 -27s-49 9 -67 27s-27 40.333 -27 67z" />
    <glyph glyph-name="copyright" unicode="&#xa9;" horiz-adv-x="1596" 
d="M833 410c75.333 0 145.999 27.333 211.999 82l47 -92c-74.667 -62.667 -161 -94 -259 -94c-110.667 0 -204 37.667 -280 113s-114 168.333 -114 279s38 203.667 114 279s169.333 113 280 113c92 0 175.333 -29 250 -87l-45 -91c-67.333 49.333 -135.666 74 -204.999 74
c-78.667 0 -145 -28 -199 -84s-81 -124 -81 -204s27 -148 81 -204s120.333 -84 199 -84zM73.999 700c0 99.333 18.833 193.666 56.5 282.999s88.834 166.333 153.501 231s141.667 115.834 231 153.501s183.666 56.5 282.999 56.5s193.666 -18.833 282.999 -56.5
s166.333 -88.834 231 -153.501s115.834 -141.667 153.501 -231s56.5 -183.666 56.5 -282.999s-18.833 -193.666 -56.5 -282.999s-88.834 -166.333 -153.501 -231s-141.667 -115.834 -231 -153.501s-183.666 -56.5 -282.999 -56.5s-193.666 18.833 -282.999 56.5
s-166.333 88.834 -231 153.501s-115.834 141.667 -153.501 231s-56.5 183.666 -56.5 282.999zM161.999 700c0 -88 16.667 -171.667 50 -251s78.333 -147.5 135 -204.5s124.167 -102.333 202.5 -136s161.166 -50.5 248.499 -50.5s170.333 16.833 249 50.5
s146.167 79 202.5 136s101.166 125.167 134.499 204.5s50 163 50 251s-16.667 171.667 -50 251s-78.166 147.5 -134.499 204.5s-123.833 102.333 -202.5 136s-161.667 50.5 -249 50.5s-170.166 -16.833 -248.499 -50.5s-145.833 -79 -202.5 -136
s-101.667 -125.167 -135 -204.5s-50 -163 -50 -251z" />
    <glyph glyph-name="ordfeminine" unicode="&#xaa;" horiz-adv-x="902" 
d="M439 656c-104 0 -191.666 36.667 -262.999 110s-107 163.333 -107 270s35.667 196.667 107 270s159 110 263 110c49.333 0 95.166 -10 137.499 -30s77.833 -47.667 106.5 -83v97h121v-728h-121v97c-28 -36 -63.167 -63.833 -105.5 -83.5s-88.5 -29.5 -138.5 -29.5z
M683.001 900v271c-22.667 40 -54.334 72.333 -95.001 97s-85.667 37 -135 37c-74 0 -136.333 -26 -187 -78s-76 -115.667 -76 -191s25.333 -139 76 -191s113 -78 187 -78c49.333 0 94.333 12.167 135 36.5s72.334 56.5 95.001 96.5z" />
    <glyph glyph-name="guillemotleft" unicode="&#xab;" horiz-adv-x="1258" 
d="M106 588v72l538 344v-128l-399 -252l399 -252v-128zM596 588v72l538 344v-128l-399 -252l399 -252v-128z" />
    <glyph glyph-name="logicalnot" unicode="&#xac;" horiz-adv-x="1136" 
d="M882 240v365h-764v118h900v-483h-136z" />
    <glyph glyph-name="uni00AD" unicode="&#xad;" horiz-adv-x="796" 
d="M679 600h-562v128h562v-128z" />
    <glyph glyph-name="registered" unicode="&#xae;" horiz-adv-x="1596" 
d="M74 700c0 99.333 18.833 193.666 56.5 282.999s88.834 166.333 153.501 231s141.667 115.834 231 153.501s183.666 56.5 282.999 56.5s193.666 -18.833 282.999 -56.5s166.333 -88.834 231 -153.501s115.834 -141.667 153.501 -231s56.5 -183.666 56.5 -282.999
s-18.833 -193.666 -56.5 -282.999s-88.834 -166.333 -153.501 -231s-141.667 -115.834 -231 -153.501s-183.666 -56.5 -282.999 -56.5s-193.666 18.833 -282.999 56.5s-166.333 88.834 -231 153.501s-115.834 141.667 -153.501 231s-56.5 183.666 -56.5 282.999zM162 700
c0 -88 16.667 -171.667 50 -251s78.333 -147.5 135 -204.5s124.167 -102.333 202.5 -136s161.166 -50.5 248.499 -50.5s170.333 16.833 249 50.5s146.167 79 202.5 136s101.166 125.167 134.499 204.5s50 163 50 251s-16.667 171.667 -50 251s-78.166 147.5 -134.499 204.5
s-123.833 102.333 -202.5 136s-161.667 50.5 -249 50.5s-170.166 -16.833 -248.499 -50.5s-145.833 -79 -202.5 -136s-101.667 -125.167 -135 -204.5s-50 -163 -50 -251zM678 605l0.00195312 -286.001h-108v759h249c77.333 0 140.666 -22 189.999 -66s74 -100.667 74 -170
c0 -56.667 -16.833 -105.167 -50.5 -145.5s-78.834 -67.166 -135.501 -80.499l203 -297h-120l-195 286h-107zM975.002 837.999c0 41.333 -15.167 75 -45.5 101s-69.833 39 -118.5 39h-133v-281h133c48.667 0 88.167 13 118.5 39s45.5 60 45.5 102z" />
    <glyph glyph-name="macron" unicode="&#xaf;" horiz-adv-x="824" 
d="M132 1235v108h560v-108h-560z" />
    <glyph glyph-name="degree" unicode="&#xb0;" 
d="M227 1154c0 -46.667 15.833 -86.167 47.5 -118.5s70.834 -48.5 117.501 -48.5s85.834 16.167 117.501 48.5s47.5 71.833 47.5 118.5s-15.833 86.167 -47.5 118.5s-70.834 48.5 -117.501 48.5s-85.834 -16.167 -117.501 -48.5s-47.5 -71.833 -47.5 -118.5zM122 1154
c0 74 26 136.667 78 188s116 77 192 77c75.333 0 139.166 -25.667 191.499 -77s78.5 -114 78.5 -188c0 -74.667 -26.167 -137.5 -78.5 -188.5s-116.166 -76.5 -191.499 -76.5c-76 0 -140 25.5 -192 76.5s-78 113.833 -78 188.5z" />
    <glyph glyph-name="plusminus" unicode="&#xb1;" horiz-adv-x="1136" 
d="M500 290v390h-382v118h382v390h136v-390h382v-118h-382v-390h-136zM1018 0h-900v118h900v-118z" />
    <glyph glyph-name="twosuperior" unicode="&#xb2;" 
d="M550 879l-292.002 -324.999h412v-102h-576v91l361 399c68 75.333 102 147.666 102 216.999c0 46.667 -16.667 85.5 -50 116.5s-75.666 46.5 -126.999 46.5c-46.667 0 -86.5 -14 -119.5 -42s-56.167 -68 -69.5 -120l-107 41c15.333 68 49.833 122.167 103.5 162.5
s117.834 60.5 192.501 60.5c86 0 157.5 -24.833 214.5 -74.5s85.5 -113.167 85.5 -190.5c0 -48 -10.5 -94.167 -31.5 -138.5s-53.833 -91.5 -98.5 -141.5z" />
    <glyph glyph-name="threesuperior" unicode="&#xb3;" 
d="M572 738c0 58 -21.002 107.001 -63.002 147.001s-93 60 -153 60c-25.333 0 -50 -4 -74 -12l-48 60l266 304h-387v103h539v-94l-247 -277c82 -7.33301 150.833 -38.833 206.5 -94.5s83.5 -123.834 83.5 -204.501c0 -82 -31.667 -152.833 -95 -212.5
s-143.666 -89.5 -240.999 -89.5c-64 0 -121.5 14.5 -172.5 43.5s-92.833 68.833 -125.5 119.5l83 73c57.333 -89.333 128 -134 212 -134c60.667 0 111.834 20 153.501 60s62.5 89.333 62.5 148z" />
    <glyph glyph-name="acute" unicode="&#xb4;" horiz-adv-x="824" 
d="M262 1128l277 332h143l-281 -332h-139z" />
    <glyph glyph-name="mu" unicode="&#xb5;" horiz-adv-x="1214" 
d="M152 -464l0.000976562 1500h136v-718c23.333 -64 62.5 -116.667 117.5 -158s115.167 -62 180.5 -62c67.333 0 130.666 22.833 189.999 68.5s109.333 103.834 150 174.501v695h136v-1036h-136v187c-41.333 -60.667 -92.5 -111 -153.5 -151s-127.167 -60 -198.5 -60
c-59.333 0 -114.333 15.667 -165 47s-91 70.333 -121 117v-604h-136z" />
    <glyph glyph-name="paragraph" unicode="&#xb6;" horiz-adv-x="1148" 
d="M603 536h-65c-125.333 0 -230.666 41.5 -315.999 124.5s-128 185.5 -128 307.5s42.667 224.5 128 307.5s190.666 124.5 315.999 124.5h428v-1662h-106v1563h-151v-1563h-106v798z" />
    <glyph glyph-name="periodcentered" unicode="&#xb7;" horiz-adv-x="588" 
d="M192 656c0 29.333 9.66699 53.666 29 72.999s43.666 29 72.999 29s53.666 -9.66699 72.999 -29s29 -43.666 29 -72.999s-9.66699 -53.666 -29 -72.999s-43.666 -29 -72.999 -29s-53.666 9.66699 -72.999 29s-29 43.666 -29 72.999z" />
    <glyph glyph-name="cedilla" unicode="&#xb8;" horiz-adv-x="824" 
d="M364 -201c-20.667 0 -39.334 -1.66699 -56.001 -5l-26 30l99 176h109l-78 -126c60 -6.66699 108.333 -28.334 145 -65.001s55 -79.667 55 -129c0 -56.667 -23.167 -104.167 -69.5 -142.5s-103.833 -57.5 -172.5 -57.5c-67.333 0 -124.666 19 -171.999 57l49 72
c30.667 -27.333 69.667 -41 117 -41c40 0 73.167 11 99.5 33s39.5 49 39.5 81c0 32.667 -13.167 60.334 -39.5 83.001s-59.5 34 -99.5 34z" />
    <glyph glyph-name="onesuperior" unicode="&#xb9;" 
d="M410 1400h105v-948h-123v822l-191 -106l-49 91z" />
    <glyph glyph-name="ordmasculine" unicode="&#xba;" horiz-adv-x="902" 
d="M66 1036c0 106 37.333 195.833 112 269.5s165.667 110.5 273 110.5s198.333 -36.833 273 -110.5s112 -163.5 112 -269.5s-37.333 -195.833 -112 -269.5s-165.667 -110.5 -273 -110.5s-198.333 36.833 -273 110.5s-112 163.5 -112 269.5zM189 1036
c0 -76 25.167 -139.833 75.5 -191.5s112.5 -77.5 186.5 -77.5c73.333 0 135.333 25.833 186 77.5s76 115.5 76 191.5s-25.333 139.833 -76 191.5s-112.667 77.5 -186 77.5c-74 0 -136.167 -25.833 -186.5 -77.5s-75.5 -115.5 -75.5 -191.5z" />
    <glyph glyph-name="guillemotright" unicode="&#xbb;" horiz-adv-x="1258" 
d="M1152 660v-72l-538 -344v128l399 252l-399 252v128zM662 660v-72l-538 -344v128l399 252l-399 252v128z" />
    <glyph glyph-name="onequarter" unicode="&#xbc;" horiz-adv-x="1892" 
d="M543 0l684 1400h122l-683 -1400h-123zM410 1400h105v-948h-123v822l-191 -106l-49 91zM1150 201v96l446 651h116v-641h121v-106h-121v-201h-122v201h-440zM1288 306h302v447z" />
    <glyph glyph-name="onehalf" unicode="&#xbd;" horiz-adv-x="1892" 
d="M410 1400h105v-948h-123v822l-191 -106l-49 91zM543 0l684 1400h122l-683 -1400h-123zM1658 427l-292.002 -324.999h412v-102h-576v91l361 399c68 75.333 102 147.666 102 216.999c0 46.667 -16.667 85.5 -50 116.5s-75.666 46.5 -126.999 46.5
c-46.667 0 -86.5 -14 -119.5 -42s-56.167 -68 -69.5 -120l-107 41c15.333 68 49.833 122.167 103.5 162.5s117.834 60.5 192.501 60.5c86 0 157.5 -24.833 214.5 -74.5s85.5 -113.167 85.5 -190.5c0 -48 -10.5 -94.167 -31.5 -138.5s-53.833 -91.5 -98.5 -141.5z" />
    <glyph glyph-name="threequarters" unicode="&#xbe;" horiz-adv-x="1892" 
d="M572 738c0 58 -21.002 107.001 -63.002 147.001s-93 60 -153 60c-25.333 0 -50 -4 -74 -12l-48 60l266 304h-387v103h539v-94l-247 -277c82 -7.33301 150.833 -38.833 206.5 -94.5s83.5 -123.834 83.5 -204.501c0 -82 -31.667 -152.833 -95 -212.5
s-143.666 -89.5 -240.999 -89.5c-64 0 -121.5 14.5 -172.5 43.5s-92.833 68.833 -125.5 119.5l83 73c57.333 -89.333 128 -134 212 -134c60.667 0 111.834 20 153.501 60s62.5 89.333 62.5 148zM542.998 0.000976562l684 1400h122l-683 -1400h-123zM1150 201.001v96l446 651
h116v-641h121v-106h-121v-201h-122v201h-440zM1288 306.001h302v447z" />
    <glyph glyph-name="questiondown" unicode="&#xbf;" horiz-adv-x="1082" 
d="M684 642l0.000976562 -346.999c-126.667 0 -227.334 -27.5 -302.001 -82.5s-112 -125.5 -112 -211.5c0 -75.333 32 -138.333 96 -189s144.667 -76 242 -76c112 0 216.667 42.667 314 128l74 -102c-116 -100 -250 -150 -402 -150c-134.667 0 -246 38.167 -334 114.5
s-132 168.166 -132 275.499c0 100 38.333 186 115 258s177 114.667 301 128v254h140zM710.001 960.001c0 -28.667 -9.5 -52.5 -28.5 -71.5s-42.833 -28.5 -71.5 -28.5s-52.5 9.5 -71.5 28.5s-28.5 42.833 -28.5 71.5s9.5 52.5 28.5 71.5s42.833 28.5 71.5 28.5
s52.5 -9.5 71.5 -28.5s28.5 -42.833 28.5 -71.5z" />
    <glyph glyph-name="Agrave" unicode="&#xc0;" horiz-adv-x="1348" 
d="M1292 0h-154l-144 385h-640l-144 -385h-154l541 1400h154zM951 507l-277 736l-277 -736h554zM529 1845l277 -332h-139l-281 332h143z" />
    <glyph glyph-name="Aacute" unicode="&#xc1;" horiz-adv-x="1348" 
d="M1292 0h-154l-144 385h-640l-144 -385h-154l541 1400h154zM951 507l-277 736l-277 -736h554zM538 1513l277 332h143l-281 -332h-139z" />
    <glyph glyph-name="Acircumflex" unicode="&#xc2;" horiz-adv-x="1348" 
d="M1292 0h-154l-144 385h-640l-144 -385h-154l541 1400h154zM951 507l-277 736l-277 -736h554zM722 1845l292 -332h-138l-202 228l-202 -228h-138l292 332h96z" />
    <glyph glyph-name="Atilde" unicode="&#xc3;" horiz-adv-x="1348" 
d="M1292 0h-154l-144 385h-640l-144 -385h-154l541 1400h154zM951 507l-277 736l-277 -736h554zM527 1781c54 0 108 -25.333 162 -76l41.5 -38c9 -8 20.5 -15.667 34.5 -23s27.667 -11 41 -11c40.667 0 69 40.667 85 122l113 -22c-28.667 -138.667 -89.667 -208 -183 -208
c-54 0 -108 25.333 -162 76l-41.5 38c-9 8 -20.5 15.667 -34.5 23s-27.667 11 -41 11c-40.667 0 -69 -40.667 -85 -122l-113 22c28.667 138.667 89.667 208 183 208z" />
    <glyph glyph-name="Adieresis" unicode="&#xc4;" horiz-adv-x="1348" 
d="M1292 0h-154l-144 385h-640l-144 -385h-154l541 1400h154zM951 507l-277 736l-277 -736h554zM406 1664c0 26.667 9 49 27 67s40.333 27 67 27s49 -9 67 -27s27 -40.333 27 -67s-9 -49 -27 -67s-40.333 -27 -67 -27s-49 9 -67 27s-27 40.333 -27 67zM754 1664
c0 26.667 9 49 27 67s40.333 27 67 27s49 -9 67 -27s27 -40.333 27 -67s-9 -49 -27 -67s-40.333 -27 -67 -27s-49 9 -67 27s-27 40.333 -27 67z" />
    <glyph glyph-name="Aring" unicode="&#xc5;" horiz-adv-x="1348" 
d="M1292 0h-154l-144 385h-640l-144 -385h-154l541 1400h154zM951 507l-277 736l-277 -736h554zM564 1686c0 -30.667 10.5 -56.5 31.5 -77.5s47.167 -31.5 78.5 -31.5s57.5 10.5 78.5 31.5s31.5 46.833 31.5 77.5s-10.5 56.5 -31.5 77.5s-47.167 31.5 -78.5 31.5
s-57.5 -10.5 -78.5 -31.5s-31.5 -46.833 -31.5 -77.5zM470 1686c0 54.667 19.667 100.5 59 137.5s87.666 55.5 144.999 55.5s105.666 -18.5 144.999 -55.5s59 -82.833 59 -137.5s-19.667 -100.5 -59 -137.5s-87.666 -55.5 -144.999 -55.5s-105.666 18.5 -144.999 55.5
s-59 82.833 -59 137.5z" />
    <glyph glyph-name="AE" unicode="&#xc6;" horiz-adv-x="1843" 
d="M197 0h-161l817 1400h850v-122h-647v-513h594v-122h-594v-521h665v-122h-805v385h-497zM488 507h428v738z" />
    <glyph glyph-name="Ccedilla" unicode="&#xc7;" horiz-adv-x="1355" 
d="M752 -201c-20.667 0 -39.335 -1.66699 -56.002 -5l-26 30l86 154c-126 8.66699 -240.333 45.334 -343 110.001s-183.334 150.834 -242.001 258.501s-88 225.5 -88 353.5c0 100.667 18.833 195.667 56.5 285s88.667 166.166 153 230.499s141.333 115.166 231 152.499
s184.834 56 285.501 56c170.667 0 322 -51.333 454 -154l-72 -106c-123.333 90.667 -250.666 136 -381.999 136c-107.333 0 -205.833 -26.667 -295.5 -80s-160.167 -125.833 -211.5 -217.5s-77 -192.5 -77 -302.5s25.667 -210.833 77 -302.5s121.833 -164.167 211.5 -217.5
s188.167 -80 295.5 -80c145.333 0 277.333 49.667 396 149l75 -106c-118 -98 -256.667 -153 -416 -165l-64 -104c60 -6.66699 108.333 -28.334 145 -65.001s55 -79.667 55 -129c0 -56.667 -23.167 -104.167 -69.5 -142.5s-103.833 -57.5 -172.5 -57.5
c-67.333 0 -124.666 19 -171.999 57l49 72c30.667 -27.333 69.667 -41 117 -41c40 0 73.167 11 99.5 33s39.5 49 39.5 81c0 32.667 -13.167 60.334 -39.5 83.001s-59.5 34 -99.5 34z" />
    <glyph glyph-name="Egrave" unicode="&#xc8;" horiz-adv-x="1118" 
d="M176 0v1400h802v-122h-662v-513h609v-122h-609v-521h680v-122h-820zM424 1845l277 -332h-139l-281 332h143z" />
    <glyph glyph-name="Eacute" unicode="&#xc9;" horiz-adv-x="1118" 
d="M176 0v1400h802v-122h-662v-513h609v-122h-609v-521h680v-122h-820zM453 1513l277 332h143l-281 -332h-139z" />
    <glyph glyph-name="Ecircumflex" unicode="&#xca;" horiz-adv-x="1118" 
d="M176 0v1400h802v-122h-662v-513h609v-122h-609v-521h680v-122h-820zM625 1845l292 -332h-138l-202 228l-202 -228h-138l292 332h96z" />
    <glyph glyph-name="Edieresis" unicode="&#xcb;" horiz-adv-x="1118" 
d="M176 0v1400h802v-122h-662v-513h609v-122h-609v-521h680v-122h-820zM304 1664c0 26.667 9 49 27 67s40.333 27 67 27s49 -9 67 -27s27 -40.333 27 -67s-9 -49 -27 -67s-40.333 -27 -67 -27s-49 9 -67 27s-27 40.333 -27 67zM652 1664c0 26.667 9 49 27 67
s40.333 27 67 27s49 -9 67 -27s27 -40.333 27 -67s-9 -49 -27 -67s-40.333 -27 -67 -27s-49 9 -67 27s-27 40.333 -27 67z" />
    <glyph glyph-name="Igrave" unicode="&#xcc;" horiz-adv-x="564" 
d="M212 1400h140v-1400h-140v1400zM137 1845l277 -332h-139l-281 332h143z" />
    <glyph glyph-name="Iacute" unicode="&#xcd;" horiz-adv-x="564" 
d="M212 1400h140v-1400h-140v1400zM150 1513l277 332h143l-281 -332h-139z" />
    <glyph glyph-name="Icircumflex" unicode="&#xce;" horiz-adv-x="564" 
d="M212 1400h140v-1400h-140v1400zM330 1845l292 -332h-138l-202 228l-202 -228h-138l292 332h96z" />
    <glyph glyph-name="Idieresis" unicode="&#xcf;" horiz-adv-x="564" 
d="M212 1400h140v-1400h-140v1400zM14 1664c0 26.667 9 49 27 67s40.333 27 67 27s49 -9 67 -27s27 -40.333 27 -67s-9 -49 -27 -67s-40.333 -27 -67 -27s-49 9 -67 27s-27 40.333 -27 67zM362 1664c0 26.667 9 49 27 67s40.333 27 67 27s49 -9 67 -27s27 -40.333 27 -67
s-9 -49 -27 -67s-40.333 -27 -67 -27s-49 9 -67 27s-27 40.333 -27 67z" />
    <glyph glyph-name="Eth" unicode="&#xd0;" horiz-adv-x="1441" 
d="M224 1400h458c206.667 0 371 -63.833 493 -191.5s183 -297.167 183 -508.5s-61 -380.833 -183 -508.5s-286.333 -191.5 -493 -191.5h-458v644h-185v112h185v644zM682 1276l-318 0.00195312v-520h330v-112h-330v-520h318c162 0 291.5 51.167 388.5 153.5
s145.5 243.166 145.5 422.499s-48.5 320.166 -145.5 422.499s-226.5 153.5 -388.5 153.5z" />
    <glyph glyph-name="Ntilde" unicode="&#xd1;" horiz-adv-x="1390" 
d="M176 0v1400h134l768 -1156v1156h136v-1400h-134l-768 1156v-1156h-136zM548 1781c54 0 108 -25.333 162 -76l41.5 -38c9 -8 20.5 -15.667 34.5 -23s27.667 -11 41 -11c40.667 0 69 40.667 85 122l113 -22c-28.667 -138.667 -89.667 -208 -183 -208
c-54 0 -108 25.333 -162 76l-41.5 38c-9 8 -20.5 15.667 -34.5 23s-27.667 11 -41 11c-40.667 0 -69 -40.667 -85 -122l-113 22c28.667 138.667 89.667 208 183 208z" />
    <glyph glyph-name="Ograve" unicode="&#xd2;" horiz-adv-x="1618" 
d="M809 100c107.333 0 205.833 26.667 295.5 80s160.167 125.833 211.5 217.5s77 192.5 77 302.5s-25.667 210.833 -77 302.5s-121.833 164.167 -211.5 217.5s-188.167 80 -295.5 80s-205.833 -26.667 -295.5 -80s-160.167 -125.833 -211.5 -217.5s-77 -192.5 -77 -302.5
s25.667 -210.833 77 -302.5s121.833 -164.167 211.5 -217.5s188.167 -80 295.5 -80zM809 1424c100.667 0 195.834 -18.667 285.501 -56s166.667 -88.166 231 -152.499s115.333 -141.166 153 -230.499s56.5 -184.333 56.5 -285s-18.833 -195.667 -56.5 -285
s-88.667 -166.166 -153 -230.499s-141.333 -115.166 -231 -152.499s-184.834 -56 -285.501 -56s-195.834 18.667 -285.501 56s-166.667 88.166 -231 152.499s-115.333 141.166 -153 230.499s-56.5 184.333 -56.5 285s18.833 195.667 56.5 285s88.667 166.166 153 230.499
s141.333 115.166 231 152.499s184.834 56 285.501 56zM656 1845l277 -332h-139l-281 332h143z" />
    <glyph glyph-name="Oacute" unicode="&#xd3;" horiz-adv-x="1618" 
d="M809 100c107.333 0 205.833 26.667 295.5 80s160.167 125.833 211.5 217.5s77 192.5 77 302.5s-25.667 210.833 -77 302.5s-121.833 164.167 -211.5 217.5s-188.167 80 -295.5 80s-205.833 -26.667 -295.5 -80s-160.167 -125.833 -211.5 -217.5s-77 -192.5 -77 -302.5
s25.667 -210.833 77 -302.5s121.833 -164.167 211.5 -217.5s188.167 -80 295.5 -80zM809 1424c100.667 0 195.834 -18.667 285.501 -56s166.667 -88.166 231 -152.499s115.333 -141.166 153 -230.499s56.5 -184.333 56.5 -285s-18.833 -195.667 -56.5 -285
s-88.667 -166.166 -153 -230.499s-141.333 -115.166 -231 -152.499s-184.834 -56 -285.501 -56s-195.834 18.667 -285.501 56s-166.667 88.166 -231 152.499s-115.333 141.166 -153 230.499s-56.5 184.333 -56.5 285s18.833 195.667 56.5 285s88.667 166.166 153 230.499
s141.333 115.166 231 152.499s184.834 56 285.501 56zM686 1513l277 332h143l-281 -332h-139z" />
    <glyph glyph-name="Ocircumflex" unicode="&#xd4;" horiz-adv-x="1618" 
d="M809 100c107.333 0 205.833 26.667 295.5 80s160.167 125.833 211.5 217.5s77 192.5 77 302.5s-25.667 210.833 -77 302.5s-121.833 164.167 -211.5 217.5s-188.167 80 -295.5 80s-205.833 -26.667 -295.5 -80s-160.167 -125.833 -211.5 -217.5s-77 -192.5 -77 -302.5
s25.667 -210.833 77 -302.5s121.833 -164.167 211.5 -217.5s188.167 -80 295.5 -80zM809 1424c100.667 0 195.834 -18.667 285.501 -56s166.667 -88.166 231 -152.499s115.333 -141.166 153 -230.499s56.5 -184.333 56.5 -285s-18.833 -195.667 -56.5 -285
s-88.667 -166.166 -153 -230.499s-141.333 -115.166 -231 -152.499s-184.834 -56 -285.501 -56s-195.834 18.667 -285.501 56s-166.667 88.166 -231 152.499s-115.333 141.166 -153 230.499s-56.5 184.333 -56.5 285s18.833 195.667 56.5 285s88.667 166.166 153 230.499
s141.333 115.166 231 152.499s184.834 56 285.501 56zM857 1845l292 -332h-138l-202 228l-202 -228h-138l292 332h96z" />
    <glyph glyph-name="Otilde" unicode="&#xd5;" horiz-adv-x="1618" 
d="M809 100c107.333 0 205.833 26.667 295.5 80s160.167 125.833 211.5 217.5s77 192.5 77 302.5s-25.667 210.833 -77 302.5s-121.833 164.167 -211.5 217.5s-188.167 80 -295.5 80s-205.833 -26.667 -295.5 -80s-160.167 -125.833 -211.5 -217.5s-77 -192.5 -77 -302.5
s25.667 -210.833 77 -302.5s121.833 -164.167 211.5 -217.5s188.167 -80 295.5 -80zM809 1424c100.667 0 195.834 -18.667 285.501 -56s166.667 -88.166 231 -152.499s115.333 -141.166 153 -230.499s56.5 -184.333 56.5 -285s-18.833 -195.667 -56.5 -285
s-88.667 -166.166 -153 -230.499s-141.333 -115.166 -231 -152.499s-184.834 -56 -285.501 -56s-195.834 18.667 -285.501 56s-166.667 88.166 -231 152.499s-115.333 141.166 -153 230.499s-56.5 184.333 -56.5 285s18.833 195.667 56.5 285s88.667 166.166 153 230.499
s141.333 115.166 231 152.499s184.834 56 285.501 56zM662 1781c54 0 108 -25.333 162 -76l41.5 -38c9 -8 20.5 -15.667 34.5 -23s27.667 -11 41 -11c40.667 0 69 40.667 85 122l113 -22c-28.667 -138.667 -89.667 -208 -183 -208c-54 0 -108 25.333 -162 76l-41.5 38
c-9 8 -20.5 15.667 -34.5 23s-27.667 11 -41 11c-40.667 0 -69 -40.667 -85 -122l-113 22c28.667 138.667 89.667 208 183 208z" />
    <glyph glyph-name="Odieresis" unicode="&#xd6;" horiz-adv-x="1618" 
d="M809 100c107.333 0 205.833 26.667 295.5 80s160.167 125.833 211.5 217.5s77 192.5 77 302.5s-25.667 210.833 -77 302.5s-121.833 164.167 -211.5 217.5s-188.167 80 -295.5 80s-205.833 -26.667 -295.5 -80s-160.167 -125.833 -211.5 -217.5s-77 -192.5 -77 -302.5
s25.667 -210.833 77 -302.5s121.833 -164.167 211.5 -217.5s188.167 -80 295.5 -80zM809 1424c100.667 0 195.834 -18.667 285.501 -56s166.667 -88.166 231 -152.499s115.333 -141.166 153 -230.499s56.5 -184.333 56.5 -285s-18.833 -195.667 -56.5 -285
s-88.667 -166.166 -153 -230.499s-141.333 -115.166 -231 -152.499s-184.834 -56 -285.501 -56s-195.834 18.667 -285.501 56s-166.667 88.166 -231 152.499s-115.333 141.166 -153 230.499s-56.5 184.333 -56.5 285s18.833 195.667 56.5 285s88.667 166.166 153 230.499
s141.333 115.166 231 152.499s184.834 56 285.501 56zM541 1664c0 26.667 9 49 27 67s40.333 27 67 27s49 -9 67 -27s27 -40.333 27 -67s-9 -49 -27 -67s-40.333 -27 -67 -27s-49 9 -67 27s-27 40.333 -27 67zM889 1664c0 26.667 9 49 27 67s40.333 27 67 27s49 -9 67 -27
s27 -40.333 27 -67s-9 -49 -27 -67s-40.333 -27 -67 -27s-49 9 -67 27s-27 40.333 -27 67z" />
    <glyph glyph-name="multiply" unicode="&#xd7;" horiz-adv-x="1136" 
d="M247 1079l321 -326l322 326l92 -93l-322 -327l322 -326l-92 -93l-322 326l-322 -326l-92 93l322 327l-321 326z" />
    <glyph glyph-name="Oslash" unicode="&#xd8;" horiz-adv-x="1618" 
d="M809 1424c144.667 0 277.333 -38.002 398 -114.002l118 150h134l-168 -214c76.667 -66.667 136.5 -147.167 179.5 -241.5s64.5 -195.833 64.5 -304.5c0 -100.667 -18.833 -195.667 -56.5 -285s-88.667 -166.166 -153 -230.499s-141.333 -115.166 -231 -152.499
s-184.834 -56 -285.501 -56c-155.333 0 -294.333 42 -417 126l-127 -162h-134l179 228c-72 66.667 -127.833 145.834 -167.5 237.501s-59.5 189.834 -59.5 294.501c0 100.667 18.833 195.667 56.5 285s88.667 166.166 153 230.499s141.333 115.166 231 152.499
s184.834 56 285.501 56zM808.999 99.998c107.333 0 205.833 26.667 295.5 80s160.167 125.833 211.5 217.5s77 192.5 77 302.5c0 86 -16.333 167 -49 243s-78 141.667 -136 197l-734 -934c99.333 -70.667 211 -106 335 -106zM224.999 699.998
c0 -82 14.832 -159.667 44.499 -233s71.167 -137.333 124.5 -192l731 931c-95.333 62.667 -200.666 94 -315.999 94c-107.333 0 -205.833 -26.667 -295.5 -80s-160.167 -125.833 -211.5 -217.5s-77 -192.5 -77 -302.5z" />
    <glyph glyph-name="Ugrave" unicode="&#xd9;" horiz-adv-x="1318" 
d="M1157 1400l0.00195312 -918c0 -150 -46.833 -271.5 -140.5 -364.5s-212.834 -139.5 -357.501 -139.5s-263.834 46.5 -357.501 139.5s-140.5 214.5 -140.5 364.5v918h140v-932c0 -108 33.667 -196 101 -264s153 -102 257 -102s189.667 34 257 102s101 156 101 264v932h140
zM500.002 1845l277 -332h-139l-281 332h143z" />
    <glyph glyph-name="Uacute" unicode="&#xda;" horiz-adv-x="1318" 
d="M1157 1400l0.00195312 -918c0 -150 -46.833 -271.5 -140.5 -364.5s-212.834 -139.5 -357.501 -139.5s-263.834 46.5 -357.501 139.5s-140.5 214.5 -140.5 364.5v918h140v-932c0 -108 33.667 -196 101 -264s153 -102 257 -102s189.667 34 257 102s101 156 101 264v932h140
zM541.002 1513l277 332h143l-281 -332h-139z" />
    <glyph glyph-name="Ucircumflex" unicode="&#xdb;" horiz-adv-x="1318" 
d="M1157 1400l0.00195312 -918c0 -150 -46.833 -271.5 -140.5 -364.5s-212.834 -139.5 -357.501 -139.5s-263.834 46.5 -357.501 139.5s-140.5 214.5 -140.5 364.5v918h140v-932c0 -108 33.667 -196 101 -264s153 -102 257 -102s189.667 34 257 102s101 156 101 264v932h140
zM707.002 1845l292 -332h-138l-202 228l-202 -228h-138l292 332h96z" />
    <glyph glyph-name="Udieresis" unicode="&#xdc;" horiz-adv-x="1318" 
d="M1157 1400l0.00195312 -918c0 -150 -46.833 -271.5 -140.5 -364.5s-212.834 -139.5 -357.501 -139.5s-263.834 46.5 -357.501 139.5s-140.5 214.5 -140.5 364.5v918h140v-932c0 -108 33.667 -196 101 -264s153 -102 257 -102s189.667 34 257 102s101 156 101 264v932h140
zM391.002 1664c0 26.667 9 49 27 67s40.333 27 67 27s49 -9 67 -27s27 -40.333 27 -67s-9 -49 -27 -67s-40.333 -27 -67 -27s-49 9 -67 27s-27 40.333 -27 67zM739.002 1664c0 26.667 9 49 27 67s40.333 27 67 27s49 -9 67 -27s27 -40.333 27 -67s-9 -49 -27 -67
s-40.333 -27 -67 -27s-49 9 -67 27s-27 40.333 -27 67z" />
    <glyph glyph-name="Yacute" unicode="&#xdd;" horiz-adv-x="1280" 
d="M208 1400l432 -688l432 688h154l-516 -826v-574h-140v574l-516 826h154zM528 1513l277 332h143l-281 -332h-139z" />
    <glyph glyph-name="Thorn" unicode="&#xde;" horiz-adv-x="1154" 
d="M599 274l-283 -0.00195312v-274h-140v1400h140v-274h283c145.333 0 261.333 -38.667 348 -116s130 -180.666 130 -309.999s-43.333 -232.666 -130 -309.999s-202.667 -116 -348 -116zM935 699.998c0 92.667 -30.667 166.5 -92 221.5s-144.333 82.5 -249 82.5h-278v-608
h278c104.667 0 187.667 27.5 249 82.5s92 128.833 92 221.5z" />
    <glyph glyph-name="germandbls" unicode="&#xdf;" horiz-adv-x="1204" 
d="M161 0l0.00195312 1029c0 114.667 38 209.167 114 283.5s171.667 111.5 287 111.5c110.667 0 204 -34.667 280 -104s114 -152.666 114 -249.999c0 -74 -24.167 -138.833 -72.5 -194.5s-109.833 -95.167 -184.5 -118.5c118 -16.667 215.5 -61 292.5 -133
s115.5 -158.333 115.5 -259c0 -110 -43.833 -202.333 -131.5 -277s-196.834 -112 -327.501 -112c-43.333 0 -87.166 6.33301 -131.499 19s-82.833 29.334 -115.5 50.001l38 123c28 -20.667 60.833 -37.5 98.5 -50.5s74.5 -19.5 110.5 -19.5
c88.667 0 163.667 25.833 225 77.5s92 114.834 92 189.501c0 90 -42 166 -126 228s-198.333 93.667 -343 95v118c90 3.33301 165.5 29.5 226.5 78.5s91.5 109.167 91.5 180.5c0 64.667 -24.333 120.334 -73 167.001s-108.334 70 -179.001 70
c-74.667 0 -136.834 -25.333 -186.501 -76s-74.5 -114.667 -74.5 -192v-1034h-140z" />
    <glyph glyph-name="agrave" unicode="&#xe0;" horiz-adv-x="1282" 
d="M628 98c79.333 0 151.5 20.498 216.5 61.498s114.833 95.5 149.5 163.5v388c-34.667 68.667 -84.5 123.667 -149.5 165s-137.167 62 -216.5 62c-76 0 -145.833 -19 -209.5 -57s-113.334 -89.167 -149.001 -153.5s-53.5 -134.166 -53.5 -209.499
s17.833 -145.166 53.5 -209.499s85.334 -115.5 149.001 -153.5s133.5 -57 209.5 -57zM608 1060c77.333 0 149.166 -15.6729 215.499 -47.0059s123.166 -75.666 170.499 -132.999v156h136v-1036h-136v156c-47.333 -57.333 -104.166 -101.666 -170.499 -132.999
s-138.166 -47 -215.499 -47c-100 0 -190.833 24.833 -272.5 74.5s-145 115.834 -190 198.501s-67.5 172.334 -67.5 269.001s22.5 186.334 67.5 269.001s108.333 148.834 190 198.501s172.5 74.5 272.5 74.5zM475 1520.99l277 -332h-139l-281 332h143z" />
    <glyph glyph-name="aacute" unicode="&#xe1;" horiz-adv-x="1282" 
d="M628 98c79.333 0 151.5 20.498 216.5 61.498s114.833 95.5 149.5 163.5v388c-34.667 68.667 -84.5 123.667 -149.5 165s-137.167 62 -216.5 62c-76 0 -145.833 -19 -209.5 -57s-113.334 -89.167 -149.001 -153.5s-53.5 -134.166 -53.5 -209.499
s17.833 -145.166 53.5 -209.499s85.334 -115.5 149.001 -153.5s133.5 -57 209.5 -57zM608 1060c77.333 0 149.166 -15.6729 215.499 -47.0059s123.166 -75.666 170.499 -132.999v156h136v-1036h-136v156c-47.333 -57.333 -104.166 -101.666 -170.499 -132.999
s-138.166 -47 -215.499 -47c-100 0 -190.833 24.833 -272.5 74.5s-145 115.834 -190 198.501s-67.5 172.334 -67.5 269.001s22.5 186.334 67.5 269.001s108.333 148.834 190 198.501s172.5 74.5 272.5 74.5zM473 1188.99l277 332h143l-281 -332h-139z" />
    <glyph glyph-name="acircumflex" unicode="&#xe2;" horiz-adv-x="1282" 
d="M628 98c79.333 0 151.5 20.498 216.5 61.498s114.833 95.5 149.5 163.5v388c-34.667 68.667 -84.5 123.667 -149.5 165s-137.167 62 -216.5 62c-76 0 -145.833 -19 -209.5 -57s-113.334 -89.167 -149.001 -153.5s-53.5 -134.166 -53.5 -209.499
s17.833 -145.166 53.5 -209.499s85.334 -115.5 149.001 -153.5s133.5 -57 209.5 -57zM608 1060c77.333 0 149.166 -15.6729 215.499 -47.0059s123.166 -75.666 170.499 -132.999v156h136v-1036h-136v156c-47.333 -57.333 -104.166 -101.666 -170.499 -132.999
s-138.166 -47 -215.499 -47c-100 0 -190.833 24.833 -272.5 74.5s-145 115.834 -190 198.501s-67.5 172.334 -67.5 269.001s22.5 186.334 67.5 269.001s108.333 148.834 190 198.501s172.5 74.5 272.5 74.5zM672 1520.99l292 -332h-138l-202 228l-202 -228h-138l292 332h96z
" />
    <glyph glyph-name="atilde" unicode="&#xe3;" horiz-adv-x="1282" 
d="M628 98c79.333 0 151.5 20.498 216.5 61.498s114.833 95.5 149.5 163.5v388c-34.667 68.667 -84.5 123.667 -149.5 165s-137.167 62 -216.5 62c-76 0 -145.833 -19 -209.5 -57s-113.334 -89.167 -149.001 -153.5s-53.5 -134.166 -53.5 -209.499
s17.833 -145.166 53.5 -209.499s85.334 -115.5 149.001 -153.5s133.5 -57 209.5 -57zM608 1060c77.333 0 149.166 -15.6729 215.499 -47.0059s123.166 -75.666 170.499 -132.999v156h136v-1036h-136v156c-47.333 -57.333 -104.166 -101.666 -170.499 -132.999
s-138.166 -47 -215.499 -47c-100 0 -190.833 24.833 -272.5 74.5s-145 115.834 -190 198.501s-67.5 172.334 -67.5 269.001s22.5 186.334 67.5 269.001s108.333 148.834 190 198.501s172.5 74.5 272.5 74.5zM470 1456.99c54 0 108 -25.333 162 -76l41.5 -38
c9 -8 20.5 -15.667 34.5 -23s27.667 -11 41 -11c40.667 0 69 40.667 85 122l113 -22c-28.667 -138.667 -89.667 -208 -183 -208c-54 0 -108 25.333 -162 76l-41.5 38c-9 8 -20.5 15.667 -34.5 23s-27.667 11 -41 11c-40.667 0 -69 -40.667 -85 -122l-113 22
c28.667 138.667 89.667 208 183 208z" />
    <glyph glyph-name="adieresis" unicode="&#xe4;" horiz-adv-x="1282" 
d="M628 98c79.333 0 151.5 20.498 216.5 61.498s114.833 95.5 149.5 163.5v388c-34.667 68.667 -84.5 123.667 -149.5 165s-137.167 62 -216.5 62c-76 0 -145.833 -19 -209.5 -57s-113.334 -89.167 -149.001 -153.5s-53.5 -134.166 -53.5 -209.499
s17.833 -145.166 53.5 -209.499s85.334 -115.5 149.001 -153.5s133.5 -57 209.5 -57zM608 1060c77.333 0 149.166 -15.6729 215.499 -47.0059s123.166 -75.666 170.499 -132.999v156h136v-1036h-136v156c-47.333 -57.333 -104.166 -101.666 -170.499 -132.999
s-138.166 -47 -215.499 -47c-100 0 -190.833 24.833 -272.5 74.5s-145 115.834 -190 198.501s-67.5 172.334 -67.5 269.001s22.5 186.334 67.5 269.001s108.333 148.834 190 198.501s172.5 74.5 272.5 74.5zM346 1339.99c0 26.667 9 49 27 67s40.333 27 67 27s49 -9 67 -27
s27 -40.333 27 -67s-9 -49 -27 -67s-40.333 -27 -67 -27s-49 9 -67 27s-27 40.333 -27 67zM694 1339.99c0 26.667 9 49 27 67s40.333 27 67 27s49 -9 67 -27s27 -40.333 27 -67s-9 -49 -27 -67s-40.333 -27 -67 -27s-49 9 -67 27s-27 40.333 -27 67z" />
    <glyph glyph-name="aring" unicode="&#xe5;" horiz-adv-x="1282" 
d="M628 98c79.333 0 151.5 20.498 216.5 61.498s114.833 95.5 149.5 163.5v388c-34.667 68.667 -84.5 123.667 -149.5 165s-137.167 62 -216.5 62c-76 0 -145.833 -19 -209.5 -57s-113.334 -89.167 -149.001 -153.5s-53.5 -134.166 -53.5 -209.499
s17.833 -145.166 53.5 -209.499s85.334 -115.5 149.001 -153.5s133.5 -57 209.5 -57zM608 1060c77.333 0 149.166 -15.6729 215.499 -47.0059s123.166 -75.666 170.499 -132.999v156h136v-1036h-136v156c-47.333 -57.333 -104.166 -101.666 -170.499 -132.999
s-138.166 -47 -215.499 -47c-100 0 -190.833 24.833 -272.5 74.5s-145 115.834 -190 198.501s-67.5 172.334 -67.5 269.001s22.5 186.334 67.5 269.001s108.333 148.834 190 198.501s172.5 74.5 272.5 74.5zM504 1361.99c0 -30.667 10.5 -56.5 31.5 -77.5
s47.167 -31.5 78.5 -31.5s57.5 10.5 78.5 31.5s31.5 46.833 31.5 77.5s-10.5 56.5 -31.5 77.5s-47.167 31.5 -78.5 31.5s-57.5 -10.5 -78.5 -31.5s-31.5 -46.833 -31.5 -77.5zM410 1361.99c0 54.667 19.667 100.5 59 137.5s87.666 55.5 144.999 55.5
s105.666 -18.5 144.999 -55.5s59 -82.833 59 -137.5s-19.667 -100.5 -59 -137.5s-87.666 -55.5 -144.999 -55.5s-105.666 18.5 -144.999 55.5s-59 82.833 -59 137.5z" />
    <glyph glyph-name="ae" unicode="&#xe6;" horiz-adv-x="2015" 
d="M1040 478c7.33301 -108 48.3291 -199.001 122.996 -273.001s167 -111 277 -111c130 0 241.667 54.667 335 164l94 -87c-52 -62 -114.667 -110 -188 -144s-152.666 -51 -237.999 -51c-99.333 0 -188.833 22.833 -268.5 68.5s-141.167 106.834 -184.5 183.501
c-45.333 -78 -106.666 -139.5 -183.999 -184.5s-162.666 -67.5 -255.999 -67.5c-133.333 0 -245.333 32.167 -336 96.5s-136 143.166 -136 236.499c0 90.667 44.667 167.167 134 229.5s198 93.5 326 93.5c66 0 133.5 -10 202.5 -30s126.833 -45.667 173.5 -77
c-0.666992 5.33301 -1 14.333 -1 27c0 8 1.66699 27 5 57c-10 102.667 -49.667 183.834 -119 243.501s-153.333 89.5 -252 89.5c-126.667 0 -239.667 -43 -339 -129l-54 107c116.667 93.333 248.667 140 396 140c98.667 0 187.5 -23.667 266.5 -71s135.5 -113 169.5 -197
c41.333 80.667 101.333 145.5 180 194.5s166.334 73.5 263.001 73.5c146.667 0 268 -50 364 -150s144 -222 144 -366c0 -22.667 -2.33301 -44.667 -7 -66h-890zM555.996 93.999c80.667 0 155.666 21.5 224.999 64.5s122 100.5 158 172.5c-10.667 30 -17.667 59.667 -21 89
c-42.667 33.333 -96.667 59 -162 77s-131 27 -197 27c-98 0 -180 -20.833 -246 -62.5s-99 -92.5 -99 -152.5s32.833 -110.833 98.5 -152.5s146.834 -62.5 243.501 -62.5zM1429 941.999c-96.667 0 -181.167 -33.667 -253.5 -101s-115.833 -150.333 -130.5 -249h750
c-11.333 101.333 -50.833 185 -118.5 251s-150.167 99 -247.5 99z" />
    <glyph glyph-name="ccedilla" unicode="&#xe7;" horiz-adv-x="1092" 
d="M566 -201c-20.667 0 -39.335 -1.66895 -56.002 -5.00195l-26 30l87 155c-142.667 13.333 -260.5 71.5 -353.5 174.5s-139.5 224.5 -139.5 364.5c0 98 23.5 188.333 70.5 271s112.833 148.5 197.5 197.5s178.667 73.5 282 73.5c144.667 0 269.334 -47 374.001 -141
l-71 -108c-90 84.667 -191 127 -303 127c-76 0 -145.833 -19 -209.5 -57s-113.334 -89.167 -149.001 -153.5s-53.5 -134.166 -53.5 -209.499s17.833 -145.166 53.5 -209.499s85.334 -115.5 149.001 -153.5s133.5 -57 209.5 -57c119.333 0 223.333 46 312 138l81 -100
c-92.667 -94 -207 -146.333 -343 -157l-64 -105c60 -6.66699 108.333 -28.334 145 -65.001s55 -79.667 55 -129c0 -56.667 -23.167 -104.167 -69.5 -142.5s-103.833 -57.5 -172.5 -57.5c-67.333 0 -124.666 19 -171.999 57l49 72c30.667 -27.333 69.667 -41 117 -41
c40 0 73.167 11 99.5 33s39.5 49 39.5 81c0 32.667 -13.167 60.334 -39.5 83.001s-59.5 34 -99.5 34z" />
    <glyph glyph-name="egrave" unicode="&#xe8;" horiz-adv-x="1212" 
d="M217 478c7.33301 -108 49.3301 -199.002 125.997 -273.002s171.334 -111 284.001 -111c66.667 0 129.834 14.333 189.501 43s111.5 69 155.5 121l94 -87c-52 -62 -115.667 -110 -191 -144s-157 -51 -245 -51c-107.333 0 -203.333 24.5 -288 73.5
s-149.834 114.5 -195.501 196.5s-68.5 172.667 -68.5 272c0 73.333 13.667 143.333 41 210s64.5 124.334 111.5 173.001s104 87.334 171 116.001s138.5 43 214.5 43c98.667 0 187.834 -23.167 267.501 -69.5s141.334 -108.833 185.001 -187.5s65.5 -165 65.5 -259
c0 -22.667 -2.33301 -44.667 -7 -66h-910zM615.997 941.998c-99.333 0 -186.167 -33.667 -260.5 -101s-118.833 -150.333 -133.5 -249h770c-11.333 101.333 -51.833 185 -121.5 251s-154.5 99 -254.5 99zM462.996 1521l277 -332h-139l-281 332h143z" />
    <glyph glyph-name="eacute" unicode="&#xe9;" horiz-adv-x="1212" 
d="M217 478c7.33301 -108 49.3301 -199.002 125.997 -273.002s171.334 -111 284.001 -111c66.667 0 129.834 14.333 189.501 43s111.5 69 155.5 121l94 -87c-52 -62 -115.667 -110 -191 -144s-157 -51 -245 -51c-107.333 0 -203.333 24.5 -288 73.5
s-149.834 114.5 -195.501 196.5s-68.5 172.667 -68.5 272c0 73.333 13.667 143.333 41 210s64.5 124.334 111.5 173.001s104 87.334 171 116.001s138.5 43 214.5 43c98.667 0 187.834 -23.167 267.501 -69.5s141.334 -108.833 185.001 -187.5s65.5 -165 65.5 -259
c0 -22.667 -2.33301 -44.667 -7 -66h-910zM615.997 941.998c-99.333 0 -186.167 -33.667 -260.5 -101s-118.833 -150.333 -133.5 -249h770c-11.333 101.333 -51.833 185 -121.5 251s-154.5 99 -254.5 99zM470.996 1189l277 332h143l-281 -332h-139z" />
    <glyph glyph-name="ecircumflex" unicode="&#xea;" horiz-adv-x="1212" 
d="M217 478c7.33301 -108 49.3301 -199.002 125.997 -273.002s171.334 -111 284.001 -111c66.667 0 129.834 14.333 189.501 43s111.5 69 155.5 121l94 -87c-52 -62 -115.667 -110 -191 -144s-157 -51 -245 -51c-107.333 0 -203.333 24.5 -288 73.5
s-149.834 114.5 -195.501 196.5s-68.5 172.667 -68.5 272c0 73.333 13.667 143.333 41 210s64.5 124.334 111.5 173.001s104 87.334 171 116.001s138.5 43 214.5 43c98.667 0 187.834 -23.167 267.501 -69.5s141.334 -108.833 185.001 -187.5s65.5 -165 65.5 -259
c0 -22.667 -2.33301 -44.667 -7 -66h-910zM615.997 941.998c-99.333 0 -186.167 -33.667 -260.5 -101s-118.833 -150.333 -133.5 -249h770c-11.333 101.333 -51.833 185 -121.5 251s-154.5 99 -254.5 99zM653.996 1521l292 -332h-138l-202 228l-202 -228h-138l292 332h96z
" />
    <glyph glyph-name="edieresis" unicode="&#xeb;" horiz-adv-x="1212" 
d="M217 478c7.33301 -108 49.3301 -199.002 125.997 -273.002s171.334 -111 284.001 -111c66.667 0 129.834 14.333 189.501 43s111.5 69 155.5 121l94 -87c-52 -62 -115.667 -110 -191 -144s-157 -51 -245 -51c-107.333 0 -203.333 24.5 -288 73.5
s-149.834 114.5 -195.501 196.5s-68.5 172.667 -68.5 272c0 73.333 13.667 143.333 41 210s64.5 124.334 111.5 173.001s104 87.334 171 116.001s138.5 43 214.5 43c98.667 0 187.834 -23.167 267.501 -69.5s141.334 -108.833 185.001 -187.5s65.5 -165 65.5 -259
c0 -22.667 -2.33301 -44.667 -7 -66h-910zM615.997 941.998c-99.333 0 -186.167 -33.667 -260.5 -101s-118.833 -150.333 -133.5 -249h770c-11.333 101.333 -51.833 185 -121.5 251s-154.5 99 -254.5 99zM337.996 1340c0 26.667 9 49 27 67s40.333 27 67 27s49 -9 67 -27
s27 -40.333 27 -67s-9 -49 -27 -67s-40.333 -27 -67 -27s-49 9 -67 27s-27 40.333 -27 67zM685.996 1340c0 26.667 9 49 27 67s40.333 27 67 27s49 -9 67 -27s27 -40.333 27 -67s-9 -49 -27 -67s-40.333 -27 -67 -27s-49 9 -67 27s-27 40.333 -27 67z" />
    <glyph glyph-name="igrave" unicode="&#xec;" horiz-adv-x="516" 
d="M190 0v1036h136v-1036h-136zM107 1521l277 -332h-139l-281 332h143z" />
    <glyph glyph-name="iacute" unicode="&#xed;" horiz-adv-x="516" 
d="M190 0v1036h136v-1036h-136zM132 1189l277 332h143l-281 -332h-139z" />
    <glyph glyph-name="icircumflex" unicode="&#xee;" horiz-adv-x="516" 
d="M190 0v1036h136v-1036h-136zM306 1521l292 -332h-138l-202 228l-202 -228h-138l292 332h96z" />
    <glyph glyph-name="idieresis" unicode="&#xef;" horiz-adv-x="516" 
d="M190 0v1036h136v-1036h-136zM-10 1340c0 26.667 9 49 27 67s40.333 27 67 27s49 -9 67 -27s27 -40.333 27 -67s-9 -49 -27 -67s-40.333 -27 -67 -27s-49 9 -67 27s-27 40.333 -27 67zM338 1340c0 26.667 9 49 27 67s40.333 27 67 27s49 -9 67 -27s27 -40.333 27 -67
s-9 -49 -27 -67s-40.333 -27 -67 -27s-49 9 -67 27s-27 40.333 -27 67z" />
    <glyph glyph-name="eth" unicode="&#xf0;" horiz-adv-x="1217" 
d="M624 1207l-331.998 -157.999l-42 89l282 133c-62.667 41.333 -136 81 -220 119l106 70c85.333 -37.333 164.333 -81.333 237 -132l235 112l41 -88l-190 -90c121.333 -102.667 216.333 -221.834 285 -357.501s103 -278.5 103 -428.5c0 -68.667 -13.667 -134 -41 -196
s-64.5 -115.167 -111.5 -159.5s-103 -79.5 -168 -105.5s-133.5 -39 -205.5 -39s-140.5 13 -205.5 39s-121 61.167 -168 105.5s-84.167 97.5 -111.5 159.5s-41 127.333 -41 196c0 90.667 23.167 174.167 69.5 250.5s108.666 136.333 186.999 180s162.833 65.5 253.5 65.5
c68.667 0 133 -14.667 193 -44s107.667 -69.333 143 -120c-68.667 166 -168.334 299 -299.001 399zM604.002 858.001c-108.667 0 -200.667 -36.833 -276 -110.5s-113 -163.5 -113 -269.5s37.667 -195.833 113 -269.5s167.333 -110.5 276 -110.5s200.667 36.833 276 110.5
s113 163.5 113 269.5s-37.667 195.833 -113 269.5s-167.333 110.5 -276 110.5z" />
    <glyph glyph-name="ntilde" unicode="&#xf1;" horiz-adv-x="1195" 
d="M288 687v-686.999h-136v1036h136v-197c42 63.333 93.333 116 154 158s130.334 63 209.001 63c119.333 0 217.666 -39 294.999 -117s116 -177 116 -297v-646h-136v638c0 85.333 -28.167 156.666 -84.5 213.999s-127.833 86 -214.5 86c-71.333 0 -135.5 -23.667 -192.5 -71
s-105.833 -107.333 -146.5 -180zM460 1457c54 0 108 -25.333 162 -76l41.5 -38c9 -8 20.5 -15.667 34.5 -23s27.667 -11 41 -11c40.667 0 69 40.667 85 122l113 -22c-28.667 -138.667 -89.667 -208 -183 -208c-54 0 -108 25.333 -162 76l-41.5 38
c-9 8 -20.5 15.667 -34.5 23s-27.667 11 -41 11c-40.667 0 -69 -40.667 -85 -122l-113 22c28.667 138.667 89.667 208 183 208z" />
    <glyph glyph-name="ograve" unicode="&#xf2;" horiz-adv-x="1256" 
d="M628 98c76 0 145.833 19 209.5 57s113.334 89.167 149.001 153.5s53.5 134.166 53.5 209.499s-17.833 145.166 -53.5 209.499s-85.334 115.5 -149.001 153.5s-133.5 57 -209.5 57s-145.833 -19 -209.5 -57s-113.334 -89.167 -149.001 -153.5
s-53.5 -134.166 -53.5 -209.499s17.833 -145.166 53.5 -209.499s85.334 -115.5 149.001 -153.5s133.5 -57 209.5 -57zM628 1060c103.333 0 197.333 -24.5 282 -73.5s150.5 -114.833 197.5 -197.5s70.5 -173 70.5 -271s-23.5 -188.333 -70.5 -271
s-112.833 -148.5 -197.5 -197.5s-178.667 -73.5 -282 -73.5s-197.333 24.5 -282 73.5s-150.5 114.833 -197.5 197.5s-70.5 173 -70.5 271s23.5 188.333 70.5 271s112.833 148.5 197.5 197.5s178.667 73.5 282 73.5zM480 1521l277 -332h-139l-281 332h143z" />
    <glyph glyph-name="oacute" unicode="&#xf3;" horiz-adv-x="1256" 
d="M628 98c76 0 145.833 19 209.5 57s113.334 89.167 149.001 153.5s53.5 134.166 53.5 209.499s-17.833 145.166 -53.5 209.499s-85.334 115.5 -149.001 153.5s-133.5 57 -209.5 57s-145.833 -19 -209.5 -57s-113.334 -89.167 -149.001 -153.5
s-53.5 -134.166 -53.5 -209.499s17.833 -145.166 53.5 -209.499s85.334 -115.5 149.001 -153.5s133.5 -57 209.5 -57zM628 1060c103.333 0 197.333 -24.5 282 -73.5s150.5 -114.833 197.5 -197.5s70.5 -173 70.5 -271s-23.5 -188.333 -70.5 -271
s-112.833 -148.5 -197.5 -197.5s-178.667 -73.5 -282 -73.5s-197.333 24.5 -282 73.5s-150.5 114.833 -197.5 197.5s-70.5 173 -70.5 271s23.5 188.333 70.5 271s112.833 148.5 197.5 197.5s178.667 73.5 282 73.5zM500 1189l277 332h143l-281 -332h-139z" />
    <glyph glyph-name="ocircumflex" unicode="&#xf4;" horiz-adv-x="1256" 
d="M628 98c76 0 145.833 19 209.5 57s113.334 89.167 149.001 153.5s53.5 134.166 53.5 209.499s-17.833 145.166 -53.5 209.499s-85.334 115.5 -149.001 153.5s-133.5 57 -209.5 57s-145.833 -19 -209.5 -57s-113.334 -89.167 -149.001 -153.5
s-53.5 -134.166 -53.5 -209.499s17.833 -145.166 53.5 -209.499s85.334 -115.5 149.001 -153.5s133.5 -57 209.5 -57zM628 1060c103.333 0 197.333 -24.5 282 -73.5s150.5 -114.833 197.5 -197.5s70.5 -173 70.5 -271s-23.5 -188.333 -70.5 -271
s-112.833 -148.5 -197.5 -197.5s-178.667 -73.5 -282 -73.5s-197.333 24.5 -282 73.5s-150.5 114.833 -197.5 197.5s-70.5 173 -70.5 271s23.5 188.333 70.5 271s112.833 148.5 197.5 197.5s178.667 73.5 282 73.5zM676 1521l292 -332h-138l-202 228l-202 -228h-138l292 332
h96z" />
    <glyph glyph-name="otilde" unicode="&#xf5;" horiz-adv-x="1256" 
d="M628 98c76 0 145.833 19 209.5 57s113.334 89.167 149.001 153.5s53.5 134.166 53.5 209.499s-17.833 145.166 -53.5 209.499s-85.334 115.5 -149.001 153.5s-133.5 57 -209.5 57s-145.833 -19 -209.5 -57s-113.334 -89.167 -149.001 -153.5
s-53.5 -134.166 -53.5 -209.499s17.833 -145.166 53.5 -209.499s85.334 -115.5 149.001 -153.5s133.5 -57 209.5 -57zM628 1060c103.333 0 197.333 -24.5 282 -73.5s150.5 -114.833 197.5 -197.5s70.5 -173 70.5 -271s-23.5 -188.333 -70.5 -271
s-112.833 -148.5 -197.5 -197.5s-178.667 -73.5 -282 -73.5s-197.333 24.5 -282 73.5s-150.5 114.833 -197.5 197.5s-70.5 173 -70.5 271s23.5 188.333 70.5 271s112.833 148.5 197.5 197.5s178.667 73.5 282 73.5zM481 1457c54 0 108 -25.333 162 -76l41.5 -38
c9 -8 20.5 -15.667 34.5 -23s27.667 -11 41 -11c40.667 0 69 40.667 85 122l113 -22c-28.667 -138.667 -89.667 -208 -183 -208c-54 0 -108 25.333 -162 76l-41.5 38c-9 8 -20.5 15.667 -34.5 23s-27.667 11 -41 11c-40.667 0 -69 -40.667 -85 -122l-113 22
c28.667 138.667 89.667 208 183 208z" />
    <glyph glyph-name="odieresis" unicode="&#xf6;" horiz-adv-x="1256" 
d="M628 98c76 0 145.833 19 209.5 57s113.334 89.167 149.001 153.5s53.5 134.166 53.5 209.499s-17.833 145.166 -53.5 209.499s-85.334 115.5 -149.001 153.5s-133.5 57 -209.5 57s-145.833 -19 -209.5 -57s-113.334 -89.167 -149.001 -153.5
s-53.5 -134.166 -53.5 -209.499s17.833 -145.166 53.5 -209.499s85.334 -115.5 149.001 -153.5s133.5 -57 209.5 -57zM628 1060c103.333 0 197.333 -24.5 282 -73.5s150.5 -114.833 197.5 -197.5s70.5 -173 70.5 -271s-23.5 -188.333 -70.5 -271
s-112.833 -148.5 -197.5 -197.5s-178.667 -73.5 -282 -73.5s-197.333 24.5 -282 73.5s-150.5 114.833 -197.5 197.5s-70.5 173 -70.5 271s23.5 188.333 70.5 271s112.833 148.5 197.5 197.5s178.667 73.5 282 73.5zM360 1340c0 26.667 9 49 27 67s40.333 27 67 27
s49 -9 67 -27s27 -40.333 27 -67s-9 -49 -27 -67s-40.333 -27 -67 -27s-49 9 -67 27s-27 40.333 -27 67zM708 1340c0 26.667 9 49 27 67s40.333 27 67 27s49 -9 67 -27s27 -40.333 27 -67s-9 -49 -27 -67s-40.333 -27 -67 -27s-49 9 -67 27s-27 40.333 -27 67z" />
    <glyph glyph-name="divide" unicode="&#xf7;" horiz-adv-x="1136" 
d="M1018 605h-900v118h900v-118zM466 1042c0 29.333 9.66699 53.666 29 72.999s43.666 29 72.999 29s53.666 -9.66699 72.999 -29s29 -43.666 29 -72.999s-9.66699 -53.666 -29 -72.999s-43.666 -29 -72.999 -29s-53.666 9.66699 -72.999 29s-29 43.666 -29 72.999zM466 286
c0 29.333 9.66699 53.666 29 72.999s43.666 29 72.999 29s53.666 -9.66699 72.999 -29s29 -43.666 29 -72.999s-9.66699 -53.666 -29 -72.999s-43.666 -29 -72.999 -29s-53.666 9.66699 -72.999 29s-29 43.666 -29 72.999z" />
    <glyph glyph-name="oslash" unicode="&#xf8;" horiz-adv-x="1256" 
d="M628 1060c110.667 0 210.999 -28.667 300.999 -86l97 122h129l-147 -183c54 -50.667 95.833 -110.167 125.5 -178.5s44.5 -140.5 44.5 -216.5c0 -98 -23.5 -188.333 -70.5 -271s-112.833 -148.5 -197.5 -197.5s-178.667 -73.5 -282 -73.5
c-111.333 0 -211.666 28.333 -300.999 85l-97 -121h-129l146 183c-53.333 50 -94.833 109.167 -124.5 177.5s-44.5 140.833 -44.5 217.5c0 98 23.5 188.333 70.5 271s112.833 148.5 197.5 197.5s178.667 73.5 282 73.5zM627.999 98c76 0 145.832 19.001 209.499 57.001
s113.334 89.167 149.001 153.5s53.5 134.166 53.5 209.499c0 113.333 -38.333 210.333 -115 291l-518 -647c65.333 -42.667 139 -64 221 -64zM215.998 518.001c0 -113.333 38 -210.668 114 -292.001l518 648c-67.333 42.667 -140.666 64 -219.999 64
c-76 0 -145.833 -19 -209.5 -57s-113.334 -89.167 -149.001 -153.5s-53.5 -134.166 -53.5 -209.499z" />
    <glyph glyph-name="ugrave" unicode="&#xf9;" horiz-adv-x="1195" 
d="M907 349v686.999h136v-1036h-136v197c-42 -63.333 -93.333 -116 -154 -158s-130.334 -63 -209.001 -63c-119.333 0 -217.666 39 -294.999 117s-116 177 -116 297v646h136v-638c0 -85.333 28.167 -156.666 84.5 -213.999s127.833 -86 214.5 -86
c71.333 0 135.5 23.667 192.5 71s105.833 107.333 146.5 180zM421 1521l277 -332h-139l-281 332h143z" />
    <glyph glyph-name="uacute" unicode="&#xfa;" horiz-adv-x="1195" 
d="M907 349v686.999h136v-1036h-136v197c-42 -63.333 -93.333 -116 -154 -158s-130.334 -63 -209.001 -63c-119.333 0 -217.666 39 -294.999 117s-116 177 -116 297v646h136v-638c0 -85.333 28.167 -156.666 84.5 -213.999s127.833 -86 214.5 -86
c71.333 0 135.5 23.667 192.5 71s105.833 107.333 146.5 180zM462 1189l277 332h143l-281 -332h-139z" />
    <glyph glyph-name="ucircumflex" unicode="&#xfb;" horiz-adv-x="1195" 
d="M907 349v686.999h136v-1036h-136v197c-42 -63.333 -93.333 -116 -154 -158s-130.334 -63 -209.001 -63c-119.333 0 -217.666 39 -294.999 117s-116 177 -116 297v646h136v-638c0 -85.333 28.167 -156.666 84.5 -213.999s127.833 -86 214.5 -86
c71.333 0 135.5 23.667 192.5 71s105.833 107.333 146.5 180zM632 1521l292 -332h-138l-202 228l-202 -228h-138l292 332h96z" />
    <glyph glyph-name="udieresis" unicode="&#xfc;" horiz-adv-x="1195" 
d="M907 349v686.999h136v-1036h-136v197c-42 -63.333 -93.333 -116 -154 -158s-130.334 -63 -209.001 -63c-119.333 0 -217.666 39 -294.999 117s-116 177 -116 297v646h136v-638c0 -85.333 28.167 -156.666 84.5 -213.999s127.833 -86 214.5 -86
c71.333 0 135.5 23.667 192.5 71s105.833 107.333 146.5 180zM316 1340c0 26.667 9 49 27 67s40.333 27 67 27s49 -9 67 -27s27 -40.333 27 -67s-9 -49 -27 -67s-40.333 -27 -67 -27s-49 9 -67 27s-27 40.333 -27 67zM664 1340c0 26.667 9 49 27 67s40.333 27 67 27
s49 -9 67 -27s27 -40.333 27 -67s-9 -49 -27 -67s-40.333 -27 -67 -27s-49 9 -67 27s-27 40.333 -27 67z" />
    <glyph glyph-name="yacute" unicode="&#xfd;" horiz-adv-x="1044" 
d="M263 -464l191 473l-420 1027h144l346 -853l342 853h144l-603 -1500h-144zM402 1189l277 332h143l-281 -332h-139z" />
    <glyph glyph-name="thorn" unicode="&#xfe;" horiz-adv-x="1282" 
d="M654 98c76 0 145.833 19.002 209.5 57.002s113.334 89.167 149.001 153.5s53.5 134.166 53.5 209.499s-17.833 145.166 -53.5 209.499s-85.334 115.5 -149.001 153.5s-133.5 57 -209.5 57c-79.333 0 -151.5 -20.667 -216.5 -62s-114.833 -96.333 -149.5 -165v-388
c34.667 -68 84.5 -122.5 149.5 -163.5s137.167 -61.5 216.5 -61.5zM674 1060c100 0 190.833 -24.8271 272.5 -74.4941s145 -115.834 190 -198.501s67.5 -172.334 67.5 -269.001s-22.5 -186.334 -67.5 -269.001s-108.333 -148.834 -190 -198.501s-172.5 -74.5 -272.5 -74.5
c-77.333 0 -149.166 15.667 -215.499 47s-123.166 75.666 -170.499 132.999v-620h-136v1924h136v-580c47.333 57.333 104.166 101.666 170.499 132.999s138.166 47 215.499 47z" />
    <glyph glyph-name="ydieresis" unicode="&#xff;" horiz-adv-x="1044" 
d="M263 -464l191 473l-420 1027h144l346 -853l342 853h144l-603 -1500h-144zM253 1340c0 26.667 9 49 27 67s40.333 27 67 27s49 -9 67 -27s27 -40.333 27 -67s-9 -49 -27 -67s-40.333 -27 -67 -27s-49 9 -67 27s-27 40.333 -27 67zM601 1340c0 26.667 9 49 27 67
s40.333 27 67 27s49 -9 67 -27s27 -40.333 27 -67s-9 -49 -27 -67s-40.333 -27 -67 -27s-49 9 -67 27s-27 40.333 -27 67z" />
    <glyph glyph-name="Amacron" unicode="&#x100;" horiz-adv-x="1348" 
d="M1292 0h-154l-144 385h-640l-144 -385h-154l541 1400h154zM951 507l-277 736l-277 -736h554zM394 1605v108h560v-108h-560z" />
    <glyph glyph-name="amacron" unicode="&#x101;" horiz-adv-x="1282" 
d="M628 98c79.333 0 151.5 20.498 216.5 61.498s114.833 95.5 149.5 163.5v388c-34.667 68.667 -84.5 123.667 -149.5 165s-137.167 62 -216.5 62c-76 0 -145.833 -19 -209.5 -57s-113.334 -89.167 -149.001 -153.5s-53.5 -134.166 -53.5 -209.499
s17.833 -145.166 53.5 -209.499s85.334 -115.5 149.001 -153.5s133.5 -57 209.5 -57zM608 1060c77.333 0 149.166 -15.6729 215.499 -47.0059s123.166 -75.666 170.499 -132.999v156h136v-1036h-136v156c-47.333 -57.333 -104.166 -101.666 -170.499 -132.999
s-138.166 -47 -215.499 -47c-100 0 -190.833 24.833 -272.5 74.5s-145 115.834 -190 198.501s-67.5 172.334 -67.5 269.001s22.5 186.334 67.5 269.001s108.333 148.834 190 198.501s172.5 74.5 272.5 74.5zM345 1280.99v108h560v-108h-560z" />
    <glyph glyph-name="Abreve" unicode="&#x102;" horiz-adv-x="1348" 
d="M1292 0h-154l-144 385h-640l-144 -385h-154l541 1400h154zM951 507l-277 736l-277 -736h554zM674 1493c-86 0 -158.5 28.667 -217.5 86s-90.833 130 -95.5 218h124c2.66699 -57.333 21 -105 55 -143s78.667 -57 134 -57s100 19 134 57s52.333 85.667 55 143h124
c-4.66699 -88 -36.5 -160.667 -95.5 -218s-131.5 -86 -217.5 -86z" />
    <glyph glyph-name="abreve" unicode="&#x103;" horiz-adv-x="1282" 
d="M628 98c79.333 0 151.5 20.498 216.5 61.498s114.833 95.5 149.5 163.5v388c-34.667 68.667 -84.5 123.667 -149.5 165s-137.167 62 -216.5 62c-76 0 -145.833 -19 -209.5 -57s-113.334 -89.167 -149.001 -153.5s-53.5 -134.166 -53.5 -209.499
s17.833 -145.166 53.5 -209.499s85.334 -115.5 149.001 -153.5s133.5 -57 209.5 -57zM608 1060c77.333 0 149.166 -15.6729 215.499 -47.0059s123.166 -75.666 170.499 -132.999v156h136v-1036h-136v156c-47.333 -57.333 -104.166 -101.666 -170.499 -132.999
s-138.166 -47 -215.499 -47c-100 0 -190.833 24.833 -272.5 74.5s-145 115.834 -190 198.501s-67.5 172.334 -67.5 269.001s22.5 186.334 67.5 269.001s108.333 148.834 190 198.501s172.5 74.5 272.5 74.5zM623 1168.99c-86 0 -158.5 28.667 -217.5 86
s-90.833 130 -95.5 218h124c2.66699 -57.333 21 -105 55 -143s78.667 -57 134 -57s100 19 134 57s52.333 85.667 55 143h124c-4.66699 -88 -36.5 -160.667 -95.5 -218s-131.5 -86 -217.5 -86z" />
    <glyph glyph-name="Aogonek" unicode="&#x104;" horiz-adv-x="1348" 
d="M1185 0l-47.002 -0.000976562l-144 385h-640l-144 -385h-154l541 1400h154l541 -1400c-60.667 -50 -106 -93.333 -136 -130s-45 -74.667 -45 -114c0 -35.333 11.667 -64.666 35 -87.999s52 -35 86 -35c38.667 0 73.334 11 104.001 33l32 -78
c-44.667 -30.667 -96.667 -46 -156 -46s-109.166 19.167 -149.499 57.5s-60.5 85.833 -60.5 142.5c0 86 61 172 183 258zM950.998 506.999l-277 736l-277 -736h554z" />
    <glyph glyph-name="aogonek" unicode="&#x105;" horiz-adv-x="1282" 
d="M1023 0l-29.002 -0.00683594v156c-47.333 -57.333 -104.166 -101.666 -170.499 -132.999s-138.166 -47 -215.499 -47c-100 0 -190.833 24.833 -272.5 74.5s-145 115.834 -190 198.501s-67.5 172.334 -67.5 269.001s22.5 186.334 67.5 269.001
s108.333 148.834 190 198.501s172.5 74.5 272.5 74.5c77.333 0 149.166 -15.667 215.499 -47s123.166 -75.666 170.499 -132.999v156h136v-1036c-60.667 -50 -106 -93.333 -136 -130s-45 -74.667 -45 -114c0 -35.333 11.667 -64.666 35 -87.999s52 -35 86 -35
c38.667 0 73.334 11 104.001 33l32 -78c-44.667 -30.667 -96.667 -46 -156 -46s-109.166 19.167 -149.499 57.5s-60.5 85.833 -60.5 142.5c0 86 61 172 183 258zM627.998 97.9932c79.333 0 151.5 20.498 216.5 61.498s114.833 95.5 149.5 163.5v388
c-34.667 68.667 -84.5 123.667 -149.5 165s-137.167 62 -216.5 62c-76 0 -145.833 -19 -209.5 -57s-113.334 -89.167 -149.001 -153.5s-53.5 -134.166 -53.5 -209.499s17.833 -145.166 53.5 -209.499s85.334 -115.5 149.001 -153.5s133.5 -57 209.5 -57z" />
    <glyph glyph-name="Cacute" unicode="&#x106;" horiz-adv-x="1355" 
d="M809 100c145.333 0 277.332 49.6709 395.999 149.004l75 -106c-134 -111.333 -291 -167 -471 -167c-100.667 0 -195.834 18.667 -285.501 56s-166.667 88.166 -231 152.499s-115.333 141.166 -153 230.499s-56.5 184.333 -56.5 285s18.833 195.667 56.5 285
s88.667 166.166 153 230.499s141.333 115.166 231 152.499s184.834 56 285.501 56c170.667 0 322 -51.333 454 -154l-72 -106c-123.333 90.667 -250.666 136 -381.999 136c-107.333 0 -205.833 -26.667 -295.5 -80s-160.167 -125.833 -211.5 -217.5s-77 -192.5 -77 -302.5
s25.667 -210.833 77 -302.5s121.833 -164.167 211.5 -217.5s188.167 -80 295.5 -80zM633.999 1513l277 332h143l-281 -332h-139z" />
    <glyph glyph-name="cacute" unicode="&#x107;" horiz-adv-x="1092" 
d="M628 -24c-103.333 0 -197.335 24.498 -282.002 73.498s-150.5 114.833 -197.5 197.5s-70.5 173 -70.5 271s23.5 188.333 70.5 271s112.833 148.5 197.5 197.5s178.667 73.5 282 73.5c144.667 0 269.334 -47 374.001 -141l-71 -108c-90 84.667 -191 127 -303 127
c-76 0 -145.833 -19 -209.5 -57s-113.334 -89.167 -149.001 -153.5s-53.5 -134.166 -53.5 -209.499s17.833 -145.166 53.5 -209.499s85.334 -115.5 149.001 -153.5s133.5 -57 209.5 -57c119.333 0 223.333 46 312 138l81 -100c-50 -50.667 -108.667 -90 -176 -118
s-139.666 -42 -216.999 -42zM458.998 1189l277 332h143l-281 -332h-139z" />
    <glyph glyph-name="Ccircumflex" unicode="&#x108;" horiz-adv-x="1355" 
d="M809 100c145.333 0 277.332 49.6709 395.999 149.004l75 -106c-134 -111.333 -291 -167 -471 -167c-100.667 0 -195.834 18.667 -285.501 56s-166.667 88.166 -231 152.499s-115.333 141.166 -153 230.499s-56.5 184.333 -56.5 285s18.833 195.667 56.5 285
s88.667 166.166 153 230.499s141.333 115.166 231 152.499s184.834 56 285.501 56c170.667 0 322 -51.333 454 -154l-72 -106c-123.333 90.667 -250.666 136 -381.999 136c-107.333 0 -205.833 -26.667 -295.5 -80s-160.167 -125.833 -211.5 -217.5s-77 -192.5 -77 -302.5
s25.667 -210.833 77 -302.5s121.833 -164.167 211.5 -217.5s188.167 -80 295.5 -80zM810.999 1845l292 -332h-138l-202 228l-202 -228h-138l292 332h96z" />
    <glyph glyph-name="ccircumflex" unicode="&#x109;" horiz-adv-x="1092" 
d="M628 -24c-103.333 0 -197.335 24.498 -282.002 73.498s-150.5 114.833 -197.5 197.5s-70.5 173 -70.5 271s23.5 188.333 70.5 271s112.833 148.5 197.5 197.5s178.667 73.5 282 73.5c144.667 0 269.334 -47 374.001 -141l-71 -108c-90 84.667 -191 127 -303 127
c-76 0 -145.833 -19 -209.5 -57s-113.334 -89.167 -149.001 -153.5s-53.5 -134.166 -53.5 -209.499s17.833 -145.166 53.5 -209.499s85.334 -115.5 149.001 -153.5s133.5 -57 209.5 -57c119.333 0 223.333 46 312 138l81 -100c-50 -50.667 -108.667 -90 -176 -118
s-139.666 -42 -216.999 -42zM631.998 1521l292 -332h-138l-202 228l-202 -228h-138l292 332h96z" />
    <glyph glyph-name="Cdotaccent" unicode="&#x10a;" horiz-adv-x="1355" 
d="M809 100c145.333 0 277.332 49.6709 395.999 149.004l75 -106c-134 -111.333 -291 -167 -471 -167c-100.667 0 -195.834 18.667 -285.501 56s-166.667 88.166 -231 152.499s-115.333 141.166 -153 230.499s-56.5 184.333 -56.5 285s18.833 195.667 56.5 285
s88.667 166.166 153 230.499s141.333 115.166 231 152.499s184.834 56 285.501 56c170.667 0 322 -51.333 454 -154l-72 -106c-123.333 90.667 -250.666 136 -381.999 136c-107.333 0 -205.833 -26.667 -295.5 -80s-160.167 -125.833 -211.5 -217.5s-77 -192.5 -77 -302.5
s25.667 -210.833 77 -302.5s121.833 -164.167 211.5 -217.5s188.167 -80 295.5 -80zM670.999 1664c0 26.667 9 49 27 67s40.333 27 67 27s49 -9 67 -27s27 -40.333 27 -67s-9 -49 -27 -67s-40.333 -27 -67 -27s-49 9 -67 27s-27 40.333 -27 67z" />
    <glyph glyph-name="cdotaccent" unicode="&#x10b;" horiz-adv-x="1092" 
d="M628 -24c-103.333 0 -197.335 24.498 -282.002 73.498s-150.5 114.833 -197.5 197.5s-70.5 173 -70.5 271s23.5 188.333 70.5 271s112.833 148.5 197.5 197.5s178.667 73.5 282 73.5c144.667 0 269.334 -47 374.001 -141l-71 -108c-90 84.667 -191 127 -303 127
c-76 0 -145.833 -19 -209.5 -57s-113.334 -89.167 -149.001 -153.5s-53.5 -134.166 -53.5 -209.499s17.833 -145.166 53.5 -209.499s85.334 -115.5 149.001 -153.5s133.5 -57 209.5 -57c119.333 0 223.333 46 312 138l81 -100c-50 -50.667 -108.667 -90 -176 -118
s-139.666 -42 -216.999 -42zM505.998 1340c0 26.667 9 49 27 67s40.333 27 67 27s49 -9 67 -27s27 -40.333 27 -67s-9 -49 -27 -67s-40.333 -27 -67 -27s-49 9 -67 27s-27 40.333 -27 67z" />
    <glyph glyph-name="Ccaron" unicode="&#x10c;" horiz-adv-x="1355" 
d="M809 100c145.333 0 277.332 49.6709 395.999 149.004l75 -106c-134 -111.333 -291 -167 -471 -167c-100.667 0 -195.834 18.667 -285.501 56s-166.667 88.166 -231 152.499s-115.333 141.166 -153 230.499s-56.5 184.333 -56.5 285s18.833 195.667 56.5 285
s88.667 166.166 153 230.499s141.333 115.166 231 152.499s184.834 56 285.501 56c170.667 0 322 -51.333 454 -154l-72 -106c-123.333 90.667 -250.666 136 -381.999 136c-107.333 0 -205.833 -26.667 -295.5 -80s-160.167 -125.833 -211.5 -217.5s-77 -192.5 -77 -302.5
s25.667 -210.833 77 -302.5s121.833 -164.167 211.5 -217.5s188.167 -80 295.5 -80zM1103 1845l-292 -332h-96l-292 332h138l202 -228l202 228h138z" />
    <glyph glyph-name="ccaron" unicode="&#x10d;" horiz-adv-x="1092" 
d="M628 -24c-103.333 0 -197.335 24.498 -282.002 73.498s-150.5 114.833 -197.5 197.5s-70.5 173 -70.5 271s23.5 188.333 70.5 271s112.833 148.5 197.5 197.5s178.667 73.5 282 73.5c144.667 0 269.334 -47 374.001 -141l-71 -108c-90 84.667 -191 127 -303 127
c-76 0 -145.833 -19 -209.5 -57s-113.334 -89.167 -149.001 -153.5s-53.5 -134.166 -53.5 -209.499s17.833 -145.166 53.5 -209.499s85.334 -115.5 149.001 -153.5s133.5 -57 209.5 -57c119.333 0 223.333 46 312 138l81 -100c-50 -50.667 -108.667 -90 -176 -118
s-139.666 -42 -216.999 -42zM924.998 1501l-292 -332h-96l-292 332h138l202 -228l202 228h138z" />
    <glyph glyph-name="Dcaron" unicode="&#x10e;" horiz-adv-x="1393" 
d="M176 1400h458c206.667 0 371 -63.833 493 -191.5s183 -297.167 183 -508.5s-61 -380.833 -183 -508.5s-286.333 -191.5 -493 -191.5h-458v1400zM634 1276l-318 0.00195312v-1152h318c162 0 291.5 51.167 388.5 153.5s145.5 243.166 145.5 422.499
s-48.5 320.166 -145.5 422.499s-226.5 153.5 -388.5 153.5zM1002 1845l-292 -332h-96l-292 332h138l202 -228l202 228h138z" />
    <glyph glyph-name="dcaron" unicode="&#x10f;" horiz-adv-x="1580" 
d="M628 98c79.333 0 151.5 20.498 216.5 61.498s114.833 95.5 149.5 163.5v388c-34.667 68.667 -84.5 123.667 -149.5 165s-137.167 62 -216.5 62c-76 0 -145.833 -19 -209.5 -57s-113.334 -89.167 -149.001 -153.5s-53.5 -134.166 -53.5 -209.499
s17.833 -145.166 53.5 -209.499s85.334 -115.5 149.001 -153.5s133.5 -57 209.5 -57zM608 1060c77.333 0 149.166 -15.6729 215.499 -47.0059s123.166 -75.666 170.499 -132.999v580h136v-1460h-136v156c-47.333 -57.333 -104.166 -101.666 -170.499 -132.999
s-138.166 -47 -215.499 -47c-100 0 -190.833 24.833 -272.5 74.5s-145 115.834 -190 198.501s-67.5 172.334 -67.5 269.001s22.5 186.334 67.5 269.001s108.333 148.834 190 198.501s172.5 74.5 272.5 74.5zM1327 1384.99c0 28 9.5 51.5 28.5 70.5s42.5 28.5 70.5 28.5
s51.5 -9.5 70.5 -28.5s28.5 -42.5 28.5 -70.5c0 -14 -3.33301 -28.667 -10 -44l-119 -267h-94l95 216c-20.667 6 -37.5 17.5 -50.5 34.5s-19.5 37.167 -19.5 60.5z" />
    <glyph glyph-name="Dcroat" unicode="&#x110;" horiz-adv-x="1441" 
d="M224 1400h458c206.667 0 371 -63.833 493 -191.5s183 -297.167 183 -508.5s-61 -380.833 -183 -508.5s-286.333 -191.5 -493 -191.5h-458v644h-185v112h185v644zM682 1276l-318 0.00195312v-520h330v-112h-330v-520h318c162 0 291.5 51.167 388.5 153.5
s145.5 243.166 145.5 422.499s-48.5 320.166 -145.5 422.499s-226.5 153.5 -388.5 153.5z" />
    <glyph glyph-name="dcroat" unicode="&#x111;" horiz-adv-x="1325" 
d="M625 1186v99.9941h369v174h136v-174h160v-100h-160v-1186h-136v156c-47.333 -57.333 -104.166 -101.666 -170.499 -132.999s-138.166 -47 -215.499 -47c-100 0 -190.833 24.833 -272.5 74.5s-145 115.834 -190 198.501s-67.5 172.334 -67.5 269.001
s22.5 186.334 67.5 269.001s108.333 148.834 190 198.501s172.5 74.5 272.5 74.5c77.333 0 149.166 -15.667 215.499 -47s123.166 -75.666 170.499 -132.999v306h-369zM628 97.9941c79.333 0 151.5 20.498 216.5 61.498s114.833 95.5 149.5 163.5v388
c-34.667 68.667 -84.5 123.667 -149.5 165s-137.167 62 -216.5 62c-76 0 -145.833 -19 -209.5 -57s-113.334 -89.167 -149.001 -153.5s-53.5 -134.166 -53.5 -209.499s17.833 -145.166 53.5 -209.499s85.334 -115.5 149.001 -153.5s133.5 -57 209.5 -57z" />
    <glyph glyph-name="Emacron" unicode="&#x112;" horiz-adv-x="1118" 
d="M176 0v1400h802v-122h-662v-513h609v-122h-609v-521h680v-122h-820zM292 1605v108h560v-108h-560z" />
    <glyph glyph-name="emacron" unicode="&#x113;" horiz-adv-x="1212" 
d="M217 478c7.33301 -108 49.3301 -199.002 125.997 -273.002s171.334 -111 284.001 -111c66.667 0 129.834 14.333 189.501 43s111.5 69 155.5 121l94 -87c-52 -62 -115.667 -110 -191 -144s-157 -51 -245 -51c-107.333 0 -203.333 24.5 -288 73.5
s-149.834 114.5 -195.501 196.5s-68.5 172.667 -68.5 272c0 73.333 13.667 143.333 41 210s64.5 124.334 111.5 173.001s104 87.334 171 116.001s138.5 43 214.5 43c98.667 0 187.834 -23.167 267.501 -69.5s141.334 -108.833 185.001 -187.5s65.5 -165 65.5 -259
c0 -22.667 -2.33301 -44.667 -7 -66h-910zM615.997 941.998c-99.333 0 -186.167 -33.667 -260.5 -101s-118.833 -150.333 -133.5 -249h770c-11.333 101.333 -51.833 185 -121.5 251s-154.5 99 -254.5 99zM325.996 1281v108h560v-108h-560z" />
    <glyph glyph-name="Ebreve" unicode="&#x114;" horiz-adv-x="1118" 
d="M176 0v1400h802v-122h-662v-513h609v-122h-609v-521h680v-122h-820zM571 1493c-86 0 -158.5 28.667 -217.5 86s-90.833 130 -95.5 218h124c2.66699 -57.333 21 -105 55 -143s78.667 -57 134 -57s100 19 134 57s52.333 85.667 55 143h124
c-4.66699 -88 -36.5 -160.667 -95.5 -218s-131.5 -86 -217.5 -86z" />
    <glyph glyph-name="ebreve" unicode="&#x115;" horiz-adv-x="1212" 
d="M217 478c7.33301 -108 49.3301 -199.002 125.997 -273.002s171.334 -111 284.001 -111c66.667 0 129.834 14.333 189.501 43s111.5 69 155.5 121l94 -87c-52 -62 -115.667 -110 -191 -144s-157 -51 -245 -51c-107.333 0 -203.333 24.5 -288 73.5
s-149.834 114.5 -195.501 196.5s-68.5 172.667 -68.5 272c0 73.333 13.667 143.333 41 210s64.5 124.334 111.5 173.001s104 87.334 171 116.001s138.5 43 214.5 43c98.667 0 187.834 -23.167 267.501 -69.5s141.334 -108.833 185.001 -187.5s65.5 -165 65.5 -259
c0 -22.667 -2.33301 -44.667 -7 -66h-910zM615.997 941.998c-99.333 0 -186.167 -33.667 -260.5 -101s-118.833 -150.333 -133.5 -249h770c-11.333 101.333 -51.833 185 -121.5 251s-154.5 99 -254.5 99zM605.996 1169c-86 0 -158.5 28.667 -217.5 86s-90.833 130 -95.5 218
h124c2.66699 -57.333 21 -105 55 -143s78.667 -57 134 -57s100 19 134 57s52.333 85.667 55 143h124c-4.66699 -88 -36.5 -160.667 -95.5 -218s-131.5 -86 -217.5 -86z" />
    <glyph glyph-name="Edotaccent" unicode="&#x116;" horiz-adv-x="1118" 
d="M176 0v1400h802v-122h-662v-513h609v-122h-609v-521h680v-122h-820zM485 1664c0 26.667 9 49 27 67s40.333 27 67 27s49 -9 67 -27s27 -40.333 27 -67s-9 -49 -27 -67s-40.333 -27 -67 -27s-49 9 -67 27s-27 40.333 -27 67z" />
    <glyph glyph-name="edotaccent" unicode="&#x117;" horiz-adv-x="1212" 
d="M217 478c7.33301 -108 49.3301 -199.002 125.997 -273.002s171.334 -111 284.001 -111c66.667 0 129.834 14.333 189.501 43s111.5 69 155.5 121l94 -87c-52 -62 -115.667 -110 -191 -144s-157 -51 -245 -51c-107.333 0 -203.333 24.5 -288 73.5
s-149.834 114.5 -195.501 196.5s-68.5 172.667 -68.5 272c0 73.333 13.667 143.333 41 210s64.5 124.334 111.5 173.001s104 87.334 171 116.001s138.5 43 214.5 43c98.667 0 187.834 -23.167 267.501 -69.5s141.334 -108.833 185.001 -187.5s65.5 -165 65.5 -259
c0 -22.667 -2.33301 -44.667 -7 -66h-910zM615.997 941.998c-99.333 0 -186.167 -33.667 -260.5 -101s-118.833 -150.333 -133.5 -249h770c-11.333 101.333 -51.833 185 -121.5 251s-154.5 99 -254.5 99zM511.996 1340c0 26.667 9 49 27 67s40.333 27 67 27s49 -9 67 -27
s27 -40.333 27 -67s-9 -49 -27 -67s-40.333 -27 -67 -27s-49 9 -67 27s-27 40.333 -27 67z" />
    <glyph glyph-name="Eogonek" unicode="&#x118;" horiz-adv-x="1118" 
d="M176 0l-0.00195312 1400h802v-122h-662v-513h609v-122h-609v-521h680v-122h-173c-60.667 -50 -106 -93.333 -136 -130s-45 -74.667 -45 -114c0 -35.333 11.667 -64.666 35 -87.999s52 -35 86 -35c38.667 0 73.334 11 104.001 33l32 -78
c-44.667 -30.667 -96.667 -46 -156 -46s-109.166 19.167 -149.499 57.5s-60.5 85.833 -60.5 142.5c0 86 61 172 183 258h-540z" />
    <glyph glyph-name="eogonek" unicode="&#x119;" horiz-adv-x="1212" 
d="M217 478c7.33301 -108 49.3271 -199.003 125.994 -273.003s171.334 -111 284.001 -111c66.667 0 129.834 14.333 189.501 43s111.5 69 155.5 121l94 -87c-46 -54.667 -101.5 -98.667 -166.5 -132s-135.5 -53.333 -211.5 -60c-51.333 -43.333 -90 -82.333 -116 -117
s-39 -70 -39 -106c0 -35.333 11.667 -64.666 35 -87.999s52 -35 86 -35c38.667 0 73.334 11 104.001 33l32 -78c-44.667 -30.667 -96.667 -46 -156 -46s-109.166 19.167 -149.499 57.5s-60.5 85.833 -60.5 142.5c0 80.667 51 159.667 153 237
c-148 12 -268.167 69 -360.5 171s-138.5 224.667 -138.5 368c0 73.333 13.667 143.333 41 210s64.5 124.334 111.5 173.001s104 87.334 171 116.001s138.5 43 214.5 43c98.667 0 187.834 -23.167 267.501 -69.5s141.334 -108.833 185.001 -187.5s65.5 -165 65.5 -259
c0 -22.667 -2.33301 -44.667 -7 -66h-910zM615.994 941.997c-99.333 0 -186.167 -33.667 -260.5 -101s-118.833 -150.333 -133.5 -249h770c-11.333 101.333 -51.833 185 -121.5 251s-154.5 99 -254.5 99z" />
    <glyph glyph-name="Ecaron" unicode="&#x11a;" horiz-adv-x="1118" 
d="M176 0v1400h802v-122h-662v-513h609v-122h-609v-521h680v-122h-820zM915 1845l-292 -332h-96l-292 332h138l202 -228l202 228h138z" />
    <glyph glyph-name="ecaron" unicode="&#x11b;" horiz-adv-x="1212" 
d="M217 478c7.33301 -108 49.3301 -199.002 125.997 -273.002s171.334 -111 284.001 -111c66.667 0 129.834 14.333 189.501 43s111.5 69 155.5 121l94 -87c-52 -62 -115.667 -110 -191 -144s-157 -51 -245 -51c-107.333 0 -203.333 24.5 -288 73.5
s-149.834 114.5 -195.501 196.5s-68.5 172.667 -68.5 272c0 73.333 13.667 143.333 41 210s64.5 124.334 111.5 173.001s104 87.334 171 116.001s138.5 43 214.5 43c98.667 0 187.834 -23.167 267.501 -69.5s141.334 -108.833 185.001 -187.5s65.5 -165 65.5 -259
c0 -22.667 -2.33301 -44.667 -7 -66h-910zM615.997 941.998c-99.333 0 -186.167 -33.667 -260.5 -101s-118.833 -150.333 -133.5 -249h770c-11.333 101.333 -51.833 185 -121.5 251s-154.5 99 -254.5 99zM945.996 1501l-292 -332h-96l-292 332h138l202 -228l202 228h138z
" />
    <glyph glyph-name="Gcircumflex" unicode="&#x11c;" horiz-adv-x="1430" 
d="M809 1300c-107.333 0 -205.834 -26.6631 -295.501 -79.9961s-160.167 -125.833 -211.5 -217.5s-77 -192.5 -77 -302.5s25.667 -210.833 77 -302.5s121.833 -164.167 211.5 -217.5s188.167 -80 295.5 -80c62.667 0 124 10.333 184 31s113.333 49 160 85v381h-426v122h566
v-564c-63.333 -56 -136.5 -99.833 -219.5 -131.5s-171.167 -47.5 -264.5 -47.5c-100.667 0 -195.834 18.667 -285.501 56s-166.667 88.166 -231 152.499s-115.333 141.166 -153 230.499s-56.5 184.333 -56.5 285s18.833 195.667 56.5 285s88.667 166.166 153 230.499
s141.333 115.166 231 152.499s184.834 56 285.501 56c170.667 0 322 -51.333 454 -154l-72 -106c-123.333 90.667 -250.666 136 -381.999 136zM810.999 1845l292 -332h-138l-202 228l-202 -228h-138l292 332h96z" />
    <glyph glyph-name="gcircumflex" unicode="&#x11d;" horiz-adv-x="1282" 
d="M994 3v152.994c-47.333 -57.333 -104.166 -101.666 -170.499 -132.999s-138.166 -47 -215.499 -47c-100 0 -190.833 24.833 -272.5 74.5s-145 115.834 -190 198.501s-67.5 172.334 -67.5 269.001s22.5 186.334 67.5 269.001s108.333 148.834 190 198.501
s172.5 74.5 272.5 74.5c77.333 0 149.166 -15.667 215.499 -47s123.166 -75.666 170.499 -132.999v156h136v-1025c0 -143.333 -44.667 -258.333 -134 -345s-211.666 -130 -366.999 -130c-93.333 0 -178.833 18.333 -256.5 55s-144.5 86.667 -200.5 150l90 90
c102 -118 224 -177 366 -177c109.333 0 197.666 31.667 264.999 95s101 148 101 254zM628 97.9941c79.333 0 151.5 20.498 216.5 61.498s114.833 95.5 149.5 163.5v388c-34.667 68.667 -84.5 123.667 -149.5 165s-137.167 62 -216.5 62c-76 0 -145.833 -19 -209.5 -57
s-113.334 -89.167 -149.001 -153.5s-53.5 -134.166 -53.5 -209.499s17.833 -145.166 53.5 -209.499s85.334 -115.5 149.001 -153.5s133.5 -57 209.5 -57zM672 1520.99l292 -332h-138l-202 228l-202 -228h-138l292 332h96z" />
    <glyph glyph-name="Gbreve" unicode="&#x11e;" horiz-adv-x="1430" 
d="M809 1300c-107.333 0 -205.834 -26.6631 -295.501 -79.9961s-160.167 -125.833 -211.5 -217.5s-77 -192.5 -77 -302.5s25.667 -210.833 77 -302.5s121.833 -164.167 211.5 -217.5s188.167 -80 295.5 -80c62.667 0 124 10.333 184 31s113.333 49 160 85v381h-426v122h566
v-564c-63.333 -56 -136.5 -99.833 -219.5 -131.5s-171.167 -47.5 -264.5 -47.5c-100.667 0 -195.834 18.667 -285.501 56s-166.667 88.166 -231 152.499s-115.333 141.166 -153 230.499s-56.5 184.333 -56.5 285s18.833 195.667 56.5 285s88.667 166.166 153 230.499
s141.333 115.166 231 152.499s184.834 56 285.501 56c170.667 0 322 -51.333 454 -154l-72 -106c-123.333 90.667 -250.666 136 -381.999 136zM762.999 1493c-86 0 -158.5 28.667 -217.5 86s-90.833 130 -95.5 218h124c2.66699 -57.333 21 -105 55 -143s78.667 -57 134 -57
s100 19 134 57s52.333 85.667 55 143h124c-4.66699 -88 -36.5 -160.667 -95.5 -218s-131.5 -86 -217.5 -86z" />
    <glyph glyph-name="gbreve" unicode="&#x11f;" horiz-adv-x="1282" 
d="M994 3v152.994c-47.333 -57.333 -104.166 -101.666 -170.499 -132.999s-138.166 -47 -215.499 -47c-100 0 -190.833 24.833 -272.5 74.5s-145 115.834 -190 198.501s-67.5 172.334 -67.5 269.001s22.5 186.334 67.5 269.001s108.333 148.834 190 198.501
s172.5 74.5 272.5 74.5c77.333 0 149.166 -15.667 215.499 -47s123.166 -75.666 170.499 -132.999v156h136v-1025c0 -143.333 -44.667 -258.333 -134 -345s-211.666 -130 -366.999 -130c-93.333 0 -178.833 18.333 -256.5 55s-144.5 86.667 -200.5 150l90 90
c102 -118 224 -177 366 -177c109.333 0 197.666 31.667 264.999 95s101 148 101 254zM628 97.9941c79.333 0 151.5 20.498 216.5 61.498s114.833 95.5 149.5 163.5v388c-34.667 68.667 -84.5 123.667 -149.5 165s-137.167 62 -216.5 62c-76 0 -145.833 -19 -209.5 -57
s-113.334 -89.167 -149.001 -153.5s-53.5 -134.166 -53.5 -209.499s17.833 -145.166 53.5 -209.499s85.334 -115.5 149.001 -153.5s133.5 -57 209.5 -57zM619 1168.99c-86 0 -158.5 28.667 -217.5 86s-90.833 130 -95.5 218h124c2.66699 -57.333 21 -105 55 -143
s78.667 -57 134 -57s100 19 134 57s52.333 85.667 55 143h124c-4.66699 -88 -36.5 -160.667 -95.5 -218s-131.5 -86 -217.5 -86z" />
    <glyph glyph-name="Gdotaccent" unicode="&#x120;" horiz-adv-x="1430" 
d="M809 1300c-107.333 0 -205.834 -26.6631 -295.501 -79.9961s-160.167 -125.833 -211.5 -217.5s-77 -192.5 -77 -302.5s25.667 -210.833 77 -302.5s121.833 -164.167 211.5 -217.5s188.167 -80 295.5 -80c62.667 0 124 10.333 184 31s113.333 49 160 85v381h-426v122h566
v-564c-63.333 -56 -136.5 -99.833 -219.5 -131.5s-171.167 -47.5 -264.5 -47.5c-100.667 0 -195.834 18.667 -285.501 56s-166.667 88.166 -231 152.499s-115.333 141.166 -153 230.499s-56.5 184.333 -56.5 285s18.833 195.667 56.5 285s88.667 166.166 153 230.499
s141.333 115.166 231 152.499s184.834 56 285.501 56c170.667 0 322 -51.333 454 -154l-72 -106c-123.333 90.667 -250.666 136 -381.999 136zM667.999 1664c0 26.667 9 49 27 67s40.333 27 67 27s49 -9 67 -27s27 -40.333 27 -67s-9 -49 -27 -67s-40.333 -27 -67 -27
s-49 9 -67 27s-27 40.333 -27 67z" />
    <glyph glyph-name="gdotaccent" unicode="&#x121;" horiz-adv-x="1282" 
d="M994 3v152.994c-47.333 -57.333 -104.166 -101.666 -170.499 -132.999s-138.166 -47 -215.499 -47c-100 0 -190.833 24.833 -272.5 74.5s-145 115.834 -190 198.501s-67.5 172.334 -67.5 269.001s22.5 186.334 67.5 269.001s108.333 148.834 190 198.501
s172.5 74.5 272.5 74.5c77.333 0 149.166 -15.667 215.499 -47s123.166 -75.666 170.499 -132.999v156h136v-1025c0 -143.333 -44.667 -258.333 -134 -345s-211.666 -130 -366.999 -130c-93.333 0 -178.833 18.333 -256.5 55s-144.5 86.667 -200.5 150l90 90
c102 -118 224 -177 366 -177c109.333 0 197.666 31.667 264.999 95s101 148 101 254zM628 97.9941c79.333 0 151.5 20.498 216.5 61.498s114.833 95.5 149.5 163.5v388c-34.667 68.667 -84.5 123.667 -149.5 165s-137.167 62 -216.5 62c-76 0 -145.833 -19 -209.5 -57
s-113.334 -89.167 -149.001 -153.5s-53.5 -134.166 -53.5 -209.499s17.833 -145.166 53.5 -209.499s85.334 -115.5 149.001 -153.5s133.5 -57 209.5 -57zM520 1339.99c0 26.667 9 49 27 67s40.333 27 67 27s49 -9 67 -27s27 -40.333 27 -67s-9 -49 -27 -67
s-40.333 -27 -67 -27s-49 9 -67 27s-27 40.333 -27 67z" />
    <glyph glyph-name="Gcommaaccent" unicode="&#x122;" horiz-adv-x="1430" 
d="M809 1300c-107.333 0 -205.834 -26.6631 -295.501 -79.9961s-160.167 -125.833 -211.5 -217.5s-77 -192.5 -77 -302.5s25.667 -210.833 77 -302.5s121.833 -164.167 211.5 -217.5s188.167 -80 295.5 -80c62.667 0 124 10.333 184 31s113.333 49 160 85v381h-426v122h566
v-564c-63.333 -56 -136.5 -99.833 -219.5 -131.5s-171.167 -47.5 -264.5 -47.5c-100.667 0 -195.834 18.667 -285.501 56s-166.667 88.166 -231 152.499s-115.333 141.166 -153 230.499s-56.5 184.333 -56.5 285s18.833 195.667 56.5 285s88.667 166.166 153 230.499
s141.333 115.166 231 152.499s184.834 56 285.501 56c170.667 0 322 -51.333 454 -154l-72 -106c-123.333 90.667 -250.666 136 -381.999 136zM720.999 -469.996h-126l157 342h139z" />
    <glyph glyph-name="gcommaaccent" unicode="&#x123;" horiz-adv-x="1282" 
d="M994 3v152.994c-47.333 -57.333 -104.166 -101.666 -170.499 -132.999s-138.166 -47 -215.499 -47c-100 0 -190.833 24.833 -272.5 74.5s-145 115.834 -190 198.501s-67.5 172.334 -67.5 269.001s22.5 186.334 67.5 269.001s108.333 148.834 190 198.501
s172.5 74.5 272.5 74.5c77.333 0 149.166 -15.667 215.499 -47s123.166 -75.666 170.499 -132.999v156h136v-1025c0 -143.333 -44.667 -258.333 -134 -345s-211.666 -130 -366.999 -130c-93.333 0 -178.833 18.333 -256.5 55s-144.5 86.667 -200.5 150l90 90
c102 -118 224 -177 366 -177c109.333 0 197.666 31.667 264.999 95s101 148 101 254zM628 97.9941c79.333 0 151.5 20.498 216.5 61.498s114.833 95.5 149.5 163.5v388c-34.667 68.667 -84.5 123.667 -149.5 165s-137.167 62 -216.5 62c-76 0 -145.833 -19 -209.5 -57
s-113.334 -89.167 -149.001 -153.5s-53.5 -134.166 -53.5 -209.499s17.833 -145.166 53.5 -209.499s85.334 -115.5 149.001 -153.5s133.5 -57 209.5 -57zM701 1513.99h126l-157 -342h-139z" />
    <glyph glyph-name="Hcircumflex" unicode="&#x124;" horiz-adv-x="1380" 
d="M176 0v1400h140v-635h748v635h140v-1400h-140v643h-748v-643h-140zM738 1845l292 -332h-138l-202 228l-202 -228h-138l292 332h96z" />
    <glyph glyph-name="hcircumflex" unicode="&#x125;" horiz-adv-x="1195" 
d="M288 687v-686.999h-136v1460h136v-621c42 63.333 93.333 116 154 158s130.334 63 209.001 63c119.333 0 217.666 -39 294.999 -117s116 -177 116 -297v-646h-136v638c0 85.333 -28.167 156.666 -84.5 213.999s-127.833 86 -214.5 86c-71.333 0 -135.5 -23.667 -192.5 -71
s-105.833 -107.333 -146.5 -180zM268 1905l292 -332h-138l-202 228l-202 -228h-138l292 332h96z" />
    <glyph glyph-name="Hbar" unicode="&#x126;" horiz-adv-x="1406" 
d="M189 0v1065h-130v106h130v229h140v-229h748v229h140v-229h130v-106h-130v-1065h-140v643h-748v-643h-140zM329 765h748v300h-748v-300z" />
    <glyph glyph-name="hbar" unicode="&#x127;" horiz-adv-x="1238" 
d="M35 1186v100.001h160v174h136v-174h369v-100h-369v-347c42 63.333 93.333 116 154 158s130.334 63 209.001 63c119.333 0 217.666 -39 294.999 -117s116 -177 116 -297v-646h-136v638c0 85.333 -28.167 156.666 -84.5 213.999s-127.833 86 -214.5 86
c-71.333 0 -135.5 -23.667 -192.5 -71s-105.833 -107.333 -146.5 -180v-687h-136v1186h-160z" />
    <glyph glyph-name="Itilde" unicode="&#x128;" horiz-adv-x="564" 
d="M212 1400h140v-1400h-140v1400zM135 1781c54 0 108 -25.333 162 -76l41.5 -38c9 -8 20.5 -15.667 34.5 -23s27.667 -11 41 -11c40.667 0 69 40.667 85 122l113 -22c-28.667 -138.667 -89.667 -208 -183 -208c-54 0 -108 25.333 -162 76l-41.5 38
c-9 8 -20.5 15.667 -34.5 23s-27.667 11 -41 11c-40.667 0 -69 -40.667 -85 -122l-113 22c28.667 138.667 89.667 208 183 208z" />
    <glyph glyph-name="itilde" unicode="&#x129;" horiz-adv-x="516" 
d="M190 0v1036h136v-1036h-136zM112 1457c54 0 108 -25.333 162 -76l41.5 -38c9 -8 20.5 -15.667 34.5 -23s27.667 -11 41 -11c40.667 0 69 40.667 85 122l113 -22c-28.667 -138.667 -89.667 -208 -183 -208c-54 0 -108 25.333 -162 76l-41.5 38c-9 8 -20.5 15.667 -34.5 23
s-27.667 11 -41 11c-40.667 0 -69 -40.667 -85 -122l-113 22c28.667 138.667 89.667 208 183 208z" />
    <glyph glyph-name="Imacron" unicode="&#x12a;" horiz-adv-x="564" 
d="M212 1400h140v-1400h-140v1400zM2 1605v108h560v-108h-560z" />
    <glyph glyph-name="imacron" unicode="&#x12b;" horiz-adv-x="516" 
d="M190 0v1036h136v-1036h-136zM-22 1281v108h560v-108h-560z" />
    <glyph glyph-name="Ibreve" unicode="&#x12c;" horiz-adv-x="564" 
d="M212 1400h140v-1400h-140v1400zM282 1493c-86 0 -158.5 28.667 -217.5 86s-90.833 130 -95.5 218h124c2.66699 -57.333 21 -105 55 -143s78.667 -57 134 -57s100 19 134 57s52.333 85.667 55 143h124c-4.66699 -88 -36.5 -160.667 -95.5 -218s-131.5 -86 -217.5 -86z" />
    <glyph glyph-name="ibreve" unicode="&#x12d;" horiz-adv-x="516" 
d="M190 0v1036h136v-1036h-136zM258 1169c-86 0 -158.5 28.667 -217.5 86s-90.833 130 -95.5 218h124c2.66699 -57.333 21 -105 55 -143s78.667 -57 134 -57s100 19 134 57s52.333 85.667 55 143h124c-4.66699 -88 -36.5 -160.667 -95.5 -218s-131.5 -86 -217.5 -86z" />
    <glyph glyph-name="Iogonek" unicode="&#x12e;" horiz-adv-x="564" 
d="M245 0l-33.002 -0.000976562v1400h140v-1400c-60.667 -50 -106 -93.333 -136 -130s-45 -74.667 -45 -114c0 -35.333 11.667 -64.666 35 -87.999s52 -35 86 -35c38.667 0 73.334 11 104.001 33l32 -78c-44.667 -30.667 -96.667 -46 -156 -46
s-109.166 19.167 -149.499 57.5s-60.5 85.833 -60.5 142.5c0 86 61 172 183 258z" />
    <glyph glyph-name="iogonek" unicode="&#x12f;" horiz-adv-x="516" 
d="M190 0l-0.00195312 1036h136v-1036c-60.667 -50 -106 -93.333 -136 -130s-45 -74.667 -45 -114c0 -35.333 11.667 -64.666 35 -87.999s52 -35 86 -35c38.667 0 73.334 11 104.001 33l32 -78c-44.667 -30.667 -96.667 -46 -156 -46s-109.166 19.167 -149.499 57.5
s-60.5 85.833 -60.5 142.5c0 86 61 172 183 258h-29zM160.998 1333c0 27.333 9.33301 50.333 28 69s41.667 28 69 28s50.333 -9.33301 69 -28s28 -41.667 28 -69s-9.33301 -50.333 -28 -69s-41.667 -28 -69 -28s-50.333 9.33301 -69 28s-28 41.667 -28 69z" />
    <glyph glyph-name="Idotaccent" unicode="&#x130;" horiz-adv-x="564" 
d="M212 1400h140v-1400h-140v1400zM188 1664c0 26.667 9 49 27 67s40.333 27 67 27s49 -9 67 -27s27 -40.333 27 -67s-9 -49 -27 -67s-40.333 -27 -67 -27s-49 9 -67 27s-27 40.333 -27 67z" />
    <glyph glyph-name="dotlessi" unicode="&#x131;" horiz-adv-x="516" 
d="M190 0v1036h136v-1036h-136z" />
    <glyph glyph-name="IJ" unicode="&#x132;" horiz-adv-x="1440" 
d="M212 1400h140v-1400h-140v1400zM1139 417v983h140v-983c0 -148 -34.5 -258.5 -103.5 -331.5s-168.833 -109.5 -299.5 -109.5c-47.333 0 -96 6.16699 -146 18.5s-93.333 28.833 -130 49.5l46 120c31.333 -18.667 68 -34 110 -46s80.667 -18 116 -18
c86 0 152 26.167 198 78.5s69 131.833 69 238.5z" />
    <glyph glyph-name="ij" unicode="&#x133;" horiz-adv-x="1033" 
d="M190 0v1036h136v-1036h-136zM161 1333c0 27.333 9.33301 50.333 28 69s41.667 28 69 28s50.333 -9.33301 69 -28s28 -41.667 28 -69s-9.33301 -50.333 -28 -69s-41.667 -28 -69 -28s-50.333 9.33301 -69 28s-28 41.667 -28 69zM678 1333c0 27.333 9.33301 50.333 28 69
s41.667 28 69 28s50.333 -9.33301 69 -28s28 -41.667 28 -69s-9.33301 -50.333 -28 -69s-41.667 -28 -69 -28s-50.333 9.33301 -69 28s-28 41.667 -28 69zM707 -166l-0.00195312 1202h136v-1200c0 -200 -92 -300 -276 -300c-21.333 0 -46.666 1.33301 -75.999 4v118
c22.667 -1.33301 43.334 -2 62.001 -2c102.667 0 154 59.333 154 178z" />
    <glyph glyph-name="Jcircumflex" unicode="&#x134;" horiz-adv-x="896" 
d="M595 417v983h140v-983c0 -148 -34.5 -258.5 -103.5 -331.5s-168.833 -109.5 -299.5 -109.5c-47.333 0 -96 6.16699 -146 18.5s-93.333 28.833 -130 49.5l46 120c31.333 -18.667 68 -34 110 -46s80.667 -18 116 -18c86 0 152 26.167 198 78.5s69 131.833 69 238.5z
M712 1845l292 -332h-138l-202 228l-202 -228h-138l292 332h96z" />
    <glyph glyph-name="jcircumflex" unicode="&#x135;" horiz-adv-x="516" 
d="M190 -166v1202h136v-1200c0 -200 -92 -300 -276 -300c-26.667 0 -52 1.33301 -76 4v118c13.333 -1.33301 34 -2 62 -2c102.667 0 154 59.333 154 178zM306 1521l292 -332h-138l-202 228l-202 -228h-138l292 332h96z" />
    <glyph glyph-name="Kcommaaccent" unicode="&#x136;" horiz-adv-x="1187" 
d="M316 1400v-635h156l458 635h162l-500 -694l580 -706h-166l-530 643h-160v-643h-140v1400h140zM548 -470h-126l157 342h139z" />
    <glyph glyph-name="kcommaaccent" unicode="&#x137;" horiz-adv-x="1018" 
d="M842 0l-396 517h-158v-517h-136v1460h136v-825h160l336 401h164l-386 -460l440 -576h-160zM442 -470h-126l157 342h139z" />
    <glyph glyph-name="kgreenlandic" unicode="&#x138;" horiz-adv-x="1018" 
d="M842 0l-396 507h-158v-507h-136v1036h136v-411h160l336 411h164l-386 -470l440 -566h-160z" />
    <glyph glyph-name="Lacute" unicode="&#x139;" horiz-adv-x="1030" 
d="M176 0v1400h140v-1278h660v-122h-800zM176 1513l277 332h143l-281 -332h-139z" />
    <glyph glyph-name="lacute" unicode="&#x13a;" horiz-adv-x="516" 
d="M190 0v1460h136v-1460h-136zM123 1573l277 332h143l-281 -332h-139z" />
    <glyph glyph-name="Lcommaaccent" unicode="&#x13b;" horiz-adv-x="1030" 
d="M176 0v1400h140v-1278h660v-122h-800zM503 -470h-126l157 342h139z" />
    <glyph glyph-name="lcommaaccent" unicode="&#x13c;" horiz-adv-x="516" 
d="M190 0v1460h136v-1460h-136zM179 -470h-126l157 342h139z" />
    <glyph glyph-name="Lcaron" unicode="&#x13d;" horiz-adv-x="1030" 
d="M176 0v1400h140v-1278h660v-122h-800zM634 1325c0 28 9.5 51.5 28.5 70.5s42.5 28.5 70.5 28.5s51.5 -9.5 70.5 -28.5s28.5 -42.5 28.5 -70.5c0 -14 -3.33301 -28.667 -10 -44l-119 -267h-94l95 216c-20.667 6 -37.5 17.5 -50.5 34.5s-19.5 37.167 -19.5 60.5z" />
    <glyph glyph-name="lcaron" unicode="&#x13e;" horiz-adv-x="778" 
d="M190 0v1460h136v-1460h-136zM524 1385c0 28 9.5 51.5 28.5 70.5s42.5 28.5 70.5 28.5s51.5 -9.5 70.5 -28.5s28.5 -42.5 28.5 -70.5c0 -14 -3.33301 -28.667 -10 -44l-119 -267h-94l95 216c-20.667 6 -37.5 17.5 -50.5 34.5s-19.5 37.167 -19.5 60.5z" />
    <glyph glyph-name="Ldot" unicode="&#x13f;" horiz-adv-x="1030" 
d="M176 0v1400h140v-1278h660v-122h-800zM622 752c0 26.667 9 49 27 67s40.333 27 67 27s49 -9 67 -27s27 -40.333 27 -67s-9 -49 -27 -67s-40.333 -27 -67 -27s-49 9 -67 27s-27 40.333 -27 67z" />
    <glyph glyph-name="ldot" unicode="&#x140;" horiz-adv-x="779" 
d="M190 0v1460h136v-1460h-136zM535 752c0 26.667 9 49 27 67s40.333 27 67 27s49 -9 67 -27s27 -40.333 27 -67s-9 -49 -27 -67s-40.333 -27 -67 -27s-49 9 -67 27s-27 40.333 -27 67z" />
    <glyph glyph-name="Lslash" unicode="&#x141;" horiz-adv-x="1063" 
d="M349 1400v-637l404 208v-118l-404 -208v-523h660v-122h-800v573l-150 -77v118l150 77v709h140z" />
    <glyph glyph-name="lslash" unicode="&#x142;" horiz-adv-x="586" 
d="M361 1460v-610l191 97v-111l-191 -97v-739h-136v671l-191 -96v111l191 96v678h136z" />
    <glyph glyph-name="Nacute" unicode="&#x143;" horiz-adv-x="1390" 
d="M176 0v1400h134l768 -1156v1156h136v-1400h-134l-768 1156v-1156h-136zM564 1513l277 332h143l-281 -332h-139z" />
    <glyph glyph-name="nacute" unicode="&#x144;" horiz-adv-x="1195" 
d="M288 687v-686.999h-136v1036h136v-197c42 63.333 93.333 116 154 158s130.334 63 209.001 63c119.333 0 217.666 -39 294.999 -117s116 -177 116 -297v-646h-136v638c0 85.333 -28.167 156.666 -84.5 213.999s-127.833 86 -214.5 86c-71.333 0 -135.5 -23.667 -192.5 -71
s-105.833 -107.333 -146.5 -180zM477 1189l277 332h143l-281 -332h-139z" />
    <glyph glyph-name="Ncommaaccent" unicode="&#x145;" horiz-adv-x="1390" 
d="M176 0v1400h134l768 -1156v1156h136v-1400h-134l-768 1156v-1156h-136zM628 -470h-126l157 342h139z" />
    <glyph glyph-name="ncommaaccent" unicode="&#x146;" horiz-adv-x="1195" 
d="M288 687v-686.999h-136v1036h136v-197c42 63.333 93.333 116 154 158s130.334 63 209.001 63c119.333 0 217.666 -39 294.999 -117s116 -177 116 -297v-646h-136v638c0 85.333 -28.167 156.666 -84.5 213.999s-127.833 86 -214.5 86c-71.333 0 -135.5 -23.667 -192.5 -71
s-105.833 -107.333 -146.5 -180zM536 -469.999h-126l157 342h139z" />
    <glyph glyph-name="Ncaron" unicode="&#x147;" horiz-adv-x="1390" 
d="M176 0v1400h134l768 -1156v1156h136v-1400h-134l-768 1156v-1156h-136zM1034 1845l-292 -332h-96l-292 332h138l202 -228l202 228h138z" />
    <glyph glyph-name="ncaron" unicode="&#x148;" horiz-adv-x="1195" 
d="M288 687v-686.999h-136v1036h136v-197c42 63.333 93.333 116 154 158s130.334 63 209.001 63c119.333 0 217.666 -39 294.999 -117s116 -177 116 -297v-646h-136v638c0 85.333 -28.167 156.666 -84.5 213.999s-127.833 86 -214.5 86c-71.333 0 -135.5 -23.667 -192.5 -71
s-105.833 -107.333 -146.5 -180zM930 1501l-292 -332h-96l-292 332h138l202 -228l202 228h138z" />
    <glyph glyph-name="napostrophe" unicode="&#x149;" horiz-adv-x="1383" 
d="M476 687v-686.999h-136v1036h136v-197c42 63.333 93.333 116 154 158s130.334 63 209.001 63c119.333 0 217.666 -39 294.999 -117s116 -177 116 -297v-646h-136v638c0 85.333 -28.167 156.666 -84.5 213.999s-127.833 86 -214.5 86c-71.333 0 -135.5 -23.667 -192.5 -71
s-105.833 -107.333 -146.5 -180zM81 1385c0 28 9.5 51.5 28.5 70.5s42.5 28.5 70.5 28.5s51.5 -9.5 70.5 -28.5s28.5 -42.5 28.5 -70.5c0 -14 -3.33301 -28.667 -10 -44l-119 -267h-94l95 216c-20.667 6 -37.5 17.5 -50.5 34.5s-19.5 37.167 -19.5 60.5z" />
    <glyph glyph-name="Eng" unicode="&#x14a;" horiz-adv-x="1390" 
d="M1214 1400v-1508c0 -115.333 -30.667 -203.5 -92 -264.5s-150.333 -91.5 -267 -91.5c-35.333 0 -66.333 2.66699 -93 8v118c26 -4 56.667 -6 92 -6c78 0 134.833 20 170.5 60s53.5 99.333 53.5 178v109l-766 1153v-1156h-136v1400h134l768 -1156v1156h136z" />
    <glyph glyph-name="eng" unicode="&#x14b;" horiz-adv-x="1195" 
d="M926 -106v744.001c0 85.333 -28.167 156.666 -84.5 213.999s-127.833 86 -214.5 86c-71.333 0 -135.5 -23.667 -192.5 -71s-105.833 -107.333 -146.5 -180v-687h-136v1036h136v-197c42 63.333 93.333 116 154 158s130.334 63 209.001 63
c119.333 0 217.666 -39 294.999 -117s116 -177 116 -297v-754c0 -237.333 -116.667 -356 -350 -356c-33.333 0 -67.333 2.66699 -102 8v118c26 -4 56.667 -6 92 -6c78 0 134.833 20 170.5 60s53.5 99.333 53.5 178z" />
    <glyph glyph-name="Omacron" unicode="&#x14c;" horiz-adv-x="1618" 
d="M809 100c107.333 0 205.833 26.667 295.5 80s160.167 125.833 211.5 217.5s77 192.5 77 302.5s-25.667 210.833 -77 302.5s-121.833 164.167 -211.5 217.5s-188.167 80 -295.5 80s-205.833 -26.667 -295.5 -80s-160.167 -125.833 -211.5 -217.5s-77 -192.5 -77 -302.5
s25.667 -210.833 77 -302.5s121.833 -164.167 211.5 -217.5s188.167 -80 295.5 -80zM809 1424c100.667 0 195.834 -18.667 285.501 -56s166.667 -88.166 231 -152.499s115.333 -141.166 153 -230.499s56.5 -184.333 56.5 -285s-18.833 -195.667 -56.5 -285
s-88.667 -166.166 -153 -230.499s-141.333 -115.166 -231 -152.499s-184.834 -56 -285.501 -56s-195.834 18.667 -285.501 56s-166.667 88.166 -231 152.499s-115.333 141.166 -153 230.499s-56.5 184.333 -56.5 285s18.833 195.667 56.5 285s88.667 166.166 153 230.499
s141.333 115.166 231 152.499s184.834 56 285.501 56zM529 1605v108h560v-108h-560z" />
    <glyph glyph-name="omacron" unicode="&#x14d;" horiz-adv-x="1256" 
d="M628 98c76 0 145.833 19 209.5 57s113.334 89.167 149.001 153.5s53.5 134.166 53.5 209.499s-17.833 145.166 -53.5 209.499s-85.334 115.5 -149.001 153.5s-133.5 57 -209.5 57s-145.833 -19 -209.5 -57s-113.334 -89.167 -149.001 -153.5
s-53.5 -134.166 -53.5 -209.499s17.833 -145.166 53.5 -209.499s85.334 -115.5 149.001 -153.5s133.5 -57 209.5 -57zM628 1060c103.333 0 197.333 -24.5 282 -73.5s150.5 -114.833 197.5 -197.5s70.5 -173 70.5 -271s-23.5 -188.333 -70.5 -271
s-112.833 -148.5 -197.5 -197.5s-178.667 -73.5 -282 -73.5s-197.333 24.5 -282 73.5s-150.5 114.833 -197.5 197.5s-70.5 173 -70.5 271s23.5 188.333 70.5 271s112.833 148.5 197.5 197.5s178.667 73.5 282 73.5zM348 1281v108h560v-108h-560z" />
    <glyph glyph-name="Obreve" unicode="&#x14e;" horiz-adv-x="1618" 
d="M809 100c107.333 0 205.833 26.667 295.5 80s160.167 125.833 211.5 217.5s77 192.5 77 302.5s-25.667 210.833 -77 302.5s-121.833 164.167 -211.5 217.5s-188.167 80 -295.5 80s-205.833 -26.667 -295.5 -80s-160.167 -125.833 -211.5 -217.5s-77 -192.5 -77 -302.5
s25.667 -210.833 77 -302.5s121.833 -164.167 211.5 -217.5s188.167 -80 295.5 -80zM809 1424c100.667 0 195.834 -18.667 285.501 -56s166.667 -88.166 231 -152.499s115.333 -141.166 153 -230.499s56.5 -184.333 56.5 -285s-18.833 -195.667 -56.5 -285
s-88.667 -166.166 -153 -230.499s-141.333 -115.166 -231 -152.499s-184.834 -56 -285.501 -56s-195.834 18.667 -285.501 56s-166.667 88.166 -231 152.499s-115.333 141.166 -153 230.499s-56.5 184.333 -56.5 285s18.833 195.667 56.5 285s88.667 166.166 153 230.499
s141.333 115.166 231 152.499s184.834 56 285.501 56zM809 1493c-86 0 -158.5 28.667 -217.5 86s-90.833 130 -95.5 218h124c2.66699 -57.333 21 -105 55 -143s78.667 -57 134 -57s100 19 134 57s52.333 85.667 55 143h124c-4.66699 -88 -36.5 -160.667 -95.5 -218
s-131.5 -86 -217.5 -86z" />
    <glyph glyph-name="obreve" unicode="&#x14f;" horiz-adv-x="1256" 
d="M628 98c76 0 145.833 19 209.5 57s113.334 89.167 149.001 153.5s53.5 134.166 53.5 209.499s-17.833 145.166 -53.5 209.499s-85.334 115.5 -149.001 153.5s-133.5 57 -209.5 57s-145.833 -19 -209.5 -57s-113.334 -89.167 -149.001 -153.5
s-53.5 -134.166 -53.5 -209.499s17.833 -145.166 53.5 -209.499s85.334 -115.5 149.001 -153.5s133.5 -57 209.5 -57zM628 1060c103.333 0 197.333 -24.5 282 -73.5s150.5 -114.833 197.5 -197.5s70.5 -173 70.5 -271s-23.5 -188.333 -70.5 -271
s-112.833 -148.5 -197.5 -197.5s-178.667 -73.5 -282 -73.5s-197.333 24.5 -282 73.5s-150.5 114.833 -197.5 197.5s-70.5 173 -70.5 271s23.5 188.333 70.5 271s112.833 148.5 197.5 197.5s178.667 73.5 282 73.5zM628 1169c-86 0 -158.5 28.667 -217.5 86
s-90.833 130 -95.5 218h124c2.66699 -57.333 21 -105 55 -143s78.667 -57 134 -57s100 19 134 57s52.333 85.667 55 143h124c-4.66699 -88 -36.5 -160.667 -95.5 -218s-131.5 -86 -217.5 -86z" />
    <glyph glyph-name="Ohungarumlaut" unicode="&#x150;" horiz-adv-x="1618" 
d="M809 100c107.333 0 205.833 26.667 295.5 80s160.167 125.833 211.5 217.5s77 192.5 77 302.5s-25.667 210.833 -77 302.5s-121.833 164.167 -211.5 217.5s-188.167 80 -295.5 80s-205.833 -26.667 -295.5 -80s-160.167 -125.833 -211.5 -217.5s-77 -192.5 -77 -302.5
s25.667 -210.833 77 -302.5s121.833 -164.167 211.5 -217.5s188.167 -80 295.5 -80zM809 1424c100.667 0 195.834 -18.667 285.501 -56s166.667 -88.166 231 -152.499s115.333 -141.166 153 -230.499s56.5 -184.333 56.5 -285s-18.833 -195.667 -56.5 -285
s-88.667 -166.166 -153 -230.499s-141.333 -115.166 -231 -152.499s-184.834 -56 -285.501 -56s-195.834 18.667 -285.501 56s-166.667 88.166 -231 152.499s-115.333 141.166 -153 230.499s-56.5 184.333 -56.5 285s18.833 195.667 56.5 285s88.667 166.166 153 230.499
s141.333 115.166 231 152.499s184.834 56 285.501 56zM548 1513l277 332h143l-281 -332h-139zM851 1513l277 332h143l-281 -332h-139z" />
    <glyph glyph-name="ohungarumlaut" unicode="&#x151;" horiz-adv-x="1256" 
d="M628 98c76 0 145.833 19 209.5 57s113.334 89.167 149.001 153.5s53.5 134.166 53.5 209.499s-17.833 145.166 -53.5 209.499s-85.334 115.5 -149.001 153.5s-133.5 57 -209.5 57s-145.833 -19 -209.5 -57s-113.334 -89.167 -149.001 -153.5
s-53.5 -134.166 -53.5 -209.499s17.833 -145.166 53.5 -209.499s85.334 -115.5 149.001 -153.5s133.5 -57 209.5 -57zM628 1060c103.333 0 197.333 -24.5 282 -73.5s150.5 -114.833 197.5 -197.5s70.5 -173 70.5 -271s-23.5 -188.333 -70.5 -271
s-112.833 -148.5 -197.5 -197.5s-178.667 -73.5 -282 -73.5s-197.333 24.5 -282 73.5s-150.5 114.833 -197.5 197.5s-70.5 173 -70.5 271s23.5 188.333 70.5 271s112.833 148.5 197.5 197.5s178.667 73.5 282 73.5zM359 1189l277 332h143l-281 -332h-139zM662 1189l277 332
h143l-281 -332h-139z" />
    <glyph glyph-name="OE" unicode="&#x152;" horiz-adv-x="1786" 
d="M847 124h12v1152h-12c-86 0 -167.333 -14.833 -244 -44.5s-142.667 -70 -198 -121s-99.166 -112.167 -131.499 -183.5s-48.5 -147 -48.5 -227s16.167 -155.667 48.5 -227s76.166 -132.5 131.499 -183.5s121.333 -91.333 198 -121s158 -44.5 244 -44.5zM1664 0
l-817 0.00390625c-140.667 0 -269.334 30.667 -386.001 92s-208.834 145.666 -276.501 252.999s-101.5 225.666 -101.5 354.999s33.833 247.666 101.5 354.999s159.834 191.666 276.501 252.999s245.334 92 386.001 92h799v-122h-647v-513h594v-122h-594v-521h665v-122z" />
    <glyph glyph-name="oe" unicode="&#x153;" horiz-adv-x="2123" 
d="M612 1060c102.667 0 195.835 -27.999 279.502 -83.999s145.5 -129.667 185.5 -221c39.333 90 100.166 163.333 182.499 220s174.833 85 277.5 85c146.667 0 268 -50 364 -150s144 -222 144 -366c0 -22.667 -2.33301 -44.667 -7 -66h-891
c7.33301 -108 48.5 -199 123.5 -273s167.5 -111 277.5 -111c130 0 241.667 54.667 335 164l94 -87c-52 -62 -114.667 -110 -188 -144s-152.666 -51 -237.999 -51c-108.667 0 -205.334 28 -290.001 84s-146.334 129 -185.001 219
c-40 -90.667 -101.667 -163.834 -185 -219.501s-176.333 -83.5 -279 -83.5c-150.667 0 -277.334 52.5 -380.001 157.5s-154 233.167 -154 384.5s51.333 279.5 154 384.5s229.334 157.5 380.001 157.5zM612.001 98.001c110.667 0 204.334 40.667 281.001 122
s115 180.666 115 297.999s-38.333 216.666 -115 297.999s-170.334 122 -281.001 122s-204.334 -40.667 -281.001 -122s-115 -180.666 -115 -297.999s38.333 -216.666 115 -297.999s170.334 -122 281.001 -122zM1537 942.001c-96.667 0 -181.333 -33.667 -254 -101
s-116 -150.333 -130 -249h750c-11.333 102 -50.833 185.833 -118.5 251.5s-150.167 98.5 -247.5 98.5z" />
    <glyph glyph-name="Racute" unicode="&#x154;" horiz-adv-x="1187" 
d="M554 548l-237.999 -0.000976562v-548h-140v1400h423c145.333 0 261.333 -38.667 348 -116s130 -180.666 130 -309.999c0 -112 -33.333 -205 -100 -279s-157.334 -120 -272.001 -138l395 -557h-156zM935.001 973.999c0 92.667 -30.667 166.5 -92 221.5
s-144.333 82.5 -249 82.5h-278v-608h278c104.667 0 187.667 27.5 249 82.5s92 128.833 92 221.5zM444.001 1513l277 332h143l-281 -332h-139z" />
    <glyph glyph-name="racute" unicode="&#x155;" horiz-adv-x="775" 
d="M611 938c-60 0 -118.668 -25.667 -176.001 -77s-106.333 -116.333 -147 -195v-666h-136v1036h136v-208c44.667 66.667 95.834 122 153.501 166s119.834 66 186.501 66c35.333 0 68.666 -6.66699 99.999 -20l-12 -122c-34.667 13.333 -69.667 20 -105 20zM247.999 1189
l277 332h143l-281 -332h-139z" />
    <glyph glyph-name="Rcommaaccent" unicode="&#x156;" horiz-adv-x="1187" 
d="M554 548l-237.999 -0.000976562v-548h-140v1400h423c145.333 0 261.333 -38.667 348 -116s130 -180.666 130 -309.999c0 -112 -33.333 -205 -100 -279s-157.334 -120 -272.001 -138l395 -557h-156zM935.001 973.999c0 92.667 -30.667 166.5 -92 221.5
s-144.333 82.5 -249 82.5h-278v-608h278c104.667 0 187.667 27.5 249 82.5s92 128.833 92 221.5zM518.001 -470.001h-126l157 342h139z" />
    <glyph glyph-name="rcommaaccent" unicode="&#x157;" horiz-adv-x="775" 
d="M611 938c-60 0 -118.668 -25.667 -176.001 -77s-106.333 -116.333 -147 -195v-666h-136v1036h136v-208c44.667 66.667 95.834 122 153.501 166s119.834 66 186.501 66c35.333 0 68.666 -6.66699 99.999 -20l-12 -122c-34.667 13.333 -69.667 20 -105 20zM140.999 -470
h-126l157 342h139z" />
    <glyph glyph-name="Rcaron" unicode="&#x158;" horiz-adv-x="1187" 
d="M554 548l-237.999 -0.000976562v-548h-140v1400h423c145.333 0 261.333 -38.667 348 -116s130 -180.666 130 -309.999c0 -112 -33.333 -205 -100 -279s-157.334 -120 -272.001 -138l395 -557h-156zM935.001 973.999c0 92.667 -30.667 166.5 -92 221.5
s-144.333 82.5 -249 82.5h-278v-608h278c104.667 0 187.667 27.5 249 82.5s92 128.833 92 221.5zM897.001 1845l-292 -332h-96l-292 332h138l202 -228l202 228h138z" />
    <glyph glyph-name="rcaron" unicode="&#x159;" horiz-adv-x="775" 
d="M611 938c-60 0 -118.668 -25.667 -176.001 -77s-106.333 -116.333 -147 -195v-666h-136v1036h136v-208c44.667 66.667 95.834 122 153.501 166s119.834 66 186.501 66c35.333 0 68.666 -6.66699 99.999 -20l-12 -122c-34.667 13.333 -69.667 20 -105 20zM724.999 1501
l-292 -332h-96l-292 332h138l202 -228l202 228h138z" />
    <glyph glyph-name="Sacute" unicode="&#x15a;" horiz-adv-x="1164" 
d="M111 200l90.0029 97.001c48.667 -58 106.667 -105.333 174 -142s137.333 -55 210 -55c101.333 0 184.333 24.333 249 73s97 111.667 97 189c0 151.333 -120 252 -360 302c-140.667 29.333 -247.834 77.5 -321.501 144.5s-110.5 149.167 -110.5 246.5
c0 108 40.167 196.5 120.5 265.5s184.166 103.5 311.499 103.5c166.667 0 309.334 -59.333 428.001 -178l-84 -101c-106.667 103.333 -218.667 155 -336 155c-88 0 -159.667 -22.167 -215 -66.5s-83 -100.5 -83 -168.5c0 -138.667 115.667 -233.334 347 -284.001
c152.667 -34 265 -85.5 337 -154.5s108 -156.5 108 -262.5c0 -113.333 -44.167 -206.333 -132.5 -279s-204.5 -109 -348.5 -109c-94.667 0 -184.834 20.5 -270.501 61.5s-155.834 95.167 -210.501 162.5zM450.003 1513l277 332h143l-281 -332h-139z" />
    <glyph glyph-name="sacute" unicode="&#x15b;" horiz-adv-x="923" 
d="M77 148l76.9961 94.002c36.667 -45.333 81.834 -81.333 135.501 -108s111.5 -40 173.5 -40c74.667 0 134.334 16.667 179.001 50s67 77.333 67 132c0 103.333 -87.333 171.666 -262 204.999c-111.333 21.333 -195.166 57.333 -251.499 108s-84.5 114 -84.5 190
c0 80 32.333 146.833 97 200.5s148.667 80.5 252 80.5c131.333 0 244 -45.333 338 -136l-74 -94c-81.333 74.667 -166.333 112 -255 112c-63.333 0 -116.166 -15.833 -158.499 -47.5s-63.5 -70.834 -63.5 -117.501c0 -43.333 20.833 -81.333 62.5 -114
s102.167 -56.667 181.5 -72c236 -46 354 -151.667 354 -317c0 -87.333 -33.5 -158.833 -100.5 -214.5s-158.167 -83.5 -273.5 -83.5c-82 0 -157 15.333 -225 46s-124.333 72.667 -169 126zM311.996 1189l277 332h143l-281 -332h-139z" />
    <glyph glyph-name="Scircumflex" unicode="&#x15c;" horiz-adv-x="1164" 
d="M111 200l90.0029 97.001c48.667 -58 106.667 -105.333 174 -142s137.333 -55 210 -55c101.333 0 184.333 24.333 249 73s97 111.667 97 189c0 151.333 -120 252 -360 302c-140.667 29.333 -247.834 77.5 -321.501 144.5s-110.5 149.167 -110.5 246.5
c0 108 40.167 196.5 120.5 265.5s184.166 103.5 311.499 103.5c166.667 0 309.334 -59.333 428.001 -178l-84 -101c-106.667 103.333 -218.667 155 -336 155c-88 0 -159.667 -22.167 -215 -66.5s-83 -100.5 -83 -168.5c0 -138.667 115.667 -233.334 347 -284.001
c152.667 -34 265 -85.5 337 -154.5s108 -156.5 108 -262.5c0 -113.333 -44.167 -206.333 -132.5 -279s-204.5 -109 -348.5 -109c-94.667 0 -184.834 20.5 -270.501 61.5s-155.834 95.167 -210.501 162.5zM619.003 1845l292 -332h-138l-202 228l-202 -228h-138l292 332h96z
" />
    <glyph glyph-name="scircumflex" unicode="&#x15d;" horiz-adv-x="923" 
d="M77 148l76.9961 94.002c36.667 -45.333 81.834 -81.333 135.501 -108s111.5 -40 173.5 -40c74.667 0 134.334 16.667 179.001 50s67 77.333 67 132c0 103.333 -87.333 171.666 -262 204.999c-111.333 21.333 -195.166 57.333 -251.499 108s-84.5 114 -84.5 190
c0 80 32.333 146.833 97 200.5s148.667 80.5 252 80.5c131.333 0 244 -45.333 338 -136l-74 -94c-81.333 74.667 -166.333 112 -255 112c-63.333 0 -116.166 -15.833 -158.499 -47.5s-63.5 -70.834 -63.5 -117.501c0 -43.333 20.833 -81.333 62.5 -114
s102.167 -56.667 181.5 -72c236 -46 354 -151.667 354 -317c0 -87.333 -33.5 -158.833 -100.5 -214.5s-158.167 -83.5 -273.5 -83.5c-82 0 -157 15.333 -225 46s-124.333 72.667 -169 126zM495.996 1521l292 -332h-138l-202 228l-202 -228h-138l292 332h96z" />
    <glyph glyph-name="Scedilla" unicode="&#x15e;" horiz-adv-x="1164" 
d="M551 -201c-20.667 0 -39.333 -1.66699 -56 -5l-26 30l86 153c-88.667 5.33301 -172.167 28 -250.5 68s-142.833 91.667 -193.5 155l90 97c48.667 -58 106.667 -105.333 174 -142s137.333 -55 210 -55c101.333 0 184.333 24.333 249 73s97 111.667 97 189
c0 151.333 -120 252 -360 302c-140.667 29.333 -247.834 77.5 -321.501 144.5s-110.5 149.167 -110.5 246.5c0 108 40.167 196.5 120.5 265.5s184.166 103.5 311.499 103.5c166.667 0 309.334 -59.333 428.001 -178l-84 -101c-106.667 103.333 -218.667 155 -336 155
c-88 0 -159.667 -22.167 -215 -66.5s-83 -100.5 -83 -168.5c0 -138.667 115.667 -233.334 347 -284.001c152.667 -34 265 -85.5 337 -154.5s108 -156.5 108 -262.5c0 -103.333 -37 -190.166 -111 -260.499s-173.333 -111.5 -298 -123.5l-65 -106
c60 -6.66699 108.333 -28.334 145 -65.001s55 -79.667 55 -129c0 -56.667 -23.167 -104.167 -69.5 -142.5s-103.833 -57.5 -172.5 -57.5c-67.333 0 -124.666 19 -171.999 57l49 72c30.667 -27.333 69.667 -41 117 -41c40 0 73.167 11 99.5 33s39.5 49 39.5 81
c0 32.667 -13.167 60.334 -39.5 83.001s-59.5 34 -99.5 34z" />
    <glyph glyph-name="scedilla" unicode="&#x15f;" horiz-adv-x="923" 
d="M423 -201c-20.667 0 -39.3369 -1.66406 -56.0039 -4.99707l-26 30l86 154c-72.667 4.66699 -139 22 -199 52s-110.333 69.333 -151 118l77 94c36.667 -45.333 81.834 -81.333 135.501 -108s111.5 -40 173.5 -40c74.667 0 134.334 16.667 179.001 50s67 77.333 67 132
c0 103.333 -87.333 171.666 -262 204.999c-111.333 21.333 -195.166 57.333 -251.499 108s-84.5 114 -84.5 190c0 80 32.333 146.833 97 200.5s148.667 80.5 252 80.5c131.333 0 244 -45.333 338 -136l-74 -94c-81.333 74.667 -166.333 112 -255 112
c-63.333 0 -116.166 -15.833 -158.499 -47.5s-63.5 -70.834 -63.5 -117.501c0 -43.333 20.833 -81.333 62.5 -114s102.167 -56.667 181.5 -72c236 -46 354 -151.667 354 -317c0 -78.667 -27.333 -144.834 -82 -198.501s-130.334 -85.5 -227.001 -95.5l-65 -106
c60 -6.66699 108.333 -28.334 145 -65.001s55 -79.667 55 -129c0 -56.667 -23.167 -104.167 -69.5 -142.5s-103.833 -57.5 -172.5 -57.5c-67.333 0 -124.666 19 -171.999 57l49 72c30.667 -27.333 69.667 -41 117 -41c40 0 73.167 11 99.5 33s39.5 49 39.5 81
c0 32.667 -13.167 60.334 -39.5 83.001s-59.5 34 -99.5 34z" />
    <glyph glyph-name="Scaron" unicode="&#x160;" horiz-adv-x="1164" 
d="M111 200l90.0029 97.001c48.667 -58 106.667 -105.333 174 -142s137.333 -55 210 -55c101.333 0 184.333 24.333 249 73s97 111.667 97 189c0 151.333 -120 252 -360 302c-140.667 29.333 -247.834 77.5 -321.501 144.5s-110.5 149.167 -110.5 246.5
c0 108 40.167 196.5 120.5 265.5s184.166 103.5 311.499 103.5c166.667 0 309.334 -59.333 428.001 -178l-84 -101c-106.667 103.333 -218.667 155 -336 155c-88 0 -159.667 -22.167 -215 -66.5s-83 -100.5 -83 -168.5c0 -138.667 115.667 -233.334 347 -284.001
c152.667 -34 265 -85.5 337 -154.5s108 -156.5 108 -262.5c0 -113.333 -44.167 -206.333 -132.5 -279s-204.5 -109 -348.5 -109c-94.667 0 -184.834 20.5 -270.501 61.5s-155.834 95.167 -210.501 162.5zM911.003 1845l-292 -332h-96l-292 332h138l202 -228l202 228h138z
" />
    <glyph glyph-name="scaron" unicode="&#x161;" horiz-adv-x="923" 
d="M77 148l76.9961 94.002c36.667 -45.333 81.834 -81.333 135.501 -108s111.5 -40 173.5 -40c74.667 0 134.334 16.667 179.001 50s67 77.333 67 132c0 103.333 -87.333 171.666 -262 204.999c-111.333 21.333 -195.166 57.333 -251.499 108s-84.5 114 -84.5 190
c0 80 32.333 146.833 97 200.5s148.667 80.5 252 80.5c131.333 0 244 -45.333 338 -136l-74 -94c-81.333 74.667 -166.333 112 -255 112c-63.333 0 -116.166 -15.833 -158.499 -47.5s-63.5 -70.834 -63.5 -117.501c0 -43.333 20.833 -81.333 62.5 -114
s102.167 -56.667 181.5 -72c236 -46 354 -151.667 354 -317c0 -87.333 -33.5 -158.833 -100.5 -214.5s-158.167 -83.5 -273.5 -83.5c-82 0 -157 15.333 -225 46s-124.333 72.667 -169 126zM791.996 1501l-292 -332h-96l-292 332h138l202 -228l202 228h138z" />
    <glyph glyph-name="Tcommaaccent" unicode="&#x162;" horiz-adv-x="1086" 
d="M473 0v1278h-409v122h958v-122h-409v-1278l-78 -126c60 -6.66699 108.333 -28.334 145 -65.001s55 -79.667 55 -129c0 -56.667 -23.167 -104.167 -69.5 -142.5s-103.833 -57.5 -172.5 -57.5c-67.333 0 -124.666 19 -171.999 57l49 72c30.667 -27.333 69.667 -41 117 -41
c40 0 73.167 11 99.5 33s39.5 49 39.5 81c0 32.667 -13.167 60.334 -39.5 83.001s-59.5 34 -99.5 34c-20.667 0 -39.334 -1.66699 -56.001 -5l-26 30l99 176h-31z" />
    <glyph glyph-name="tcommaaccent" unicode="&#x163;" horiz-adv-x="755" 
d="M363 -201c-20.667 0 -39.334 -1.66504 -56.001 -4.99805l-26 30l109 195c-94 51.333 -141 150.666 -141 297.999v599h-202v120h202v288l136 12v-300h304v-120h-304v-598c0 -74.667 17.5 -130.334 52.5 -167.001s90.833 -55 167.5 -55c36.667 0 68.667 2 96 6v-118
c-30.667 -5.33301 -66 -8 -106 -8c-40.667 0 -78.667 3.66699 -114 11l-70 -113c60 -6.66699 108.333 -28.334 145 -65.001s55 -79.667 55 -129c0 -56.667 -23.167 -104.167 -69.5 -142.5s-103.833 -57.5 -172.5 -57.5c-67.333 0 -124.666 19 -171.999 57l49 72
c30.667 -27.333 69.667 -41 117 -41c40 0 73.167 11 99.5 33s39.5 49 39.5 81c0 32.667 -13.167 60.334 -39.5 83.001s-59.5 34 -99.5 34z" />
    <glyph glyph-name="Tcaron" unicode="&#x164;" horiz-adv-x="1086" 
d="M473 0v1278h-409v122h958v-122h-409v-1278h-140zM882 1845l-292 -332h-96l-292 332h138l202 -228l202 228h138z" />
    <glyph glyph-name="tcaron" unicode="&#x165;" horiz-adv-x="1047" 
d="M385 916v-597.999c0 -74.667 17.5 -130.334 52.5 -167.001s90.833 -55 167.5 -55c36.667 0 68.667 2 96 6v-118c-30.667 -5.33301 -66 -8 -106 -8c-117.333 0 -204.333 28.167 -261 84.5s-85 141.833 -85 256.5v599h-202v120h202v288l136 12v-300h304v-120h-304z
M793 1385c0 28 9.5 51.5 28.5 70.5s42.5 28.5 70.5 28.5s51.5 -9.5 70.5 -28.5s28.5 -42.5 28.5 -70.5c0 -14 -3.33301 -28.667 -10 -44l-119 -267h-94l95 216c-20.667 6 -37.5 17.5 -50.5 34.5s-19.5 37.167 -19.5 60.5z" />
    <glyph glyph-name="Tbar" unicode="&#x166;" horiz-adv-x="1086" 
d="M473 0v645h-280v110h280v523h-409v122h958v-122h-409v-523h280v-110h-280v-645h-140z" />
    <glyph glyph-name="tbar" unicode="&#x167;" horiz-adv-x="755" 
d="M385 916v-329.999h259v-100h-259v-168c0 -74.667 17.5 -130.334 52.5 -167.001s90.833 -55 167.5 -55c36.667 0 68.667 2 96 6v-118c-30.667 -5.33301 -66 -8 -106 -8c-117.333 0 -204.333 28.167 -261 84.5s-85 141.833 -85 256.5v169h-175v100h175v330h-202v120h202
v288l136 12v-300h304v-120h-304z" />
    <glyph glyph-name="Utilde" unicode="&#x168;" horiz-adv-x="1318" 
d="M1157 1400l0.00195312 -918c0 -150 -46.833 -271.5 -140.5 -364.5s-212.834 -139.5 -357.501 -139.5s-263.834 46.5 -357.501 139.5s-140.5 214.5 -140.5 364.5v918h140v-932c0 -108 33.667 -196 101 -264s153 -102 257 -102s189.667 34 257 102s101 156 101 264v932h140
zM512.002 1781c54 0 108 -25.333 162 -76l41.5 -38c9 -8 20.5 -15.667 34.5 -23s27.667 -11 41 -11c40.667 0 69 40.667 85 122l113 -22c-28.667 -138.667 -89.667 -208 -183 -208c-54 0 -108 25.333 -162 76l-41.5 38c-9 8 -20.5 15.667 -34.5 23s-27.667 11 -41 11
c-40.667 0 -69 -40.667 -85 -122l-113 22c28.667 138.667 89.667 208 183 208z" />
    <glyph glyph-name="utilde" unicode="&#x169;" horiz-adv-x="1195" 
d="M907 349v686.999h136v-1036h-136v197c-42 -63.333 -93.333 -116 -154 -158s-130.334 -63 -209.001 -63c-119.333 0 -217.666 39 -294.999 117s-116 177 -116 297v646h136v-638c0 -85.333 28.167 -156.666 84.5 -213.999s127.833 -86 214.5 -86
c71.333 0 135.5 23.667 192.5 71s105.833 107.333 146.5 180zM441 1457c54 0 108 -25.333 162 -76l41.5 -38c9 -8 20.5 -15.667 34.5 -23s27.667 -11 41 -11c40.667 0 69 40.667 85 122l113 -22c-28.667 -138.667 -89.667 -208 -183 -208c-54 0 -108 25.333 -162 76
l-41.5 38c-9 8 -20.5 15.667 -34.5 23s-27.667 11 -41 11c-40.667 0 -69 -40.667 -85 -122l-113 22c28.667 138.667 89.667 208 183 208z" />
    <glyph glyph-name="Umacron" unicode="&#x16a;" horiz-adv-x="1318" 
d="M1157 1400l0.00195312 -918c0 -150 -46.833 -271.5 -140.5 -364.5s-212.834 -139.5 -357.501 -139.5s-263.834 46.5 -357.501 139.5s-140.5 214.5 -140.5 364.5v918h140v-932c0 -108 33.667 -196 101 -264s153 -102 257 -102s189.667 34 257 102s101 156 101 264v932h140
zM379.002 1605v108h560v-108h-560z" />
    <glyph glyph-name="umacron" unicode="&#x16b;" horiz-adv-x="1195" 
d="M907 349v686.999h136v-1036h-136v197c-42 -63.333 -93.333 -116 -154 -158s-130.334 -63 -209.001 -63c-119.333 0 -217.666 39 -294.999 117s-116 177 -116 297v646h136v-638c0 -85.333 28.167 -156.666 84.5 -213.999s127.833 -86 214.5 -86
c71.333 0 135.5 23.667 192.5 71s105.833 107.333 146.5 180zM308 1281v108h560v-108h-560z" />
    <glyph glyph-name="Ubreve" unicode="&#x16c;" horiz-adv-x="1318" 
d="M1157 1400l0.00195312 -918c0 -150 -46.833 -271.5 -140.5 -364.5s-212.834 -139.5 -357.501 -139.5s-263.834 46.5 -357.501 139.5s-140.5 214.5 -140.5 364.5v918h140v-932c0 -108 33.667 -196 101 -264s153 -102 257 -102s189.667 34 257 102s101 156 101 264v932h140
zM659.002 1493c-86 0 -158.5 28.667 -217.5 86s-90.833 130 -95.5 218h124c2.66699 -57.333 21 -105 55 -143s78.667 -57 134 -57s100 19 134 57s52.333 85.667 55 143h124c-4.66699 -88 -36.5 -160.667 -95.5 -218s-131.5 -86 -217.5 -86z" />
    <glyph glyph-name="ubreve" unicode="&#x16d;" horiz-adv-x="1195" 
d="M907 349v686.999h136v-1036h-136v197c-42 -63.333 -93.333 -116 -154 -158s-130.334 -63 -209.001 -63c-119.333 0 -217.666 39 -294.999 117s-116 177 -116 297v646h136v-638c0 -85.333 28.167 -156.666 84.5 -213.999s127.833 -86 214.5 -86
c71.333 0 135.5 23.667 192.5 71s105.833 107.333 146.5 180zM588 1169c-86 0 -158.5 28.667 -217.5 86s-90.833 130 -95.5 218h124c2.66699 -57.333 21 -105 55 -143s78.667 -57 134 -57s100 19 134 57s52.333 85.667 55 143h124c-4.66699 -88 -36.5 -160.667 -95.5 -218
s-131.5 -86 -217.5 -86z" />
    <glyph glyph-name="Uring" unicode="&#x16e;" horiz-adv-x="1318" 
d="M1157 1400l0.00195312 -918c0 -150 -46.833 -271.5 -140.5 -364.5s-212.834 -139.5 -357.501 -139.5s-263.834 46.5 -357.501 139.5s-140.5 214.5 -140.5 364.5v918h140v-932c0 -108 33.667 -196 101 -264s153 -102 257 -102s189.667 34 257 102s101 156 101 264v932h140
zM549.002 1686c0 -30.667 10.5 -56.5 31.5 -77.5s47.167 -31.5 78.5 -31.5s57.5 10.5 78.5 31.5s31.5 46.833 31.5 77.5s-10.5 56.5 -31.5 77.5s-47.167 31.5 -78.5 31.5s-57.5 -10.5 -78.5 -31.5s-31.5 -46.833 -31.5 -77.5zM455.002 1686c0 54.667 19.667 100.5 59 137.5
s87.666 55.5 144.999 55.5s105.666 -18.5 144.999 -55.5s59 -82.833 59 -137.5s-19.667 -100.5 -59 -137.5s-87.666 -55.5 -144.999 -55.5s-105.666 18.5 -144.999 55.5s-59 82.833 -59 137.5z" />
    <glyph glyph-name="uring" unicode="&#x16f;" horiz-adv-x="1195" 
d="M907 349v686.999h136v-1036h-136v197c-42 -63.333 -93.333 -116 -154 -158s-130.334 -63 -209.001 -63c-119.333 0 -217.666 39 -294.999 117s-116 177 -116 297v646h136v-638c0 -85.333 28.167 -156.666 84.5 -213.999s127.833 -86 214.5 -86
c71.333 0 135.5 23.667 192.5 71s105.833 107.333 146.5 180zM478 1362c0 -30.667 10.5 -56.5 31.5 -77.5s47.167 -31.5 78.5 -31.5s57.5 10.5 78.5 31.5s31.5 46.833 31.5 77.5s-10.5 56.5 -31.5 77.5s-47.167 31.5 -78.5 31.5s-57.5 -10.5 -78.5 -31.5
s-31.5 -46.833 -31.5 -77.5zM384 1362c0 54.667 19.667 100.5 59 137.5s87.666 55.5 144.999 55.5s105.666 -18.5 144.999 -55.5s59 -82.833 59 -137.5s-19.667 -100.5 -59 -137.5s-87.666 -55.5 -144.999 -55.5s-105.666 18.5 -144.999 55.5s-59 82.833 -59 137.5z" />
    <glyph glyph-name="Uhungarumlaut" unicode="&#x170;" horiz-adv-x="1318" 
d="M1157 1400l0.00195312 -918c0 -150 -46.833 -271.5 -140.5 -364.5s-212.834 -139.5 -357.501 -139.5s-263.834 46.5 -357.501 139.5s-140.5 214.5 -140.5 364.5v918h140v-932c0 -108 33.667 -196 101 -264s153 -102 257 -102s189.667 34 257 102s101 156 101 264v932h140
zM399.002 1513l277 332h143l-281 -332h-139zM702.002 1513l277 332h143l-281 -332h-139z" />
    <glyph glyph-name="uhungarumlaut" unicode="&#x171;" horiz-adv-x="1195" 
d="M907 349v686.999h136v-1036h-136v197c-42 -63.333 -93.333 -116 -154 -158s-130.334 -63 -209.001 -63c-119.333 0 -217.666 39 -294.999 117s-116 177 -116 297v646h136v-638c0 -85.333 28.167 -156.666 84.5 -213.999s127.833 -86 214.5 -86
c71.333 0 135.5 23.667 192.5 71s105.833 107.333 146.5 180zM316 1189l277 332h143l-281 -332h-139zM619 1189l277 332h143l-281 -332h-139z" />
    <glyph glyph-name="Uogonek" unicode="&#x172;" horiz-adv-x="1318" 
d="M1157 1400l-0.00292969 -918.002c0 -134 -37.833 -245.667 -113.5 -335s-174.5 -143.333 -296.5 -162c-53.333 -44.667 -93.666 -84.667 -120.999 -120s-41 -71.666 -41 -108.999c0 -35.333 11.667 -64.666 35 -87.999s52 -35 86 -35c38.667 0 73.334 11 104.001 33
l32 -78c-44.667 -30.667 -96.667 -46 -156 -46s-109.166 19.167 -149.499 57.5s-60.5 85.833 -60.5 142.5c0 80 51.333 159 154 237c-137.333 6.66699 -249.833 56 -337.5 148s-131.5 210.333 -131.5 355v918h140v-932c0 -108 33.667 -196 101 -264s153 -102 257 -102
s189.667 34 257 102s101 156 101 264v932h140z" />
    <glyph glyph-name="uogonek" unicode="&#x173;" horiz-adv-x="1195" 
d="M936 0l-29.002 -0.00195312v197c-42 -63.333 -93.333 -116 -154 -158s-130.334 -63 -209.001 -63c-119.333 0 -217.666 39 -294.999 117s-116 177 -116 297v646h136v-638c0 -85.333 28.167 -156.666 84.5 -213.999s127.833 -86 214.5 -86c71.333 0 135.5 23.667 192.5 71
s105.833 107.333 146.5 180v687h136v-1036c-60.667 -50 -106 -93.333 -136 -130s-45 -74.667 -45 -114c0 -35.333 11.667 -64.666 35 -87.999s52 -35 86 -35c38.667 0 73.334 11 104.001 33l32 -78c-44.667 -30.667 -96.667 -46 -156 -46s-109.166 19.167 -149.499 57.5
s-60.5 85.833 -60.5 142.5c0 86 61 172 183 258z" />
    <glyph glyph-name="Wcircumflex" unicode="&#x174;" horiz-adv-x="1908" 
d="M882 1400h144l346 -1196l334 1196h148l-406 -1400h-144l-350 1207l-350 -1207h-144l-406 1400h148l334 -1196zM1002 1845l292 -332h-138l-202 228l-202 -228h-138l292 332h96z" />
    <glyph glyph-name="wcircumflex" unicode="&#x175;" horiz-adv-x="1544" 
d="M702 1036h140l257 -846l267 846h144l-340 -1036h-140l-258 849l-258 -849h-140l-340 1036h144l267 -846zM820 1521l292 -332h-138l-202 228l-202 -228h-138l292 332h96z" />
    <glyph glyph-name="Ycircumflex" unicode="&#x176;" horiz-adv-x="1280" 
d="M208 1400l432 -688l432 688h154l-516 -826v-574h-140v574l-516 826h154zM688 1845l292 -332h-138l-202 228l-202 -228h-138l292 332h96z" />
    <glyph glyph-name="ycircumflex" unicode="&#x177;" horiz-adv-x="1044" 
d="M263 -464l191 473l-420 1027h144l346 -853l342 853h144l-603 -1500h-144zM572 1521l292 -332h-138l-202 228l-202 -228h-138l292 332h96z" />
    <glyph glyph-name="Ydieresis" unicode="&#x178;" horiz-adv-x="1280" 
d="M208 1400l432 -688l432 688h154l-516 -826v-574h-140v574l-516 826h154zM372 1664c0 26.667 9 49 27 67s40.333 27 67 27s49 -9 67 -27s27 -40.333 27 -67s-9 -49 -27 -67s-40.333 -27 -67 -27s-49 9 -67 27s-27 40.333 -27 67zM720 1664c0 26.667 9 49 27 67
s40.333 27 67 27s49 -9 67 -27s27 -40.333 27 -67s-9 -49 -27 -67s-40.333 -27 -67 -27s-49 9 -67 27s-27 40.333 -27 67z" />
    <glyph glyph-name="Zacute" unicode="&#x179;" horiz-adv-x="1189" 
d="M122 122l768 1156h-738v122h904v-122l-768 -1156h788v-122h-954v122zM448 1513l277 332h143l-281 -332h-139z" />
    <glyph glyph-name="zacute" unicode="&#x17a;" horiz-adv-x="1002" 
d="M101 0v120l611 796h-585v120h750v-120l-611 -796h631v-120h-796zM349 1189l277 332h143l-281 -332h-139z" />
    <glyph glyph-name="Zdotaccent" unicode="&#x17b;" horiz-adv-x="1189" 
d="M122 122l768 1156h-738v122h904v-122l-768 -1156h788v-122h-954v122zM504 1664c0 26.667 9 49 27 67s40.333 27 67 27s49 -9 67 -27s27 -40.333 27 -67s-9 -49 -27 -67s-40.333 -27 -67 -27s-49 9 -67 27s-27 40.333 -27 67z" />
    <glyph glyph-name="zdotaccent" unicode="&#x17c;" horiz-adv-x="1002" 
d="M101 0v120l611 796h-585v120h750v-120l-611 -796h631v-120h-796zM410 1340c0 26.667 9 49 27 67s40.333 27 67 27s49 -9 67 -27s27 -40.333 27 -67s-9 -49 -27 -67s-40.333 -27 -67 -27s-49 9 -67 27s-27 40.333 -27 67z" />
    <glyph glyph-name="Zcaron" unicode="&#x17d;" horiz-adv-x="1189" 
d="M122 122l768 1156h-738v122h904v-122l-768 -1156h788v-122h-954v122zM940 1845l-292 -332h-96l-292 332h138l202 -228l202 228h138z" />
    <glyph glyph-name="zcaron" unicode="&#x17e;" horiz-adv-x="1002" 
d="M101 0v120l611 796h-585v120h750v-120l-611 -796h631v-120h-796zM838 1501l-292 -332h-96l-292 332h138l202 -228l202 228h138z" />
    <glyph glyph-name="longs" unicode="&#x17f;" horiz-adv-x="740" 
d="M693 1452v-118c-23.333 4 -54 6 -92 6c-78 0 -134.833 -20 -170.5 -60s-53.5 -99.333 -53.5 -178v-1102h-136v916h-194v120h194v68c0 237.333 116.667 356 350 356c36 0 70 -2.66699 102 -8z" />
    <glyph glyph-name="uni0191" unicode="&#x191;" horiz-adv-x="1042" 
d="M176 -106v1506h782v-122h-642v-512h589v-122h-589v-752c0 -116.667 -28.833 -205.167 -86.5 -265.5s-144.167 -90.5 -259.5 -90.5c-32 0 -65.333 2.66699 -100 8v118c22.667 -4 52 -6 88 -6c145.333 0 218 79.333 218 238z" />
    <glyph glyph-name="florin" unicode="&#x192;" horiz-adv-x="740" 
d="M377 916v-1024c0 -237.333 -116.667 -356 -350 -356c-36 0 -70 2.66699 -102 8v118c23.333 -4 54 -6 92 -6c78 0 134.833 20 170.5 60s53.5 99.333 53.5 178v1022h-194v120h194v68c0 237.333 116.667 356 350 356c36 0 70 -2.66699 102 -8v-118c-23.333 4 -54 6 -92 6
c-78 0 -134.833 -20 -170.5 -60s-53.5 -99.333 -53.5 -178v-66h316v-120h-316z" />
    <glyph glyph-name="Aringacute" unicode="&#x1fa;" horiz-adv-x="1348" 
d="M480 1492c0 50 18.498 91.833 55.498 125.5s83.167 50.5 138.5 50.5s101.5 -16.833 138.5 -50.5s55.5 -75.5 55.5 -125.5c0 -33.333 -8.66699 -63.5 -26 -90.5s-40.666 -48.167 -69.999 -63.5l520 -1338h-154l-144 385h-640l-144 -385h-154l520 1338
c-29.333 15.333 -52.666 36.5 -69.999 63.5s-26 57.167 -26 90.5zM950.998 507l-277 736l-277 -736h554zM725.998 1708h-137l201 242h141zM573.998 1492c0 -26.667 9.5 -48.667 28.5 -66s42.833 -26 71.5 -26s52.5 8.66699 71.5 26s28.5 39.333 28.5 66
s-9.5 48.667 -28.5 66s-42.833 26 -71.5 26s-52.5 -8.66699 -71.5 -26s-28.5 -39.333 -28.5 -66z" />
    <glyph glyph-name="aringacute" unicode="&#x1fb;" horiz-adv-x="1282" 
d="M521 1330c0 -30.667 10.667 -56.5 32 -77.5s47.333 -31.5 78 -31.5c31.333 0 57.5 10.5 78.5 31.5s31.5 46.833 31.5 77.5s-10.5 56.5 -31.5 77.5s-47.167 31.5 -78.5 31.5c-30.667 0 -56.667 -10.5 -78 -31.5s-32 -46.833 -32 -77.5zM427 1330
c0 54.667 19.667 100.5 59 137.5s87.666 55.5 144.999 55.5s105.666 -18.5 144.999 -55.5s59 -82.833 59 -137.5s-19.667 -100.5 -59 -137.5s-87.666 -55.5 -144.999 -55.5s-105.666 18.5 -144.999 55.5s-59 82.833 -59 137.5zM628 98c79.333 0 151.5 20.498 216.5 61.498
s114.833 95.5 149.5 163.5v388c-34.667 68.667 -84.5 123.667 -149.5 165s-137.167 62 -216.5 62c-76 0 -145.833 -19 -209.5 -57s-113.334 -89.167 -149.001 -153.5s-53.5 -134.166 -53.5 -209.499s17.833 -145.166 53.5 -209.499s85.334 -115.5 149.001 -153.5
s133.5 -57 209.5 -57zM608 1060c77.333 0 149.166 -15.6729 215.499 -47.0059s123.166 -75.666 170.499 -132.999v156h136v-1036h-136v156c-47.333 -57.333 -104.166 -101.666 -170.499 -132.999s-138.166 -47 -215.499 -47c-100 0 -190.833 24.833 -272.5 74.5
s-145 115.834 -190 198.501s-67.5 172.334 -67.5 269.001s22.5 186.334 67.5 269.001s108.333 148.834 190 198.501s172.5 74.5 272.5 74.5zM678 1567.99h-137l218 262h141z" />
    <glyph glyph-name="AEacute" unicode="&#x1fc;" horiz-adv-x="1843" 
d="M197 0h-161l817 1400h850v-122h-647v-513h594v-122h-594v-521h665v-122h-805v385h-497zM488 507h428v738zM810 1513l277 332h143l-281 -332h-139z" />
    <glyph glyph-name="aeacute" unicode="&#x1fd;" horiz-adv-x="2015" 
d="M1040 478c7.33301 -108 48.3291 -199.001 122.996 -273.001s167 -111 277 -111c130 0 241.667 54.667 335 164l94 -87c-52 -62 -114.667 -110 -188 -144s-152.666 -51 -237.999 -51c-99.333 0 -188.833 22.833 -268.5 68.5s-141.167 106.834 -184.5 183.501
c-45.333 -78 -106.666 -139.5 -183.999 -184.5s-162.666 -67.5 -255.999 -67.5c-133.333 0 -245.333 32.167 -336 96.5s-136 143.166 -136 236.499c0 90.667 44.667 167.167 134 229.5s198 93.5 326 93.5c66 0 133.5 -10 202.5 -30s126.833 -45.667 173.5 -77
c-0.666992 5.33301 -1 14.333 -1 27c0 8 1.66699 27 5 57c-10 102.667 -49.667 183.834 -119 243.501s-153.333 89.5 -252 89.5c-126.667 0 -239.667 -43 -339 -129l-54 107c116.667 93.333 248.667 140 396 140c98.667 0 187.5 -23.667 266.5 -71s135.5 -113 169.5 -197
c41.333 80.667 101.333 145.5 180 194.5s166.334 73.5 263.001 73.5c146.667 0 268 -50 364 -150s144 -222 144 -366c0 -22.667 -2.33301 -44.667 -7 -66h-890zM555.996 93.999c80.667 0 155.666 21.5 224.999 64.5s122 100.5 158 172.5c-10.667 30 -17.667 59.667 -21 89
c-42.667 33.333 -96.667 59 -162 77s-131 27 -197 27c-98 0 -180 -20.833 -246 -62.5s-99 -92.5 -99 -152.5s32.833 -110.833 98.5 -152.5s146.834 -62.5 243.501 -62.5zM1429 941.999c-96.667 0 -181.167 -33.667 -253.5 -101s-115.833 -150.333 -130.5 -249h750
c-11.333 101.333 -50.833 185 -118.5 251s-150.167 99 -247.5 99zM862.995 1189l277 332h143l-281 -332h-139z" />
    <glyph glyph-name="Oslashacute" unicode="&#x1fe;" horiz-adv-x="1618" 
d="M809 1424c144.667 0 277.333 -38.002 398 -114.002l118 150h134l-168 -214c76.667 -66.667 136.5 -147.167 179.5 -241.5s64.5 -195.833 64.5 -304.5c0 -100.667 -18.833 -195.667 -56.5 -285s-88.667 -166.166 -153 -230.499s-141.333 -115.166 -231 -152.499
s-184.834 -56 -285.501 -56c-155.333 0 -294.333 42 -417 126l-127 -162h-134l179 228c-72 66.667 -127.833 145.834 -167.5 237.501s-59.5 189.834 -59.5 294.501c0 100.667 18.833 195.667 56.5 285s88.667 166.166 153 230.499s141.333 115.166 231 152.499
s184.834 56 285.501 56zM808.999 99.998c107.333 0 205.833 26.667 295.5 80s160.167 125.833 211.5 217.5s77 192.5 77 302.5c0 86 -16.333 167 -49 243s-78 141.667 -136 197l-734 -934c99.333 -70.667 211 -106 335 -106zM224.999 699.998
c0 -82 14.832 -159.667 44.499 -233s71.167 -137.333 124.5 -192l731 931c-95.333 62.667 -200.666 94 -315.999 94c-107.333 0 -205.833 -26.667 -295.5 -80s-160.167 -125.833 -211.5 -217.5s-77 -192.5 -77 -302.5zM685.998 1513l277 332h143l-281 -332h-139z" />
    <glyph glyph-name="oslashacute" unicode="&#x1ff;" horiz-adv-x="1256" 
d="M628 1060c110.667 0 210.999 -28.667 300.999 -86l97 122h129l-147 -183c54 -50.667 95.833 -110.167 125.5 -178.5s44.5 -140.5 44.5 -216.5c0 -98 -23.5 -188.333 -70.5 -271s-112.833 -148.5 -197.5 -197.5s-178.667 -73.5 -282 -73.5
c-111.333 0 -211.666 28.333 -300.999 85l-97 -121h-129l146 183c-53.333 50 -94.833 109.167 -124.5 177.5s-44.5 140.833 -44.5 217.5c0 98 23.5 188.333 70.5 271s112.833 148.5 197.5 197.5s178.667 73.5 282 73.5zM627.999 98c76 0 145.832 19.001 209.499 57.001
s113.334 89.167 149.001 153.5s53.5 134.166 53.5 209.499c0 113.333 -38.333 210.333 -115 291l-518 -647c65.333 -42.667 139 -64 221 -64zM215.998 518.001c0 -113.333 38 -210.668 114 -292.001l518 648c-67.333 42.667 -140.666 64 -219.999 64
c-76 0 -145.833 -19 -209.5 -57s-113.334 -89.167 -149.001 -153.5s-53.5 -134.166 -53.5 -209.499zM499.998 1189l277 332h143l-281 -332h-139z" />
    <glyph glyph-name="Scommaaccent" unicode="&#x218;" horiz-adv-x="1164" 
d="M111 200l90.0029 97.001c48.667 -58 106.667 -105.333 174 -142s137.333 -55 210 -55c101.333 0 184.333 24.333 249 73s97 111.667 97 189c0 151.333 -120 252 -360 302c-140.667 29.333 -247.834 77.5 -321.501 144.5s-110.5 149.167 -110.5 246.5
c0 108 40.167 196.5 120.5 265.5s184.166 103.5 311.499 103.5c166.667 0 309.334 -59.333 428.001 -178l-84 -101c-106.667 103.333 -218.667 155 -336 155c-88 0 -159.667 -22.167 -215 -66.5s-83 -100.5 -83 -168.5c0 -138.667 115.667 -233.334 347 -284.001
c152.667 -34 265 -85.5 337 -154.5s108 -156.5 108 -262.5c0 -113.333 -44.167 -206.333 -132.5 -279s-204.5 -109 -348.5 -109c-94.667 0 -184.834 20.5 -270.501 61.5s-155.834 95.167 -210.501 162.5zM541.003 -469.999h-126l157 342h139z" />
    <glyph glyph-name="scommaaccent" unicode="&#x219;" horiz-adv-x="923" 
d="M77 148l76.9961 94.002c36.667 -45.333 81.834 -81.333 135.501 -108s111.5 -40 173.5 -40c74.667 0 134.334 16.667 179.001 50s67 77.333 67 132c0 103.333 -87.333 171.666 -262 204.999c-111.333 21.333 -195.166 57.333 -251.499 108s-84.5 114 -84.5 190
c0 80 32.333 146.833 97 200.5s148.667 80.5 252 80.5c131.333 0 244 -45.333 338 -136l-74 -94c-81.333 74.667 -166.333 112 -255 112c-63.333 0 -116.166 -15.833 -158.499 -47.5s-63.5 -70.834 -63.5 -117.501c0 -43.333 20.833 -81.333 62.5 -114
s102.167 -56.667 181.5 -72c236 -46 354 -151.667 354 -317c0 -87.333 -33.5 -158.833 -100.5 -214.5s-158.167 -83.5 -273.5 -83.5c-82 0 -157 15.333 -225 46s-124.333 72.667 -169 126zM405.996 -469.998h-126l157 342h139z" />
    <glyph glyph-name="uni021A" unicode="&#x21a;" horiz-adv-x="1086" 
d="M473 0v1278h-409v122h958v-122h-409v-1278h-140zM480 -470h-126l157 342h139z" />
    <glyph glyph-name="uni021B" unicode="&#x21b;" horiz-adv-x="755" 
d="M385 916v-597.999c0 -74.667 17.5 -130.334 52.5 -167.001s90.833 -55 167.5 -55c36.667 0 68.667 2 96 6v-118c-30.667 -5.33301 -66 -8 -106 -8c-117.333 0 -204.333 28.167 -261 84.5s-85 141.833 -85 256.5v599h-202v120h202v288l136 12v-300h304v-120h-304z
M332 -469.999h-126l157 342h139z" />
    <glyph glyph-name="dotlessj" unicode="&#x237;" horiz-adv-x="516" 
d="M190 -166v1202h136v-1200c0 -200 -92 -300 -276 -300c-26.667 0 -52 1.33301 -76 4v118c13.333 -1.33301 34 -2 62 -2c102.667 0 154 59.333 154 178z" />
    <glyph glyph-name="apostrophe" unicode="&#x2bc;" horiz-adv-x="824" 
d="M316 1355c0 28 9.5 51.5 28.5 70.5s42.5 28.5 70.5 28.5s51.5 -9.5 70.5 -28.5s28.5 -42.5 28.5 -70.5c0 -14 -3.33301 -28.667 -10 -44l-119 -267h-94l95 216c-20.667 6 -37.5 17.5 -50.5 34.5s-19.5 37.167 -19.5 60.5z" />
    <glyph glyph-name="circumflex" unicode="&#x2c6;" horiz-adv-x="824" 
d="M460 1455l292 -332h-138l-202 228l-202 -228h-138l292 332h96z" />
    <glyph glyph-name="caron" unicode="&#x2c7;" horiz-adv-x="824" 
d="M752 1455l-292 -332h-96l-292 332h138l202 -228l202 228h138z" />
    <glyph glyph-name="uni02C9" unicode="&#x2c9;" horiz-adv-x="824" 
d="M132 1235v108h560v-108h-560z" />
    <glyph glyph-name="breve" unicode="&#x2d8;" horiz-adv-x="824" 
d="M412 1131c-86 0 -158.5 28.667 -217.5 86s-90.833 130 -95.5 218h124c2.66699 -57.333 21 -105 55 -143s78.667 -57 134 -57s100 19 134 57s52.333 85.667 55 143h124c-4.66699 -88 -36.5 -160.667 -95.5 -218s-131.5 -86 -217.5 -86z" />
    <glyph glyph-name="dotaccent" unicode="&#x2d9;" horiz-adv-x="824" 
d="M318 1292c0 26.667 9 49 27 67s40.333 27 67 27s49 -9 67 -27s27 -40.333 27 -67s-9 -49 -27 -67s-40.333 -27 -67 -27s-49 9 -67 27s-27 40.333 -27 67z" />
    <glyph glyph-name="ring" unicode="&#x2da;" horiz-adv-x="824" 
d="M302 1286c0 -30.667 10.5 -56.5 31.5 -77.5s47.167 -31.5 78.5 -31.5s57.5 10.5 78.5 31.5s31.5 46.833 31.5 77.5s-10.5 56.5 -31.5 77.5s-47.167 31.5 -78.5 31.5s-57.5 -10.5 -78.5 -31.5s-31.5 -46.833 -31.5 -77.5zM208 1286c0 54.667 19.667 100.5 59 137.5
s87.666 55.5 144.999 55.5s105.666 -18.5 144.999 -55.5s59 -82.833 59 -137.5s-19.667 -100.5 -59 -137.5s-87.666 -55.5 -144.999 -55.5s-105.666 18.5 -144.999 55.5s-59 82.833 -59 137.5z" />
    <glyph glyph-name="ogonek" unicode="&#x2db;" horiz-adv-x="824" 
d="M423 0l106.998 -0.000976562c-60.667 -50 -106 -93.333 -136 -130s-45 -74.667 -45 -114c0 -35.333 11.667 -64.666 35 -87.999s52 -35 86 -35c38.667 0 73.334 11 104.001 33l32 -78c-44.667 -30.667 -96.667 -46 -156 -46s-109.166 19.167 -149.499 57.5
s-60.5 85.833 -60.5 142.5c0 86 61 172 183 258z" />
    <glyph glyph-name="tilde" unicode="&#x2dc;" horiz-adv-x="824" 
d="M265 1411c54 0 108 -25.333 162 -76l41.5 -38c9 -8 20.5 -15.667 34.5 -23s27.667 -11 41 -11c40.667 0 69 40.667 85 122l113 -22c-28.667 -138.667 -89.667 -208 -183 -208c-54 0 -108 25.333 -162 76l-41.5 38c-9 8 -20.5 15.667 -34.5 23s-27.667 11 -41 11
c-40.667 0 -69 -40.667 -85 -122l-113 22c28.667 138.667 89.667 208 183 208z" />
    <glyph glyph-name="hungarumlaut" unicode="&#x2dd;" horiz-adv-x="824" 
d="M106 1128l277 332h143l-281 -332h-139zM409 1128l277 332h143l-281 -332h-139z" />
    <glyph glyph-name="gravecomb" unicode="&#x300;" horiz-adv-x="0" 
d="M-539 1460l277 -332h-139l-281 332h143z" />
    <glyph glyph-name="acutecomb" unicode="&#x301;" horiz-adv-x="0" 
d="M-562 1128l277 332h143l-281 -332h-139z" />
    <glyph glyph-name="uni0302" unicode="&#x302;" horiz-adv-x="0" 
d="M-364 1455l292 -332h-138l-202 228l-202 -228h-138l292 332h96z" />
    <glyph glyph-name="tildecomb" unicode="&#x303;" horiz-adv-x="0" 
d="M-559 1411c54 0 108 -25.333 162 -76l41.5 -38c9 -8 20.5 -15.667 34.5 -23s27.667 -11 41 -11c40.667 0 69 40.667 85 122l113 -22c-28.667 -138.667 -89.667 -208 -183 -208c-54 0 -108 25.333 -162 76l-41.5 38c-9 8 -20.5 15.667 -34.5 23s-27.667 11 -41 11
c-40.667 0 -69 -40.667 -85 -122l-113 22c28.667 138.667 89.667 208 183 208z" />
    <glyph glyph-name="uni0304" unicode="&#x304;" horiz-adv-x="0" 
d="M-692 1237v108h560v-108h-560z" />
    <glyph glyph-name="uni0306" unicode="&#x306;" horiz-adv-x="0" 
d="M-412 1131c-86 0 -158.5 28.667 -217.5 86s-90.833 130 -95.5 218h124c2.66699 -57.333 21 -105 55 -143s78.667 -57 134 -57s100 19 134 57s52.333 85.667 55 143h124c-4.66699 -88 -36.5 -160.667 -95.5 -218s-131.5 -86 -217.5 -86z" />
    <glyph glyph-name="uni0307" unicode="&#x307;" horiz-adv-x="0" 
d="M-506 1292c0 26.667 9 49 27 67s40.333 27 67 27s49 -9 67 -27s27 -40.333 27 -67s-9 -49 -27 -67s-40.333 -27 -67 -27s-49 9 -67 27s-27 40.333 -27 67z" />
    <glyph glyph-name="uni0308" unicode="&#x308;" horiz-adv-x="0" 
d="M-680 1292c0 26.667 9 49 27 67s40.333 27 67 27s49 -9 67 -27s27 -40.333 27 -67s-9 -49 -27 -67s-40.333 -27 -67 -27s-49 9 -67 27s-27 40.333 -27 67zM-332 1292c0 26.667 9 49 27 67s40.333 27 67 27s49 -9 67 -27s27 -40.333 27 -67s-9 -49 -27 -67
s-40.333 -27 -67 -27s-49 9 -67 27s-27 40.333 -27 67z" />
    <glyph glyph-name="uni030A" unicode="&#x30a;" horiz-adv-x="0" 
d="M-522 1286c0 -30.667 10.5 -56.5 31.5 -77.5s47.167 -31.5 78.5 -31.5s57.5 10.5 78.5 31.5s31.5 46.833 31.5 77.5s-10.5 56.5 -31.5 77.5s-47.167 31.5 -78.5 31.5s-57.5 -10.5 -78.5 -31.5s-31.5 -46.833 -31.5 -77.5zM-616 1286c0 54.667 19.667 100.5 59 137.5
s87.666 55.5 144.999 55.5s105.666 -18.5 144.999 -55.5s59 -82.833 59 -137.5s-19.667 -100.5 -59 -137.5s-87.666 -55.5 -144.999 -55.5s-105.666 18.5 -144.999 55.5s-59 82.833 -59 137.5z" />
    <glyph glyph-name="uni030C" unicode="&#x30c;" horiz-adv-x="0" 
d="M-72 1455l-292 -332h-96l-292 332h138l202 -228l202 228h138z" />
    <glyph glyph-name="uni0327" unicode="&#x327;" horiz-adv-x="0" 
d="M-453 -201c-20.667 0 -39.334 -1.66699 -56.001 -5l-26 30l99 176h109l-78 -126c60 -6.66699 108.333 -28.334 145 -65.001s55 -79.667 55 -129c0 -56.667 -23.167 -104.167 -69.5 -142.5s-103.833 -57.5 -172.5 -57.5c-67.333 0 -124.666 19 -171.999 57l49 72
c30.667 -27.333 69.667 -41 117 -41c40 0 73.167 11 99.5 33s39.5 49 39.5 81c0 32.667 -13.167 60.334 -39.5 83.001s-59.5 34 -99.5 34z" />
    <glyph glyph-name="tonos" unicode="&#x384;" horiz-adv-x="824" 
d="M275 1088l162 372h139l-176 -372h-125z" />
    <glyph glyph-name="dieresistonos" unicode="&#x385;" horiz-adv-x="824" 
d="M140 1140c0 28 9.33301 51.167 28 69.5s42 27.5 70 27.5s51.333 -9.16699 70 -27.5s28 -41.5 28 -69.5s-9.33301 -51.167 -28 -69.5s-42 -27.5 -70 -27.5s-51.333 9.16699 -70 27.5s-28 41.5 -28 69.5zM488 1140c0 28 9.33301 51.167 28 69.5s42 27.5 70 27.5
s51.333 -9.16699 70 -27.5s28 -41.5 28 -69.5s-9.33301 -51.167 -28 -69.5s-42 -27.5 -70 -27.5s-51.333 9.16699 -70 27.5s-28 41.5 -28 69.5zM460 1314h-137l218 262h141z" />
    <glyph glyph-name="Alphatonos" unicode="&#x386;" horiz-adv-x="1363" 
d="M1307 0h-154l-144 385h-640l-144 -385h-154l541 1400h154zM966 507l-277 736l-277 -736h554zM55 1028l162 372h139l-176 -372h-125z" />
    <glyph glyph-name="anoteleia" unicode="&#x387;" horiz-adv-x="588" 
d="M192 604c0 29.333 9.66699 53.666 29 72.999s43.666 29 72.999 29s53.666 -9.66699 72.999 -29s29 -43.666 29 -72.999s-9.66699 -53.666 -29 -72.999s-43.666 -29 -72.999 -29s-53.666 9.66699 -72.999 29s-29 43.666 -29 72.999z" />
    <glyph glyph-name="Epsilontonos" unicode="&#x388;" horiz-adv-x="1436" 
d="M494 0v1400h802v-122h-662v-513h609v-122h-609v-521h680v-122h-820zM55 1028l162 372h139l-176 -372h-125z" />
    <glyph glyph-name="Etatonos" unicode="&#x389;" horiz-adv-x="1698" 
d="M494 0v1400h140v-635h748v635h140v-1400h-140v643h-748v-643h-140zM55 1028l162 372h139l-176 -372h-125z" />
    <glyph glyph-name="Iotatonos" unicode="&#x38a;" horiz-adv-x="846" 
d="M494 1400h140v-1400h-140v1400zM55 1028l162 372h139l-176 -372h-125z" />
    <glyph glyph-name="Omicrontonos" unicode="&#x38c;" horiz-adv-x="1824" 
d="M1015 100c107.333 0 205.833 26.667 295.5 80s160.167 125.833 211.5 217.5s77 192.5 77 302.5s-25.667 210.833 -77 302.5s-121.833 164.167 -211.5 217.5s-188.167 80 -295.5 80s-205.833 -26.667 -295.5 -80s-160.167 -125.833 -211.5 -217.5s-77 -192.5 -77 -302.5
s25.667 -210.833 77 -302.5s121.833 -164.167 211.5 -217.5s188.167 -80 295.5 -80zM1015 1424c100.667 0 195.834 -18.667 285.501 -56s166.667 -88.166 231 -152.499s115.333 -141.166 153 -230.499s56.5 -184.333 56.5 -285s-18.833 -195.667 -56.5 -285
s-88.667 -166.166 -153 -230.499s-141.333 -115.166 -231 -152.499s-184.834 -56 -285.501 -56s-195.834 18.667 -285.501 56s-166.667 88.166 -231 152.499s-115.333 141.166 -153 230.499s-56.5 184.333 -56.5 285s18.833 195.667 56.5 285s88.667 166.166 153 230.499
s141.333 115.166 231 152.499s184.834 56 285.501 56zM55 1028l162 372h139l-176 -372h-125z" />
    <glyph glyph-name="Upsilontonos" unicode="&#x38e;" horiz-adv-x="1668" 
d="M596 1400l432 -688l432 688h154l-516 -826v-574h-140v574l-516 826h154zM55 1028l162 372h139l-176 -372h-125z" />
    <glyph glyph-name="Omegatonos" unicode="&#x38f;" horiz-adv-x="1783" 
d="M55 1028l162 372h139l-176 -372h-125zM1547 731c0 104 -24.333 199.667 -73 287s-115.167 156.166 -199.5 206.499s-176.833 75.5 -277.5 75.5s-193.167 -25.167 -277.5 -75.5s-150.833 -119.166 -199.5 -206.499s-73 -183 -73 -287c0 -124 35.167 -238.5 105.5 -343.5
s179.833 -194.167 328.5 -267.5v-120h-560v124h371c-130 74 -227 163.833 -291 269.5s-96 221.5 -96 347.5c0 124.667 30.5 239.334 91.5 344.001s144.5 187.334 250.5 248.001s222.667 91 350 91s244 -30.333 350 -91s189.5 -143.334 250.5 -248.001
s91.5 -219.334 91.5 -344.001c0 -125.333 -32 -241 -96 -347s-161 -196 -291 -270h371v-124h-560v120c148.667 73.333 258.167 162.5 328.5 267.5s105.5 219.5 105.5 343.5z" />
    <glyph glyph-name="iotadieresistonos" unicode="&#x390;" horiz-adv-x="547" 
d="M190 217v819h136v-787c0 -86 41 -129 123 -129h52v-117c-19.333 -2 -44.333 -3 -75 -3c-157.333 -0 -236 72.333 -236 217zM-15 1274c0 28 9.16699 51.167 27.5 69.5s41.833 27.5 70.5 27.5s52.167 -9.16699 70.5 -27.5s27.5 -41.5 27.5 -69.5
s-9.16699 -51.167 -27.5 -69.5s-41.833 -27.5 -70.5 -27.5s-52.167 9.16699 -70.5 27.5s-27.5 41.5 -27.5 69.5zM333 1274c0 28 9.16699 51.167 27.5 69.5s41.833 27.5 70.5 27.5s52.167 -9.16699 70.5 -27.5s27.5 -41.5 27.5 -69.5s-9.16699 -51.167 -27.5 -69.5
s-41.833 -27.5 -70.5 -27.5s-52.167 9.16699 -70.5 27.5s-27.5 41.5 -27.5 69.5zM305 1448h-137l218 262h141z" />
    <glyph glyph-name="Alpha" unicode="&#x391;" horiz-adv-x="1348" 
d="M1292 0h-154l-144 385h-640l-144 -385h-154l541 1400h154zM951 507l-277 736l-277 -736h554z" />
    <glyph glyph-name="Beta" unicode="&#x392;" horiz-adv-x="1224" 
d="M695 0l-518.999 0.00292969v1400h472c121.333 0 217.333 -33.333 288 -100s106 -154.334 106 -263.001c0 -75.333 -19.833 -139.333 -59.5 -192s-91.167 -88.334 -154.5 -107.001c83.333 -14.667 153.166 -52.834 209.499 -114.501s84.5 -139.167 84.5 -232.5
c0 -115.333 -39.167 -209.333 -117.5 -282s-181.5 -109 -309.5 -109zM900.001 1031c0 75.333 -24.167 135.334 -72.5 180.001s-111.5 67 -189.5 67h-322v-493h322c78 0 141.167 22.167 189.5 66.5s72.5 104.166 72.5 179.499zM980.001 395.004c0 81.333 -27.5 147 -82.5 197
s-126.833 75 -215.5 75h-366v-545h366c88.667 0 160.5 25 215.5 75s82.5 116 82.5 198z" />
    <glyph glyph-name="Gamma" unicode="&#x393;" horiz-adv-x="1027" 
d="M176 0v1400h797v-122h-657v-1278h-140z" />
    <glyph glyph-name="uni0394" unicode="&#x394;" horiz-adv-x="1348" 
d="M751 1400l541 -1400h-1236l541 1400h154zM674 1243l-423 -1121h846z" />
    <glyph glyph-name="Epsilon" unicode="&#x395;" horiz-adv-x="1118" 
d="M176 0v1400h802v-122h-662v-513h609v-122h-609v-521h680v-122h-820z" />
    <glyph glyph-name="Zeta" unicode="&#x396;" horiz-adv-x="1189" 
d="M122 122l768 1156h-738v122h904v-122l-768 -1156h788v-122h-954v122z" />
    <glyph glyph-name="Eta" unicode="&#x397;" horiz-adv-x="1380" 
d="M176 0v1400h140v-635h748v635h140v-1400h-140v643h-748v-643h-140z" />
    <glyph glyph-name="Theta" unicode="&#x398;" horiz-adv-x="1618" 
d="M521 641v118h576v-118h-576zM809 100c107.333 0 205.833 26.667 295.5 80s160.167 125.833 211.5 217.5s77 192.5 77 302.5s-25.667 210.833 -77 302.5s-121.833 164.167 -211.5 217.5s-188.167 80 -295.5 80s-205.833 -26.667 -295.5 -80
s-160.167 -125.833 -211.5 -217.5s-77 -192.5 -77 -302.5s25.667 -210.833 77 -302.5s121.833 -164.167 211.5 -217.5s188.167 -80 295.5 -80zM809 1424c100.667 0 195.834 -18.667 285.501 -56s166.667 -88.166 231 -152.499s115.333 -141.166 153 -230.499
s56.5 -184.333 56.5 -285s-18.833 -195.667 -56.5 -285s-88.667 -166.166 -153 -230.499s-141.333 -115.166 -231 -152.499s-184.834 -56 -285.501 -56s-195.834 18.667 -285.501 56s-166.667 88.166 -231 152.499s-115.333 141.166 -153 230.499s-56.5 184.333 -56.5 285
s18.833 195.667 56.5 285s88.667 166.166 153 230.499s141.333 115.166 231 152.499s184.834 56 285.501 56z" />
    <glyph glyph-name="Iota" unicode="&#x399;" horiz-adv-x="564" 
d="M212 1400h140v-1400h-140v1400z" />
    <glyph glyph-name="Kappa" unicode="&#x39a;" horiz-adv-x="1187" 
d="M316 1400v-635h156l458 635h162l-500 -694l580 -706h-166l-530 643h-160v-643h-140v1400h140z" />
    <glyph glyph-name="Lambda" unicode="&#x39b;" horiz-adv-x="1348" 
d="M1138 0l-464 1233l-464 -1233h-154l541 1400h154l541 -1400h-154z" />
    <glyph glyph-name="Mu" unicode="&#x39c;" horiz-adv-x="1684" 
d="M888 458h-92l-484 707v-1165h-136v1400h131l535 -785l535 785h131v-1400h-136v1165z" />
    <glyph glyph-name="Nu" unicode="&#x39d;" horiz-adv-x="1390" 
d="M176 0v1400h134l768 -1156v1156h136v-1400h-134l-768 1156v-1156h-136z" />
    <glyph glyph-name="Xi" unicode="&#x39e;" horiz-adv-x="1164" 
d="M140 1278v122h884v-122h-884zM122 0v122h920v-122h-920zM956 641h-768v122h768v-122z" />
    <glyph glyph-name="Omicron" unicode="&#x39f;" horiz-adv-x="1618" 
d="M809 100c107.333 0 205.833 26.667 295.5 80s160.167 125.833 211.5 217.5s77 192.5 77 302.5s-25.667 210.833 -77 302.5s-121.833 164.167 -211.5 217.5s-188.167 80 -295.5 80s-205.833 -26.667 -295.5 -80s-160.167 -125.833 -211.5 -217.5s-77 -192.5 -77 -302.5
s25.667 -210.833 77 -302.5s121.833 -164.167 211.5 -217.5s188.167 -80 295.5 -80zM809 1424c100.667 0 195.834 -18.667 285.501 -56s166.667 -88.166 231 -152.499s115.333 -141.166 153 -230.499s56.5 -184.333 56.5 -285s-18.833 -195.667 -56.5 -285
s-88.667 -166.166 -153 -230.499s-141.333 -115.166 -231 -152.499s-184.834 -56 -285.501 -56s-195.834 18.667 -285.501 56s-166.667 88.166 -231 152.499s-115.333 141.166 -153 230.499s-56.5 184.333 -56.5 285s18.833 195.667 56.5 285s88.667 166.166 153 230.499
s141.333 115.166 231 152.499s184.834 56 285.501 56z" />
    <glyph glyph-name="Pi" unicode="&#x3a0;" horiz-adv-x="1343" 
d="M1167 1400v-1400h-140v1278h-711v-1278h-140v1400h991z" />
    <glyph glyph-name="Rho" unicode="&#x3a1;" horiz-adv-x="1154" 
d="M599 548l-283 -0.00195312v-548h-140v1400h423c145.333 0 261.333 -38.667 348 -116s130 -180.666 130 -309.999s-43.333 -232.666 -130 -309.999s-202.667 -116 -348 -116zM935 973.998c0 92.667 -30.667 166.5 -92 221.5s-144.333 82.5 -249 82.5h-278v-608h278
c104.667 0 187.667 27.5 249 82.5s92 128.833 92 221.5z" />
    <glyph glyph-name="Sigma" unicode="&#x3a3;" horiz-adv-x="1146" 
d="M123 120l454 582l-454 578v120h900v-122h-729l434 -548v-58l-435 -550h730v-122h-900v120z" />
    <glyph glyph-name="Tau" unicode="&#x3a4;" horiz-adv-x="1086" 
d="M473 0v1278h-409v122h958v-122h-409v-1278h-140z" />
    <glyph glyph-name="Upsilon" unicode="&#x3a5;" horiz-adv-x="1280" 
d="M208 1400l432 -688l432 688h154l-516 -826v-574h-140v574l-516 826h154z" />
    <glyph glyph-name="Phi" unicode="&#x3a6;" horiz-adv-x="1494" 
d="M677 314v768c-127.333 0 -235.5 -37.5 -324.5 -112.5s-133.5 -165.5 -133.5 -271.5s44.5 -196.5 133.5 -271.5s197.167 -112.5 324.5 -112.5zM817 0h-140v192c-109.333 0 -210 22.333 -302 67s-164.667 105.834 -218 183.501s-80 162.834 -80 255.501
s26.667 177.834 80 255.501s126 138.834 218 183.501s192.667 67 302 67v196h140v-196c109.333 0 210 -22.333 302 -67s164.667 -105.834 218 -183.501s80 -162.834 80 -255.501s-26.667 -177.834 -80 -255.501s-126 -138.834 -218 -183.501s-192.667 -67 -302 -67v-192z
M817 1082v-768c127.333 0 235.5 37.5 324.5 112.5s133.5 165.5 133.5 271.5s-44.5 196.5 -133.5 271.5s-197.167 112.5 -324.5 112.5z" />
    <glyph glyph-name="Chi" unicode="&#x3a7;" horiz-adv-x="1248" 
d="M204 0h-156l492 712l-474 688h156l402 -584l402 584h156l-474 -688l492 -712h-156l-420 608z" />
    <glyph glyph-name="Psi" unicode="&#x3a8;" horiz-adv-x="1368" 
d="M754 1400v-939.999c98 13.333 178.833 56.5 242.5 129.5s95.5 166.5 95.5 280.5v530h140v-534c0 -143.333 -45.167 -264.333 -135.5 -363s-204.5 -156 -342.5 -172v-331h-140v331c-138 16 -252.167 73.333 -342.5 172s-135.5 219.667 -135.5 363v534h140v-530
c0 -114.667 31.667 -208.334 95 -281.001s144.333 -115.667 243 -129v940h140z" />
    <glyph glyph-name="uni03A9" unicode="&#x3a9;" horiz-adv-x="1572" 
d="M1336 731c0 104 -24.333 199.667 -73 287s-115.167 156.166 -199.5 206.499s-176.833 75.5 -277.5 75.5s-193.167 -25.167 -277.5 -75.5s-150.833 -119.166 -199.5 -206.499s-73 -183 -73 -287c0 -124 35.167 -238.5 105.5 -343.5s179.833 -194.167 328.5 -267.5v-120
h-560v124h371c-130 74 -227 163.833 -291 269.5s-96 221.5 -96 347.5c0 124.667 30.5 239.334 91.5 344.001s144.5 187.334 250.5 248.001s222.667 91 350 91s244 -30.333 350 -91s189.5 -143.334 250.5 -248.001s91.5 -219.334 91.5 -344.001c0 -125.333 -32 -241 -96 -347
s-161 -196 -291 -270h371v-124h-560v120c148.667 73.333 258.167 162.5 328.5 267.5s105.5 219.5 105.5 343.5z" />
    <glyph glyph-name="Iotadieresis" unicode="&#x3aa;" horiz-adv-x="564" 
d="M212 1400h140v-1400h-140v1400zM14 1664c0 26.667 9 49 27 67s40.333 27 67 27s49 -9 67 -27s27 -40.333 27 -67s-9 -49 -27 -67s-40.333 -27 -67 -27s-49 9 -67 27s-27 40.333 -27 67zM362 1664c0 26.667 9 49 27 67s40.333 27 67 27s49 -9 67 -27s27 -40.333 27 -67
s-9 -49 -27 -67s-40.333 -27 -67 -27s-49 9 -67 27s-27 40.333 -27 67z" />
    <glyph glyph-name="Upsilondieresis" unicode="&#x3ab;" horiz-adv-x="1280" 
d="M208 1400l432 -688l432 688h154l-516 -826v-574h-140v574l-516 826h154zM371 1664c0 26.667 9 49 27 67s40.333 27 67 27s49 -9 67 -27s27 -40.333 27 -67s-9 -49 -27 -67s-40.333 -27 -67 -27s-49 9 -67 27s-27 40.333 -27 67zM719 1664c0 26.667 9 49 27 67
s40.333 27 67 27s49 -9 67 -27s27 -40.333 27 -67s-9 -49 -27 -67s-40.333 -27 -67 -27s-49 9 -67 27s-27 40.333 -27 67z" />
    <glyph glyph-name="alphatonos" unicode="&#x3ac;" horiz-adv-x="1371" 
d="M1250 0c-77.333 0 -135.666 13.3262 -174.999 39.9932s-62.666 69.334 -69.999 128.001c-47.333 -61.333 -105.5 -108.666 -174.5 -141.999s-143.167 -50 -222.5 -50c-100 0 -190.833 24.833 -272.5 74.5s-145 115.834 -190 198.501s-67.5 172.334 -67.5 269.001
s22.5 186.334 67.5 269.001s108.333 148.834 190 198.501s172.5 74.5 272.5 74.5c77.333 0 149.166 -15.667 215.499 -47s123.166 -75.666 170.499 -132.999v156h136v-777c0 -44 11.667 -78.167 35 -102.5s56.333 -36.5 99 -36.5h61v-117c-19.333 -2 -44.333 -3 -75 -3z
M628 97.9932c79.333 0 151.5 20.498 216.5 61.498s114.833 95.5 149.5 163.5v388c-34.667 68.667 -84.5 123.667 -149.5 165s-137.167 62 -216.5 62c-76 0 -145.833 -19 -209.5 -57s-113.334 -89.167 -149.001 -153.5s-53.5 -134.166 -53.5 -209.499
s17.833 -145.166 53.5 -209.499s85.334 -115.5 149.001 -153.5s133.5 -57 209.5 -57zM473 1188.99l277 332h143l-281 -332h-139z" />
    <glyph glyph-name="epsilontonos" unicode="&#x3ad;" horiz-adv-x="944" 
d="M486 95c120.667 0 218.667 46.666 294 139.999l95 -78c-90.667 -120.667 -220.334 -181 -389.001 -181c-114.667 0 -211.5 30.167 -290.5 90.5s-118.5 134.5 -118.5 222.5c0 65.333 23.167 122.5 69.5 171.5s101.833 81.833 166.5 98.5
c-60.667 18 -108.167 47.833 -142.5 89.5s-51.5 87.834 -51.5 138.501c0 77.333 34.667 142.166 104 194.499s155 78.5 257 78.5c79.333 0 149.5 -15.833 210.5 -47.5s106.833 -76.5 137.5 -134.5l-110 -68c-20.667 42.667 -52.167 75.334 -94.5 98.001
s-90.166 34 -143.499 34c-63.333 0 -116.666 -15.667 -159.999 -47s-65 -70.333 -65 -117s21.667 -85.667 65 -117s96.666 -47 159.999 -47h154v-114h-148c-76.667 0 -141.334 -19.5 -194.001 -58.5s-79 -87.167 -79 -144.5c0 -56.667 26.333 -104.5 79 -143.5
s117.334 -58.5 194.001 -58.5zM313 1189l277 332h143l-281 -332h-139z" />
    <glyph glyph-name="etatonos" unicode="&#x3ae;" horiz-adv-x="1195" 
d="M288 687v-686.999h-136v1036h136v-197c42 63.333 93.333 116 154 158s130.334 63 209.001 63c119.333 0 217.666 -39 294.999 -117s116 -177 116 -297v-1110h-136v1102c0 85.333 -28.167 156.666 -84.5 213.999s-127.833 86 -214.5 86
c-71.333 0 -135.5 -23.667 -192.5 -71s-105.833 -107.333 -146.5 -180zM477 1189l277 332h143l-281 -332h-139z" />
    <glyph glyph-name="iotatonos" unicode="&#x3af;" horiz-adv-x="547" 
d="M190 217v819h136v-787c0 -86 41 -129 123 -129h52v-117c-19.333 -2 -44.333 -3 -75 -3c-157.333 -0 -236 72.333 -236 217zM133 1189l277 332h143l-281 -332h-139z" />
    <glyph glyph-name="upsilondieresistonos" unicode="&#x3b0;" horiz-adv-x="1134" 
d="M567 -24c-122 0 -224.833 41.167 -308.5 123.5s-125.5 183.166 -125.5 302.499v634h136v-628c0 -87.333 28.667 -160.833 86 -220.5s128 -89.5 212 -89.5c83.333 0 153.833 29.833 211.5 89.5s86.5 133.167 86.5 220.5v628h136v-634
c0 -119.333 -41.833 -220.166 -125.5 -302.499s-186.5 -123.5 -308.5 -123.5zM295 1274c0 28 9.16699 51.167 27.5 69.5s41.833 27.5 70.5 27.5s52.167 -9.16699 70.5 -27.5s27.5 -41.5 27.5 -69.5s-9.16699 -51.167 -27.5 -69.5s-41.833 -27.5 -70.5 -27.5
s-52.167 9.16699 -70.5 27.5s-27.5 41.5 -27.5 69.5zM643 1274c0 28 9.16699 51.167 27.5 69.5s41.833 27.5 70.5 27.5s52.167 -9.16699 70.5 -27.5s27.5 -41.5 27.5 -69.5s-9.16699 -51.167 -27.5 -69.5s-41.833 -27.5 -70.5 -27.5s-52.167 9.16699 -70.5 27.5
s-27.5 41.5 -27.5 69.5zM615 1448h-137l218 262h141z" />
    <glyph glyph-name="alpha" unicode="&#x3b1;" horiz-adv-x="1371" 
d="M1250 0c-77.333 0 -135.666 13.3262 -174.999 39.9932s-62.666 69.334 -69.999 128.001c-47.333 -61.333 -105.5 -108.666 -174.5 -141.999s-143.167 -50 -222.5 -50c-100 0 -190.833 24.833 -272.5 74.5s-145 115.834 -190 198.501s-67.5 172.334 -67.5 269.001
s22.5 186.334 67.5 269.001s108.333 148.834 190 198.501s172.5 74.5 272.5 74.5c77.333 0 149.166 -15.667 215.499 -47s123.166 -75.666 170.499 -132.999v156h136v-777c0 -44 11.667 -78.167 35 -102.5s56.333 -36.5 99 -36.5h61v-117c-19.333 -2 -44.333 -3 -75 -3z
M628 97.9932c79.333 0 151.5 20.498 216.5 61.498s114.833 95.5 149.5 163.5v388c-34.667 68.667 -84.5 123.667 -149.5 165s-137.167 62 -216.5 62c-76 0 -145.833 -19 -209.5 -57s-113.334 -89.167 -149.001 -153.5s-53.5 -134.166 -53.5 -209.499
s17.833 -145.166 53.5 -209.499s85.334 -115.5 149.001 -153.5s133.5 -57 209.5 -57z" />
    <glyph glyph-name="beta" unicode="&#x3b2;" horiz-adv-x="1191" 
d="M161 -464l0.000976562 1499c0 110.667 38.667 203.167 116 277.5s173.666 111.5 288.999 111.5c114 0 210 -35 288 -105s117 -154.667 117 -254c0 -70 -24.833 -133 -74.5 -189s-112.834 -94 -189.501 -114c110.667 -16 202.834 -59.5 276.501 -130.5
s110.5 -157.833 110.5 -260.5c0 -111.333 -41.833 -205 -125.5 -281s-187.167 -114 -310.5 -114c-76 0 -145.5 17.833 -208.5 53.5s-112.5 81.834 -148.5 138.501v-632h-140zM301.001 1029l0.00195312 -707.001c35.333 -68.667 81.666 -123.167 138.999 -163.5
s121 -60.5 191 -60.5c91.333 0 167.666 26.833 228.999 80.5s92 120.5 92 200.5c0 92.667 -40 167.334 -120 224.001s-190 85 -330 85v119c102 0 182 24.333 240 73s87 108.667 87 180c0 68.667 -25.667 126.5 -77 173.5s-113.666 70.5 -186.999 70.5
c-74.667 0 -137.334 -26.167 -188.001 -78.5s-76 -117.833 -76 -196.5z" />
    <glyph glyph-name="gamma" unicode="&#x3b3;" horiz-adv-x="1046" 
d="M455 -464v470l-420 1030h144l344 -854l344 854h144l-420 -1030v-470h-136z" />
    <glyph glyph-name="delta" unicode="&#x3b4;" horiz-adv-x="1113" 
d="M73 444c0 84.667 20.8301 161.999 62.4971 231.999s97.834 124.667 168.501 164s147.667 59 231 59c26 0 51.333 -2 76 -6l-403 391v116h706v-122h-529l518 -509c42.667 -42.667 76 -92.167 100 -148.5s36 -115.166 36 -176.499
c0 -87.333 -22.167 -167.166 -66.5 -239.499s-103.5 -128.5 -177.5 -168.5s-154.333 -60 -241 -60c-85.333 0 -164.666 20 -237.999 60s-132.166 96.167 -176.499 168.5s-66.5 152.166 -66.5 239.499zM210.997 443.999c0 -97.333 33.5 -179.666 100.5 -246.999
s148.5 -101 244.5 -101s177.5 33.667 244.5 101s100.5 149.666 100.5 246.999s-33.5 179.666 -100.5 246.999s-148.5 101 -244.5 101s-177.5 -33.667 -244.5 -101s-100.5 -149.666 -100.5 -246.999z" />
    <glyph glyph-name="epsilon" unicode="&#x3b5;" horiz-adv-x="944" 
d="M486 95c120.667 0 218.667 46.666 294 139.999l95 -78c-90.667 -120.667 -220.334 -181 -389.001 -181c-114.667 0 -211.5 30.167 -290.5 90.5s-118.5 134.5 -118.5 222.5c0 65.333 23.167 122.5 69.5 171.5s101.833 81.833 166.5 98.5
c-60.667 18 -108.167 47.833 -142.5 89.5s-51.5 87.834 -51.5 138.501c0 77.333 34.667 142.166 104 194.499s155 78.5 257 78.5c79.333 0 149.5 -15.833 210.5 -47.5s106.833 -76.5 137.5 -134.5l-110 -68c-20.667 42.667 -52.167 75.334 -94.5 98.001
s-90.166 34 -143.499 34c-63.333 0 -116.666 -15.667 -159.999 -47s-65 -70.333 -65 -117s21.667 -85.667 65 -117s96.666 -47 159.999 -47h154v-114h-148c-76.667 0 -141.334 -19.5 -194.001 -58.5s-79 -87.167 -79 -144.5c0 -56.667 26.333 -104.5 79 -143.5
s117.334 -58.5 194.001 -58.5z" />
    <glyph glyph-name="zeta" unicode="&#x3b6;" horiz-adv-x="925" 
d="M78 373c0 62.667 15.499 123.001 46.499 181.001s75.5 122 133.5 192l439 532h-522v122h682v-116l-493 -602c-48 -59.333 -85.167 -113.5 -111.5 -162.5s-39.5 -97.833 -39.5 -146.5c0 -111.333 67.667 -195.333 203 -252l231 -101
c136.667 -59.333 205 -141.333 205 -246c0 -76 -29 -155.333 -87 -238h-137c59.333 79.333 89 153 89 221c0 66 -50.333 120.333 -151 163l-221 95c-85.333 36.667 -151.166 85.667 -197.499 147s-69.5 131.666 -69.5 210.999z" />
    <glyph glyph-name="eta" unicode="&#x3b7;" horiz-adv-x="1195" 
d="M288 687v-686.999h-136v1036h136v-197c42 63.333 93.333 116 154 158s130.334 63 209.001 63c119.333 0 217.666 -39 294.999 -117s116 -177 116 -297v-1110h-136v1102c0 85.333 -28.167 156.666 -84.5 213.999s-127.833 86 -214.5 86
c-71.333 0 -135.5 -23.667 -192.5 -71s-105.833 -107.333 -146.5 -180z" />
    <glyph glyph-name="theta" unicode="&#x3b8;" horiz-adv-x="1266" 
d="M78 700c0 132 23.5 253 70.5 363s113.167 197.667 198.5 263s180.666 98 285.999 98s200.666 -32.667 285.999 -98s151.5 -153 198.5 -263s70.5 -231 70.5 -363s-23.5 -253 -70.5 -363s-113.167 -197.667 -198.5 -263s-180.666 -98 -285.999 -98
s-200.666 32.667 -285.999 98s-151.5 153 -198.5 263s-70.5 231 -70.5 363zM633 98c74 0 141.831 24.167 203.498 72.5s110.834 113.833 147.501 196.5s57.667 174 63 274h-828c5.33301 -100 26.333 -191.333 63 -274s85.834 -148.167 147.501 -196.5
s129.5 -72.5 203.5 -72.5zM632.998 1302c-74 0 -141.831 -24.333 -203.498 -73s-110.834 -114.167 -147.501 -196.5s-57.667 -173.5 -63 -273.5h828c-5.33301 100 -26.333 191.167 -63 273.5s-85.834 147.833 -147.501 196.5s-129.5 73 -203.5 73z" />
    <glyph glyph-name="iota" unicode="&#x3b9;" horiz-adv-x="547" 
d="M190 217v819h136v-787c0 -86 41 -129 123 -129h52v-117c-19.333 -2 -44.333 -3 -75 -3c-157.333 -0 -236 72.333 -236 217z" />
    <glyph glyph-name="kappa" unicode="&#x3ba;" horiz-adv-x="1018" 
d="M842 0l-396 507h-158v-507h-136v1036h136v-411h160l336 411h164l-386 -470l440 -566h-160z" />
    <glyph glyph-name="lambda" unicode="&#x3bb;" horiz-adv-x="1044" 
d="M454 1013l-181 447h144l593 -1460h-144l-343 838l-345 -838h-144z" />
    <glyph glyph-name="uni03BC" unicode="&#x3bc;" horiz-adv-x="1214" 
d="M152 -464l0.000976562 1500h136v-718c23.333 -64 62.5 -116.667 117.5 -158s115.167 -62 180.5 -62c67.333 0 130.666 22.833 189.999 68.5s109.333 103.834 150 174.501v695h136v-1036h-136v187c-41.333 -60.667 -92.5 -111 -153.5 -151s-127.167 -60 -198.5 -60
c-59.333 0 -114.333 15.667 -165 47s-91 70.333 -121 117v-604h-136z" />
    <glyph glyph-name="nu" unicode="&#x3bd;" horiz-adv-x="1034" 
d="M1000 1036l-413 -1036h-140l-413 1036h144l339 -856l339 856h144z" />
    <glyph glyph-name="xi" unicode="&#x3be;" horiz-adv-x="935" 
d="M220 377c0 -66 19.5 -124.334 58.5 -175.001s97.167 -90 174.5 -118l191 -69c150 -54 225 -135 225 -243c0 -74.667 -32.333 -153.334 -97 -236.001h-138c66.667 77.333 100 150.333 100 219c0 66.667 -52 118.667 -156 156l-186 66
c-97.333 34.667 -172.833 87.834 -226.5 159.501s-80.5 150.167 -80.5 235.5c0 88.667 28 168.834 84 240.501s127.667 122.5 215 152.5c-70 24.667 -127 65.5 -171 122.5s-66 120.833 -66 191.5c0 96.667 37 178.334 111 245.001s164.667 100 272 100
c132 0 237.667 -47 317 -141l-90 -95c-62 81.333 -137.667 122 -227 122c-69.333 0 -127.833 -23.5 -175.5 -70.5s-71.5 -104.833 -71.5 -173.5s23.833 -126.334 71.5 -173.001s106.167 -70 175.5 -70h206v-114h-178c-95.333 0 -175.5 -32 -240.5 -96
s-97.5 -142.667 -97.5 -236z" />
    <glyph glyph-name="omicron" unicode="&#x3bf;" horiz-adv-x="1256" 
d="M628 98c76 0 145.833 19 209.5 57s113.334 89.167 149.001 153.5s53.5 134.166 53.5 209.499s-17.833 145.166 -53.5 209.499s-85.334 115.5 -149.001 153.5s-133.5 57 -209.5 57s-145.833 -19 -209.5 -57s-113.334 -89.167 -149.001 -153.5
s-53.5 -134.166 -53.5 -209.499s17.833 -145.166 53.5 -209.499s85.334 -115.5 149.001 -153.5s133.5 -57 209.5 -57zM628 1060c103.333 0 197.333 -24.5 282 -73.5s150.5 -114.833 197.5 -197.5s70.5 -173 70.5 -271s-23.5 -188.333 -70.5 -271
s-112.833 -148.5 -197.5 -197.5s-178.667 -73.5 -282 -73.5s-197.333 24.5 -282 73.5s-150.5 114.833 -197.5 197.5s-70.5 173 -70.5 271s23.5 188.333 70.5 271s112.833 148.5 197.5 197.5s178.667 73.5 282 73.5z" />
    <glyph glyph-name="pi" unicode="&#x3c0;" horiz-adv-x="1132" 
d="M358 914v-914h-136v914h-172v122h1032v-122h-172v-914h-136v914h-416z" />
    <glyph glyph-name="rho" unicode="&#x3c1;" horiz-adv-x="1273" 
d="M269 518l-0.00195312 -111c22.667 -93.333 69.834 -168.166 141.501 -224.499s152.834 -84.5 243.501 -84.5c112.667 0 208 40.667 286 122s117 180.666 117 297.999c0 118 -37.833 217.5 -113.5 298.5s-169.167 121.5 -280.5 121.5s-204.833 -40.5 -280.5 -121.5
s-113.5 -180.5 -113.5 -298.5zM673.998 -24c-86.667 0 -165.333 20.667 -236 62s-127 96.333 -169 165v-667h-136v982c0 99.333 22.833 190.5 68.5 273.5s109.167 148.5 190.5 196.5s172 72 272 72s190.667 -24 272 -72s144.833 -113.5 190.5 -196.5
s68.5 -174.167 68.5 -273.5c0 -98 -22.5 -188.5 -67.5 -271.5s-107.5 -148.833 -187.5 -197.5s-168.667 -73 -266 -73z" />
    <glyph glyph-name="sigma1" unicode="&#x3c2;" horiz-adv-x="1071" 
d="M78 518c0 98 23.5 188.331 70.5 270.998s112.833 148.5 197.5 197.5s178.667 73.5 282 73.5c144.667 0 269.334 -47 374.001 -141l-71 -108c-90 84.667 -191 127 -303 127c-76 0 -145.833 -19 -209.5 -57s-113.334 -89.167 -149.001 -153.5
s-53.5 -134.166 -53.5 -209.499c0 -90 24.5 -168.667 73.5 -236s119.167 -119.666 210.5 -156.999l263 -108c134 -55.333 201 -136.333 201 -243c0 -76 -32.333 -155.333 -97 -238h-138c66.667 80.667 100 154.334 100 221.001c0 66 -48.667 119 -146 159l-251 103
c-110 45.333 -196.5 111.166 -259.5 197.499s-94.5 186.833 -94.5 301.5z" />
    <glyph glyph-name="sigma" unicode="&#x3c3;" horiz-adv-x="1293" 
d="M616 1036l627.001 -0.000976562v-122h-327c72 -42 129.667 -100.167 173 -174.5s65 -155.5 65 -243.5c0 -94.667 -23.833 -181.834 -71.5 -261.501s-112.834 -142.667 -195.501 -189s-173 -69.5 -271 -69.5c-74 0 -144.167 13.833 -210.5 41.5s-123.5 65 -171.5 112
s-86 103.333 -114 169s-42 134.834 -42 207.501s14 141.834 42 207.501s66 122 114 169s105.167 84.333 171.5 112s136.5 41.5 210.5 41.5zM216.001 505.999c0 -114.667 38.667 -211.334 116 -290.001s172 -118 284 -118c112.667 0 207.5 39.333 284.5 118
s115.5 175.334 115.5 290.001c0 114 -38.667 210.5 -116 289.5s-172 118.5 -284 118.5s-206.667 -39.5 -284 -118.5s-116 -175.5 -116 -289.5z" />
    <glyph glyph-name="tau" unicode="&#x3c4;" horiz-adv-x="964" 
d="M403 278l0.000976562 636h-356v122h870v-122h-378v-637c0 -56 11.667 -96.5 35 -121.5s59.666 -37.5 108.999 -37.5h61v-117c-18.667 -2 -43.667 -3 -75 -3c-92.667 0 -160.167 22.167 -202.5 66.5s-63.5 115.5 -63.5 213.5z" />
    <glyph glyph-name="upsilon" unicode="&#x3c5;" horiz-adv-x="1134" 
d="M567 -24c-122 0 -224.833 41.167 -308.5 123.5s-125.5 183.166 -125.5 302.499v634h136v-628c0 -87.333 28.667 -160.833 86 -220.5s128 -89.5 212 -89.5c83.333 0 153.833 29.833 211.5 89.5s86.5 133.167 86.5 220.5v628h136v-634
c0 -119.333 -41.833 -220.166 -125.5 -302.499s-186.5 -123.5 -308.5 -123.5z" />
    <glyph glyph-name="phi" unicode="&#x3c6;" horiz-adv-x="1374" 
d="M272 936l96.001 -87.001c-47.333 -42.667 -84.5 -92.5 -111.5 -149.5s-40.5 -117.5 -40.5 -181.5c0 -112.667 38.667 -209 116 -289s173 -123 287 -129v960h109c79.333 0 154.166 -14.167 224.499 -42.5s130.5 -66.5 180.5 -114.5s89.667 -105.5 119 -172.5
s44 -137.833 44 -212.5c0 -147.333 -51.667 -272.666 -155 -375.999s-232 -158.333 -386 -165v-441h-136v441c-154 6 -282.667 60.833 -386 164.5s-155 229.167 -155 376.5c0 84 17.5 162.167 52.5 234.5s82.167 133.5 141.5 183.5zM1158 517.999
c0 112 -38.667 207.83 -116 287.497s-173 122.834 -287 129.501v-835c114 6.66699 209.667 49.834 287 129.501s116 175.834 116 288.501z" />
    <glyph glyph-name="chi" unicode="&#x3c7;" horiz-adv-x="1028" 
d="M1008 -464h-148l-346 636l-346 -636h-148l416 768l-396 732h148l326 -601l326 601h148l-396 -732z" />
    <glyph glyph-name="psi" unicode="&#x3c8;" horiz-adv-x="1362" 
d="M750 1036v-928.999c98 13.333 179.333 57.666 244 132.999s97 164 97 266v530h138v-535c0 -136 -45.667 -253 -137 -351s-205.333 -154 -342 -168v-446h-138v446c-137.333 14 -251.5 70 -342.5 168s-136.5 215 -136.5 351v535h138v-530
c0 -102.667 32.167 -191.5 96.5 -266.5s145.833 -119.167 244.5 -132.5v929h138z" />
    <glyph glyph-name="omega" unicode="&#x3c9;" horiz-adv-x="1576" 
d="M788 216c-30 -70 -73.167 -127.5 -129.5 -172.5s-119.5 -67.5 -189.5 -67.5c-72 0 -138 23.333 -198 70s-107.167 110.834 -141.5 192.501s-51.5 171.5 -51.5 269.5c0 165.333 59.333 341.333 178 528h137c-118 -190.667 -177 -366.667 -177 -528
c0 -115.333 25.167 -212.5 75.5 -291.5s112.166 -118.5 185.499 -118.5c64.667 0 121.334 33.333 170.001 100s73 145 73 235v385h136v-385c0 -90 24.333 -168.333 73 -235s105.334 -100 170.001 -100c73.333 0 135.166 39.5 185.499 118.5s75.5 176.167 75.5 291.5
c0 161.333 -59 337.333 -177 528h137c118.667 -186.667 178 -362.667 178 -528c0 -98 -17.167 -187.833 -51.5 -269.5s-81.5 -145.834 -141.5 -192.501s-126 -70 -198 -70c-70 0 -133.167 22.5 -189.5 67.5s-99.5 102.5 -129.5 172.5z" />
    <glyph glyph-name="iotadieresis" unicode="&#x3ca;" horiz-adv-x="547" 
d="M190 217v819h136v-787c0 -86 41 -129 123 -129h52v-117c-19.333 -2 -44.333 -3 -75 -3c-157.333 -0 -236 72.333 -236 217zM-10 1340c0 26.667 9 49 27 67s40.333 27 67 27s49 -9 67 -27s27 -40.333 27 -67s-9 -49 -27 -67s-40.333 -27 -67 -27s-49 9 -67 27
s-27 40.333 -27 67zM338 1340c0 26.667 9 49 27 67s40.333 27 67 27s49 -9 67 -27s27 -40.333 27 -67s-9 -49 -27 -67s-40.333 -27 -67 -27s-49 9 -67 27s-27 40.333 -27 67z" />
    <glyph glyph-name="upsilondieresis" unicode="&#x3cb;" horiz-adv-x="1134" 
d="M567 -24c-122 0 -224.833 41.167 -308.5 123.5s-125.5 183.166 -125.5 302.499v634h136v-628c0 -87.333 28.667 -160.833 86 -220.5s128 -89.5 212 -89.5c83.333 0 153.833 29.833 211.5 89.5s86.5 133.167 86.5 220.5v628h136v-634
c0 -119.333 -41.833 -220.166 -125.5 -302.499s-186.5 -123.5 -308.5 -123.5zM299 1340c0 26.667 9 49 27 67s40.333 27 67 27s49 -9 67 -27s27 -40.333 27 -67s-9 -49 -27 -67s-40.333 -27 -67 -27s-49 9 -67 27s-27 40.333 -27 67zM647 1340c0 26.667 9 49 27 67
s40.333 27 67 27s49 -9 67 -27s27 -40.333 27 -67s-9 -49 -27 -67s-40.333 -27 -67 -27s-49 9 -67 27s-27 40.333 -27 67z" />
    </font>
</defs>
</svg>
